SplineFontDB: 3.2
FontName: MatrixSansRaster-Regular
FullName: Matrix Sans Raster
FamilyName: Matrix Sans Raster
Weight: Regular
Copyright: Copyright 2022 The Matrix Sans Project Authors (https://github.com/FriedOrange/MatrixSans)
Version: 0.300
ItalicAngle: 0
UnderlinePosition: -150
UnderlineWidth: 100
Ascent: 800
Descent: 200
InvalidEm: 0
LayerCount: 2
Layer: 0 0 "Back" 1
Layer: 1 0 "Fore" 0
XUID: [1021 655 -629464056 810]
StyleMap: 0x0000
FSType: 0
OS2Version: 0
OS2_WeightWidthSlopeOnly: 0
OS2_UseTypoMetrics: 1
CreationTime: 1657964544
ModificationTime: 1670510313
PfmFamily: 81
TTFWeight: 400
TTFWidth: 5
LineGap: 0
VLineGap: 90
Panose: 4 1 6 4 2 11 2 2 3 2
OS2TypoAscent: 1000
OS2TypoAOffset: 0
OS2TypoDescent: -300
OS2TypoDOffset: 0
OS2TypoLinegap: 0
OS2WinAscent: 1000
OS2WinAOffset: 0
OS2WinDescent: 200
OS2WinDOffset: 0
HheadAscent: 1000
HheadAOffset: 0
HheadDescent: -300
HheadDOffset: 0
OS2SubXSize: 714
OS2SubYSize: 714
OS2SubXOff: 0
OS2SubYOff: 100
OS2SupXSize: 714
OS2SupYSize: 714
OS2SupXOff: 0
OS2SupYOff: 300
OS2StrikeYSize: 100
OS2StrikeYPos: 300
OS2CapHeight: 700
OS2XHeight: 500
OS2FamilyClass: 2058
OS2Vendor: 'PfEd'
MarkAttachClasses: 1
DEI: 91125
LangName: 1033 "" "" "" "" "" "" "" "" "" "Brad Neil" "" "" "http://friedorange.xyz/" "This Font Software is licensed under the SIL Open Font License, Version 1.1. This license is available with a FAQ at: https://scripts.sil.org/OFL" "https://scripts.sil.org/OFL" "" "Matrix Sans" "Raster" "" "" "" "Matrix Sans Raster" "Regular"
Encoding: UnicodeFull
UnicodeInterp: none
NameList: AGL For New Fonts
DisplaySize: -48
AntiAlias: 1
FitToEm: 1
WinInfo: 16 16 14
BeginPrivate: 0
EndPrivate
TeXData: 1 0 0 629146 314573 209715 524288 1048576 0 783286 444596 497025 792723 393216 433062 380633 303038 157286 324010 404750 52429 2506097 1059062 262144
AnchorClass2: "marks_above"""  "marks_below"""  "ogonek"""  "marks_aboveright""" 
BeginChars: 1114122 402

StartChar: exclam
Encoding: 33 33 1
Width: 200
Flags: HMW
LayerCount: 2
Fore
SplineSet
40 50 m 0
 40 72 58 90 80 90 c 2
 120 90 l 2
 142 90 160 72 160 50 c 0
 160 28 142 10 120 10 c 2
 80 10 l 2
 58 10 40 28 40 50 c 0
40 250 m 0
 40 272 58 290 80 290 c 2
 120 290 l 2
 142 290 160 272 160 250 c 0
 160 228 142 210 120 210 c 2
 80 210 l 2
 58 210 40 228 40 250 c 0
40 350 m 0
 40 372 58 390 80 390 c 2
 120 390 l 2
 142 390 160 372 160 350 c 0
 160 328 142 310 120 310 c 2
 80 310 l 2
 58 310 40 328 40 350 c 0
40 450 m 0
 40 472 58 490 80 490 c 2
 120 490 l 2
 142 490 160 472 160 450 c 0
 160 428 142 410 120 410 c 2
 80 410 l 2
 58 410 40 428 40 450 c 0
40 550 m 0
 40 572 58 590 80 590 c 2
 120 590 l 2
 142 590 160 572 160 550 c 0
 160 528 142 510 120 510 c 2
 80 510 l 2
 58 510 40 528 40 550 c 0
40 650 m 0
 40 672 58 690 80 690 c 2
 120 690 l 2
 142 690 160 672 160 650 c 0
 160 628 142 610 120 610 c 2
 80 610 l 2
 58 610 40 628 40 650 c 0
EndSplineSet
EndChar

StartChar: quotedbl
Encoding: 34 34 2
Width: 400
Flags: HMW
LayerCount: 2
Fore
SplineSet
240 450 m 0
 240 472 258 490 280 490 c 2
 320 490 l 2
 342 490 360 472 360 450 c 0
 360 428 342 410 320 410 c 2
 280 410 l 2
 258 410 240 428 240 450 c 0
40 450 m 0
 40 472 58 490 80 490 c 2
 120 490 l 2
 142 490 160 472 160 450 c 0
 160 428 142 410 120 410 c 2
 80 410 l 2
 58 410 40 428 40 450 c 0
240 550 m 0
 240 572 258 590 280 590 c 2
 320 590 l 2
 342 590 360 572 360 550 c 0
 360 528 342 510 320 510 c 2
 280 510 l 2
 258 510 240 528 240 550 c 0
40 550 m 0
 40 572 58 590 80 590 c 2
 120 590 l 2
 142 590 160 572 160 550 c 0
 160 528 142 510 120 510 c 2
 80 510 l 2
 58 510 40 528 40 550 c 0
240 650 m 0
 240 672 258 690 280 690 c 2
 320 690 l 2
 342 690 360 672 360 650 c 0
 360 628 342 610 320 610 c 2
 280 610 l 2
 258 610 240 628 240 650 c 0
40 650 m 0
 40 672 58 690 80 690 c 2
 120 690 l 2
 142 690 160 672 160 650 c 0
 160 628 142 610 120 610 c 2
 80 610 l 2
 58 610 40 628 40 650 c 0
EndSplineSet
EndChar

StartChar: numbersign
Encoding: 35 35 3
Width: 600
Flags: HMW
LayerCount: 2
Fore
SplineSet
340 50 m 0
 340 72 358 90 380 90 c 2
 420 90 l 2
 442 90 460 72 460 50 c 0
 460 28 442 10 420 10 c 2
 380 10 l 2
 358 10 340 28 340 50 c 0
140 50 m 0
 140 72 158 90 180 90 c 2
 220 90 l 2
 242 90 260 72 260 50 c 0
 260 28 242 10 220 10 c 2
 180 10 l 2
 158 10 140 28 140 50 c 0
340 150 m 0
 340 172 358 190 380 190 c 2
 420 190 l 2
 442 190 460 172 460 150 c 0
 460 128 442 110 420 110 c 2
 380 110 l 2
 358 110 340 128 340 150 c 0
140 150 m 0
 140 172 158 190 180 190 c 2
 220 190 l 2
 242 190 260 172 260 150 c 0
 260 128 242 110 220 110 c 2
 180 110 l 2
 158 110 140 128 140 150 c 0
40 250 m 0
 40 272 58 290 80 290 c 2
 520 290 l 2
 542 290 560 272 560 250 c 0
 560 228 542 210 520 210 c 2
 80 210 l 2
 58 210 40 228 40 250 c 0
340 350 m 0
 340 372 358 390 380 390 c 2
 420 390 l 2
 442 390 460 372 460 350 c 0
 460 328 442 310 420 310 c 2
 380 310 l 2
 358 310 340 328 340 350 c 0
140 350 m 0
 140 372 158 390 180 390 c 2
 220 390 l 2
 242 390 260 372 260 350 c 0
 260 328 242 310 220 310 c 2
 180 310 l 2
 158 310 140 328 140 350 c 0
40 450 m 0
 40 472 58 490 80 490 c 2
 520 490 l 2
 542 490 560 472 560 450 c 0
 560 428 542 410 520 410 c 2
 80 410 l 2
 58 410 40 428 40 450 c 0
340 550 m 0
 340 572 358 590 380 590 c 2
 420 590 l 2
 442 590 460 572 460 550 c 0
 460 528 442 510 420 510 c 2
 380 510 l 2
 358 510 340 528 340 550 c 0
140 550 m 0
 140 572 158 590 180 590 c 2
 220 590 l 2
 242 590 260 572 260 550 c 0
 260 528 242 510 220 510 c 2
 180 510 l 2
 158 510 140 528 140 550 c 0
340 650 m 0
 340 672 358 690 380 690 c 2
 420 690 l 2
 442 690 460 672 460 650 c 0
 460 628 442 610 420 610 c 2
 380 610 l 2
 358 610 340 628 340 650 c 0
140 650 m 0
 140 672 158 690 180 690 c 2
 220 690 l 2
 242 690 260 672 260 650 c 0
 260 628 242 610 220 610 c 2
 180 610 l 2
 158 610 140 628 140 650 c 0
EndSplineSet
EndChar

StartChar: dollar
Encoding: 36 36 4
Width: 600
Flags: HMW
LayerCount: 2
Fore
SplineSet
240 50 m 0
 240 72 258 90 280 90 c 2
 320 90 l 2
 342 90 360 72 360 50 c 0
 360 28 342 10 320 10 c 2
 280 10 l 2
 258 10 240 28 240 50 c 0
40 150 m 0
 40 172 58 190 80 190 c 2
 420 190 l 2
 442 190 460 172 460 150 c 0
 460 128 442 110 420 110 c 2
 80 110 l 2
 58 110 40 128 40 150 c 0
440 250 m 0
 440 272 458 290 480 290 c 2
 520 290 l 2
 542 290 560 272 560 250 c 0
 560 228 542 210 520 210 c 2
 480 210 l 2
 458 210 440 228 440 250 c 0
240 250 m 0
 240 272 258 290 280 290 c 2
 320 290 l 2
 342 290 360 272 360 250 c 0
 360 228 342 210 320 210 c 2
 280 210 l 2
 258 210 240 228 240 250 c 0
140 350 m 0
 140 372 158 390 180 390 c 2
 420 390 l 2
 442 390 460 372 460 350 c 0
 460 328 442 310 420 310 c 2
 180 310 l 2
 158 310 140 328 140 350 c 0
240 450 m 0
 240 472 258 490 280 490 c 2
 320 490 l 2
 342 490 360 472 360 450 c 0
 360 428 342 410 320 410 c 2
 280 410 l 2
 258 410 240 428 240 450 c 0
40 450 m 0
 40 472 58 490 80 490 c 2
 120 490 l 2
 142 490 160 472 160 450 c 0
 160 428 142 410 120 410 c 2
 80 410 l 2
 58 410 40 428 40 450 c 0
140 550 m 0
 140 572 158 590 180 590 c 2
 520 590 l 2
 542 590 560 572 560 550 c 0
 560 528 542 510 520 510 c 2
 180 510 l 2
 158 510 140 528 140 550 c 0
240 650 m 0
 240 672 258 690 280 690 c 2
 320 690 l 2
 342 690 360 672 360 650 c 0
 360 628 342 610 320 610 c 2
 280 610 l 2
 258 610 240 628 240 650 c 0
EndSplineSet
EndChar

StartChar: percent
Encoding: 37 37 5
Width: 600
Flags: HMW
LayerCount: 2
Fore
SplineSet
340 50 m 0
 340 72 358 90 380 90 c 2
 520 90 l 2
 542 90 560 72 560 50 c 0
 560 28 542 10 520 10 c 2
 380 10 l 2
 358 10 340 28 340 50 c 0
340 150 m 0
 340 172 358 190 380 190 c 2
 520 190 l 2
 542 190 560 172 560 150 c 0
 560 128 542 110 520 110 c 2
 380 110 l 2
 358 110 340 128 340 150 c 0
40 150 m 0
 40 172 58 190 80 190 c 2
 120 190 l 2
 142 190 160 172 160 150 c 0
 160 128 142 110 120 110 c 2
 80 110 l 2
 58 110 40 128 40 150 c 0
140 250 m 0
 140 272 158 290 180 290 c 2
 220 290 l 2
 242 290 260 272 260 250 c 0
 260 228 242 210 220 210 c 2
 180 210 l 2
 158 210 140 228 140 250 c 0
240 350 m 0
 240 372 258 390 280 390 c 2
 320 390 l 2
 342 390 360 372 360 350 c 0
 360 328 342 310 320 310 c 2
 280 310 l 2
 258 310 240 328 240 350 c 0
340 450 m 0
 340 472 358 490 380 490 c 2
 420 490 l 2
 442 490 460 472 460 450 c 0
 460 428 442 410 420 410 c 2
 380 410 l 2
 358 410 340 428 340 450 c 0
440 550 m 0
 440 572 458 590 480 590 c 2
 520 590 l 2
 542 590 560 572 560 550 c 0
 560 528 542 510 520 510 c 2
 480 510 l 2
 458 510 440 528 440 550 c 0
40 550 m 0
 40 572 58 590 80 590 c 2
 220 590 l 2
 242 590 260 572 260 550 c 0
 260 528 242 510 220 510 c 2
 80 510 l 2
 58 510 40 528 40 550 c 0
40 650 m 0
 40 672 58 690 80 690 c 2
 220 690 l 2
 242 690 260 672 260 650 c 0
 260 628 242 610 220 610 c 2
 80 610 l 2
 58 610 40 628 40 650 c 0
EndSplineSet
EndChar

StartChar: ampersand
Encoding: 38 38 6
Width: 600
Flags: HMW
LayerCount: 2
Fore
SplineSet
440 50 m 0
 440 72 458 90 480 90 c 2
 520 90 l 2
 542 90 560 72 560 50 c 0
 560 28 542 10 520 10 c 2
 480 10 l 2
 458 10 440 28 440 50 c 0
140 50 m 0
 140 72 158 90 180 90 c 2
 320 90 l 2
 342 90 360 72 360 50 c 0
 360 28 342 10 320 10 c 2
 180 10 l 2
 158 10 140 28 140 50 c 0
340 150 m 0
 340 172 358 190 380 190 c 2
 420 190 l 2
 442 190 460 172 460 150 c 0
 460 128 442 110 420 110 c 2
 380 110 l 2
 358 110 340 128 340 150 c 0
40 150 m 0
 40 172 58 190 80 190 c 2
 120 190 l 2
 142 190 160 172 160 150 c 0
 160 128 142 110 120 110 c 2
 80 110 l 2
 58 110 40 128 40 150 c 0
440 250 m 0
 440 272 458 290 480 290 c 2
 520 290 l 2
 542 290 560 272 560 250 c 0
 560 228 542 210 520 210 c 2
 480 210 l 2
 458 210 440 228 440 250 c 0
240 250 m 0
 240 272 258 290 280 290 c 2
 320 290 l 2
 342 290 360 272 360 250 c 0
 360 228 342 210 320 210 c 2
 280 210 l 2
 258 210 240 228 240 250 c 0
40 250 m 0
 40 272 58 290 80 290 c 2
 120 290 l 2
 142 290 160 272 160 250 c 0
 160 228 142 210 120 210 c 2
 80 210 l 2
 58 210 40 228 40 250 c 0
140 350 m 0
 140 372 158 390 180 390 c 2
 220 390 l 2
 242 390 260 372 260 350 c 0
 260 328 242 310 220 310 c 2
 180 310 l 2
 158 310 140 328 140 350 c 0
240 450 m 0
 240 472 258 490 280 490 c 2
 320 490 l 2
 342 490 360 472 360 450 c 0
 360 428 342 410 320 410 c 2
 280 410 l 2
 258 410 240 428 240 450 c 0
40 450 m 0
 40 472 58 490 80 490 c 2
 120 490 l 2
 142 490 160 472 160 450 c 0
 160 428 142 410 120 410 c 2
 80 410 l 2
 58 410 40 428 40 450 c 0
240 550 m 0
 240 572 258 590 280 590 c 2
 320 590 l 2
 342 590 360 572 360 550 c 0
 360 528 342 510 320 510 c 2
 280 510 l 2
 258 510 240 528 240 550 c 0
40 550 m 0
 40 572 58 590 80 590 c 2
 120 590 l 2
 142 590 160 572 160 550 c 0
 160 528 142 510 120 510 c 2
 80 510 l 2
 58 510 40 528 40 550 c 0
140 650 m 0
 140 672 158 690 180 690 c 2
 220 690 l 2
 242 690 260 672 260 650 c 0
 260 628 242 610 220 610 c 2
 180 610 l 2
 158 610 140 628 140 650 c 0
EndSplineSet
EndChar

StartChar: quotesingle
Encoding: 39 39 7
Width: 200
Flags: HMW
LayerCount: 2
Fore
SplineSet
40 450 m 0
 40 472 58 490 80 490 c 2
 120 490 l 2
 142 490 160 472 160 450 c 0
 160 428 142 410 120 410 c 2
 80 410 l 2
 58 410 40 428 40 450 c 0
40 550 m 0
 40 572 58 590 80 590 c 2
 120 590 l 2
 142 590 160 572 160 550 c 0
 160 528 142 510 120 510 c 2
 80 510 l 2
 58 510 40 528 40 550 c 0
40 650 m 0
 40 672 58 690 80 690 c 2
 120 690 l 2
 142 690 160 672 160 650 c 0
 160 628 142 610 120 610 c 2
 80 610 l 2
 58 610 40 628 40 650 c 0
EndSplineSet
EndChar

StartChar: parenleft
Encoding: 40 40 8
Width: 400
Flags: HMW
LayerCount: 2
Fore
SplineSet
240 50 m 0
 240 72 258 90 280 90 c 2
 320 90 l 2
 342 90 360 72 360 50 c 0
 360 28 342 10 320 10 c 2
 280 10 l 2
 258 10 240 28 240 50 c 0
140 150 m 0
 140 172 158 190 180 190 c 2
 220 190 l 2
 242 190 260 172 260 150 c 0
 260 128 242 110 220 110 c 2
 180 110 l 2
 158 110 140 128 140 150 c 0
40 250 m 0
 40 272 58 290 80 290 c 2
 120 290 l 2
 142 290 160 272 160 250 c 0
 160 228 142 210 120 210 c 2
 80 210 l 2
 58 210 40 228 40 250 c 0
40 350 m 0
 40 372 58 390 80 390 c 2
 120 390 l 2
 142 390 160 372 160 350 c 0
 160 328 142 310 120 310 c 2
 80 310 l 2
 58 310 40 328 40 350 c 0
40 450 m 0
 40 472 58 490 80 490 c 2
 120 490 l 2
 142 490 160 472 160 450 c 0
 160 428 142 410 120 410 c 2
 80 410 l 2
 58 410 40 428 40 450 c 0
140 550 m 0
 140 572 158 590 180 590 c 2
 220 590 l 2
 242 590 260 572 260 550 c 0
 260 528 242 510 220 510 c 2
 180 510 l 2
 158 510 140 528 140 550 c 0
240 650 m 0
 240 672 258 690 280 690 c 2
 320 690 l 2
 342 690 360 672 360 650 c 0
 360 628 342 610 320 610 c 2
 280 610 l 2
 258 610 240 628 240 650 c 0
EndSplineSet
EndChar

StartChar: parenright
Encoding: 41 41 9
Width: 400
Flags: HMW
LayerCount: 2
Fore
SplineSet
40 50 m 0
 40 72 58 90 80 90 c 2
 120 90 l 2
 142 90 160 72 160 50 c 0
 160 28 142 10 120 10 c 2
 80 10 l 2
 58 10 40 28 40 50 c 0
140 150 m 0
 140 172 158 190 180 190 c 2
 220 190 l 2
 242 190 260 172 260 150 c 0
 260 128 242 110 220 110 c 2
 180 110 l 2
 158 110 140 128 140 150 c 0
240 250 m 0
 240 272 258 290 280 290 c 2
 320 290 l 2
 342 290 360 272 360 250 c 0
 360 228 342 210 320 210 c 2
 280 210 l 2
 258 210 240 228 240 250 c 0
240 350 m 0
 240 372 258 390 280 390 c 2
 320 390 l 2
 342 390 360 372 360 350 c 0
 360 328 342 310 320 310 c 2
 280 310 l 2
 258 310 240 328 240 350 c 0
240 450 m 0
 240 472 258 490 280 490 c 2
 320 490 l 2
 342 490 360 472 360 450 c 0
 360 428 342 410 320 410 c 2
 280 410 l 2
 258 410 240 428 240 450 c 0
140 550 m 0
 140 572 158 590 180 590 c 2
 220 590 l 2
 242 590 260 572 260 550 c 0
 260 528 242 510 220 510 c 2
 180 510 l 2
 158 510 140 528 140 550 c 0
40 650 m 0
 40 672 58 690 80 690 c 2
 120 690 l 2
 142 690 160 672 160 650 c 0
 160 628 142 610 120 610 c 2
 80 610 l 2
 58 610 40 628 40 650 c 0
EndSplineSet
EndChar

StartChar: asterisk
Encoding: 42 42 10
Width: 600
Flags: HMW
LayerCount: 2
Fore
SplineSet
240 150 m 0
 240 172 258 190 280 190 c 2
 320 190 l 2
 342 190 360 172 360 150 c 0
 360 128 342 110 320 110 c 2
 280 110 l 2
 258 110 240 128 240 150 c 0
440 250 m 0
 440 272 458 290 480 290 c 2
 520 290 l 2
 542 290 560 272 560 250 c 0
 560 228 542 210 520 210 c 2
 480 210 l 2
 458 210 440 228 440 250 c 0
240 250 m 0
 240 272 258 290 280 290 c 2
 320 290 l 2
 342 290 360 272 360 250 c 0
 360 228 342 210 320 210 c 2
 280 210 l 2
 258 210 240 228 240 250 c 0
40 250 m 0
 40 272 58 290 80 290 c 2
 120 290 l 2
 142 290 160 272 160 250 c 0
 160 228 142 210 120 210 c 2
 80 210 l 2
 58 210 40 228 40 250 c 0
140 350 m 0
 140 372 158 390 180 390 c 2
 420 390 l 2
 442 390 460 372 460 350 c 0
 460 328 442 310 420 310 c 2
 180 310 l 2
 158 310 140 328 140 350 c 0
440 450 m 0
 440 472 458 490 480 490 c 2
 520 490 l 2
 542 490 560 472 560 450 c 0
 560 428 542 410 520 410 c 2
 480 410 l 2
 458 410 440 428 440 450 c 0
240 450 m 0
 240 472 258 490 280 490 c 2
 320 490 l 2
 342 490 360 472 360 450 c 0
 360 428 342 410 320 410 c 2
 280 410 l 2
 258 410 240 428 240 450 c 0
40 450 m 0
 40 472 58 490 80 490 c 2
 120 490 l 2
 142 490 160 472 160 450 c 0
 160 428 142 410 120 410 c 2
 80 410 l 2
 58 410 40 428 40 450 c 0
240 550 m 0
 240 572 258 590 280 590 c 2
 320 590 l 2
 342 590 360 572 360 550 c 0
 360 528 342 510 320 510 c 2
 280 510 l 2
 258 510 240 528 240 550 c 0
EndSplineSet
EndChar

StartChar: plus
Encoding: 43 43 11
Width: 600
Flags: HMW
LayerCount: 2
Fore
SplineSet
240 150 m 0
 240 172 258 190 280 190 c 2
 320 190 l 2
 342 190 360 172 360 150 c 0
 360 128 342 110 320 110 c 2
 280 110 l 2
 258 110 240 128 240 150 c 0
240 250 m 0
 240 272 258 290 280 290 c 2
 320 290 l 2
 342 290 360 272 360 250 c 0
 360 228 342 210 320 210 c 2
 280 210 l 2
 258 210 240 228 240 250 c 0
40 350 m 0
 40 372 58 390 80 390 c 2
 520 390 l 2
 542 390 560 372 560 350 c 0
 560 328 542 310 520 310 c 2
 80 310 l 2
 58 310 40 328 40 350 c 0
240 450 m 0
 240 472 258 490 280 490 c 2
 320 490 l 2
 342 490 360 472 360 450 c 0
 360 428 342 410 320 410 c 2
 280 410 l 2
 258 410 240 428 240 450 c 0
240 550 m 0
 240 572 258 590 280 590 c 2
 320 590 l 2
 342 590 360 572 360 550 c 0
 360 528 342 510 320 510 c 2
 280 510 l 2
 258 510 240 528 240 550 c 0
EndSplineSet
EndChar

StartChar: comma
Encoding: 44 44 12
Width: 300
Flags: HMW
LayerCount: 2
Fore
SplineSet
40 -50 m 0
 40 -28 58 -10 80 -10 c 2
 120 -10 l 2
 142 -10 160 -28 160 -50 c 0
 160 -72 142 -90 120 -90 c 2
 80 -90 l 2
 58 -90 40 -72 40 -50 c 0
140 50 m 0
 140 72 158 90 180 90 c 2
 220 90 l 2
 242 90 260 72 260 50 c 0
 260 28 242 10 220 10 c 2
 180 10 l 2
 158 10 140 28 140 50 c 0
140 150 m 0
 140 172 158 190 180 190 c 2
 220 190 l 2
 242 190 260 172 260 150 c 0
 260 128 242 110 220 110 c 2
 180 110 l 2
 158 110 140 128 140 150 c 0
EndSplineSet
EndChar

StartChar: hyphen
Encoding: 45 45 13
Width: 500
Flags: HMW
LayerCount: 2
Fore
SplineSet
40 350 m 0
 40 372 58 390 80 390 c 2
 420 390 l 2
 442 390 460 372 460 350 c 0
 460 328 442 310 420 310 c 2
 80 310 l 2
 58 310 40 328 40 350 c 0
EndSplineSet
EndChar

StartChar: period
Encoding: 46 46 14
Width: 200
Flags: HMW
LayerCount: 2
Fore
SplineSet
40 50 m 0
 40 72 58 90 80 90 c 2
 120 90 l 2
 142 90 160 72 160 50 c 0
 160 28 142 10 120 10 c 2
 80 10 l 2
 58 10 40 28 40 50 c 0
EndSplineSet
EndChar

StartChar: slash
Encoding: 47 47 15
Width: 600
Flags: HMW
LayerCount: 2
Fore
SplineSet
40 150 m 0
 40 172 58 190 80 190 c 2
 120 190 l 2
 142 190 160 172 160 150 c 0
 160 128 142 110 120 110 c 2
 80 110 l 2
 58 110 40 128 40 150 c 0
140 250 m 0
 140 272 158 290 180 290 c 2
 220 290 l 2
 242 290 260 272 260 250 c 0
 260 228 242 210 220 210 c 2
 180 210 l 2
 158 210 140 228 140 250 c 0
240 350 m 0
 240 372 258 390 280 390 c 2
 320 390 l 2
 342 390 360 372 360 350 c 0
 360 328 342 310 320 310 c 2
 280 310 l 2
 258 310 240 328 240 350 c 0
340 450 m 0
 340 472 358 490 380 490 c 2
 420 490 l 2
 442 490 460 472 460 450 c 0
 460 428 442 410 420 410 c 2
 380 410 l 2
 358 410 340 428 340 450 c 0
440 550 m 0
 440 572 458 590 480 590 c 2
 520 590 l 2
 542 590 560 572 560 550 c 0
 560 528 542 510 520 510 c 2
 480 510 l 2
 458 510 440 528 440 550 c 0
EndSplineSet
EndChar

StartChar: zero
Encoding: 48 48 16
Width: 600
Flags: HMW
LayerCount: 2
Fore
SplineSet
140 50 m 0
 140 72 158 90 180 90 c 2
 420 90 l 2
 442 90 460 72 460 50 c 0
 460 28 442 10 420 10 c 2
 180 10 l 2
 158 10 140 28 140 50 c 0
440 150 m 0
 440 172 458 190 480 190 c 2
 520 190 l 2
 542 190 560 172 560 150 c 0
 560 128 542 110 520 110 c 2
 480 110 l 2
 458 110 440 128 440 150 c 0
40 150 m 0
 40 172 58 190 80 190 c 2
 120 190 l 2
 142 190 160 172 160 150 c 0
 160 128 142 110 120 110 c 2
 80 110 l 2
 58 110 40 128 40 150 c 0
440 250 m 0
 440 272 458 290 480 290 c 2
 520 290 l 2
 542 290 560 272 560 250 c 0
 560 228 542 210 520 210 c 2
 480 210 l 2
 458 210 440 228 440 250 c 0
40 250 m 0
 40 272 58 290 80 290 c 2
 220 290 l 2
 242 290 260 272 260 250 c 0
 260 228 242 210 220 210 c 2
 80 210 l 2
 58 210 40 228 40 250 c 0
440 350 m 0
 440 372 458 390 480 390 c 2
 520 390 l 2
 542 390 560 372 560 350 c 0
 560 328 542 310 520 310 c 2
 480 310 l 2
 458 310 440 328 440 350 c 0
240 350 m 0
 240 372 258 390 280 390 c 2
 320 390 l 2
 342 390 360 372 360 350 c 0
 360 328 342 310 320 310 c 2
 280 310 l 2
 258 310 240 328 240 350 c 0
40 350 m 0
 40 372 58 390 80 390 c 2
 120 390 l 2
 142 390 160 372 160 350 c 0
 160 328 142 310 120 310 c 2
 80 310 l 2
 58 310 40 328 40 350 c 0
340 450 m 0
 340 472 358 490 380 490 c 2
 520 490 l 2
 542 490 560 472 560 450 c 0
 560 428 542 410 520 410 c 2
 380 410 l 2
 358 410 340 428 340 450 c 0
40 450 m 0
 40 472 58 490 80 490 c 2
 120 490 l 2
 142 490 160 472 160 450 c 0
 160 428 142 410 120 410 c 2
 80 410 l 2
 58 410 40 428 40 450 c 0
440 550 m 0
 440 572 458 590 480 590 c 2
 520 590 l 2
 542 590 560 572 560 550 c 0
 560 528 542 510 520 510 c 2
 480 510 l 2
 458 510 440 528 440 550 c 0
40 550 m 0
 40 572 58 590 80 590 c 2
 120 590 l 2
 142 590 160 572 160 550 c 0
 160 528 142 510 120 510 c 2
 80 510 l 2
 58 510 40 528 40 550 c 0
140 650 m 0
 140 672 158 690 180 690 c 2
 420 690 l 2
 442 690 460 672 460 650 c 0
 460 628 442 610 420 610 c 2
 180 610 l 2
 158 610 140 628 140 650 c 0
EndSplineSet
EndChar

StartChar: one
Encoding: 49 49 17
Width: 400
Flags: HMW
LayerCount: 2
Fore
SplineSet
40 50 m 0
 40 72 58 90 80 90 c 2
 320 90 l 2
 342 90 360 72 360 50 c 0
 360 28 342 10 320 10 c 2
 80 10 l 2
 58 10 40 28 40 50 c 0
140 150 m 0
 140 172 158 190 180 190 c 2
 220 190 l 2
 242 190 260 172 260 150 c 0
 260 128 242 110 220 110 c 2
 180 110 l 2
 158 110 140 128 140 150 c 0
140 250 m 0
 140 272 158 290 180 290 c 2
 220 290 l 2
 242 290 260 272 260 250 c 0
 260 228 242 210 220 210 c 2
 180 210 l 2
 158 210 140 228 140 250 c 0
140 350 m 0
 140 372 158 390 180 390 c 2
 220 390 l 2
 242 390 260 372 260 350 c 0
 260 328 242 310 220 310 c 2
 180 310 l 2
 158 310 140 328 140 350 c 0
140 450 m 0
 140 472 158 490 180 490 c 2
 220 490 l 2
 242 490 260 472 260 450 c 0
 260 428 242 410 220 410 c 2
 180 410 l 2
 158 410 140 428 140 450 c 0
40 550 m 0
 40 572 58 590 80 590 c 2
 220 590 l 2
 242 590 260 572 260 550 c 0
 260 528 242 510 220 510 c 2
 80 510 l 2
 58 510 40 528 40 550 c 0
140 650 m 0
 140 672 158 690 180 690 c 2
 220 690 l 2
 242 690 260 672 260 650 c 0
 260 628 242 610 220 610 c 2
 180 610 l 2
 158 610 140 628 140 650 c 0
EndSplineSet
EndChar

StartChar: two
Encoding: 50 50 18
Width: 600
Flags: HMW
LayerCount: 2
Fore
SplineSet
40 50 m 0
 40 72 58 90 80 90 c 2
 520 90 l 2
 542 90 560 72 560 50 c 0
 560 28 542 10 520 10 c 2
 80 10 l 2
 58 10 40 28 40 50 c 0
40 150 m 0
 40 172 58 190 80 190 c 2
 120 190 l 2
 142 190 160 172 160 150 c 0
 160 128 142 110 120 110 c 2
 80 110 l 2
 58 110 40 128 40 150 c 0
140 250 m 0
 140 272 158 290 180 290 c 2
 220 290 l 2
 242 290 260 272 260 250 c 0
 260 228 242 210 220 210 c 2
 180 210 l 2
 158 210 140 228 140 250 c 0
240 350 m 0
 240 372 258 390 280 390 c 2
 420 390 l 2
 442 390 460 372 460 350 c 0
 460 328 442 310 420 310 c 2
 280 310 l 2
 258 310 240 328 240 350 c 0
440 450 m 0
 440 472 458 490 480 490 c 2
 520 490 l 2
 542 490 560 472 560 450 c 0
 560 428 542 410 520 410 c 2
 480 410 l 2
 458 410 440 428 440 450 c 0
440 550 m 0
 440 572 458 590 480 590 c 2
 520 590 l 2
 542 590 560 572 560 550 c 0
 560 528 542 510 520 510 c 2
 480 510 l 2
 458 510 440 528 440 550 c 0
40 550 m 0
 40 572 58 590 80 590 c 2
 120 590 l 2
 142 590 160 572 160 550 c 0
 160 528 142 510 120 510 c 2
 80 510 l 2
 58 510 40 528 40 550 c 0
140 650 m 0
 140 672 158 690 180 690 c 2
 420 690 l 2
 442 690 460 672 460 650 c 0
 460 628 442 610 420 610 c 2
 180 610 l 2
 158 610 140 628 140 650 c 0
EndSplineSet
EndChar

StartChar: three
Encoding: 51 51 19
Width: 600
Flags: HMW
LayerCount: 2
Fore
SplineSet
140 50 m 0
 140 72 158 90 180 90 c 2
 420 90 l 2
 442 90 460 72 460 50 c 0
 460 28 442 10 420 10 c 2
 180 10 l 2
 158 10 140 28 140 50 c 0
440 150 m 0
 440 172 458 190 480 190 c 2
 520 190 l 2
 542 190 560 172 560 150 c 0
 560 128 542 110 520 110 c 2
 480 110 l 2
 458 110 440 128 440 150 c 0
40 150 m 0
 40 172 58 190 80 190 c 2
 120 190 l 2
 142 190 160 172 160 150 c 0
 160 128 142 110 120 110 c 2
 80 110 l 2
 58 110 40 128 40 150 c 0
440 250 m 0
 440 272 458 290 480 290 c 2
 520 290 l 2
 542 290 560 272 560 250 c 0
 560 228 542 210 520 210 c 2
 480 210 l 2
 458 210 440 228 440 250 c 0
240 350 m 0
 240 372 258 390 280 390 c 2
 420 390 l 2
 442 390 460 372 460 350 c 0
 460 328 442 310 420 310 c 2
 280 310 l 2
 258 310 240 328 240 350 c 0
440 450 m 0
 440 472 458 490 480 490 c 2
 520 490 l 2
 542 490 560 472 560 450 c 0
 560 428 542 410 520 410 c 2
 480 410 l 2
 458 410 440 428 440 450 c 0
440 550 m 0
 440 572 458 590 480 590 c 2
 520 590 l 2
 542 590 560 572 560 550 c 0
 560 528 542 510 520 510 c 2
 480 510 l 2
 458 510 440 528 440 550 c 0
40 550 m 0
 40 572 58 590 80 590 c 2
 120 590 l 2
 142 590 160 572 160 550 c 0
 160 528 142 510 120 510 c 2
 80 510 l 2
 58 510 40 528 40 550 c 0
140 650 m 0
 140 672 158 690 180 690 c 2
 420 690 l 2
 442 690 460 672 460 650 c 0
 460 628 442 610 420 610 c 2
 180 610 l 2
 158 610 140 628 140 650 c 0
EndSplineSet
EndChar

StartChar: four
Encoding: 52 52 20
Width: 600
Flags: HMW
LayerCount: 2
Fore
SplineSet
340 50 m 0
 340 72 358 90 380 90 c 2
 420 90 l 2
 442 90 460 72 460 50 c 0
 460 28 442 10 420 10 c 2
 380 10 l 2
 358 10 340 28 340 50 c 0
340 150 m 0
 340 172 358 190 380 190 c 2
 420 190 l 2
 442 190 460 172 460 150 c 0
 460 128 442 110 420 110 c 2
 380 110 l 2
 358 110 340 128 340 150 c 0
40 250 m 0
 40 272 58 290 80 290 c 2
 520 290 l 2
 542 290 560 272 560 250 c 0
 560 228 542 210 520 210 c 2
 80 210 l 2
 58 210 40 228 40 250 c 0
340 350 m 0
 340 372 358 390 380 390 c 2
 420 390 l 2
 442 390 460 372 460 350 c 0
 460 328 442 310 420 310 c 2
 380 310 l 2
 358 310 340 328 340 350 c 0
40 350 m 0
 40 372 58 390 80 390 c 2
 120 390 l 2
 142 390 160 372 160 350 c 0
 160 328 142 310 120 310 c 2
 80 310 l 2
 58 310 40 328 40 350 c 0
340 450 m 0
 340 472 358 490 380 490 c 2
 420 490 l 2
 442 490 460 472 460 450 c 0
 460 428 442 410 420 410 c 2
 380 410 l 2
 358 410 340 428 340 450 c 0
140 450 m 0
 140 472 158 490 180 490 c 2
 220 490 l 2
 242 490 260 472 260 450 c 0
 260 428 242 410 220 410 c 2
 180 410 l 2
 158 410 140 428 140 450 c 0
240 550 m 0
 240 572 258 590 280 590 c 2
 420 590 l 2
 442 590 460 572 460 550 c 0
 460 528 442 510 420 510 c 2
 280 510 l 2
 258 510 240 528 240 550 c 0
340 650 m 0
 340 672 358 690 380 690 c 2
 420 690 l 2
 442 690 460 672 460 650 c 0
 460 628 442 610 420 610 c 2
 380 610 l 2
 358 610 340 628 340 650 c 0
EndSplineSet
EndChar

StartChar: five
Encoding: 53 53 21
Width: 600
Flags: HMW
LayerCount: 2
Fore
SplineSet
140 50 m 0
 140 72 158 90 180 90 c 2
 420 90 l 2
 442 90 460 72 460 50 c 0
 460 28 442 10 420 10 c 2
 180 10 l 2
 158 10 140 28 140 50 c 0
440 150 m 0
 440 172 458 190 480 190 c 2
 520 190 l 2
 542 190 560 172 560 150 c 0
 560 128 542 110 520 110 c 2
 480 110 l 2
 458 110 440 128 440 150 c 0
40 150 m 0
 40 172 58 190 80 190 c 2
 120 190 l 2
 142 190 160 172 160 150 c 0
 160 128 142 110 120 110 c 2
 80 110 l 2
 58 110 40 128 40 150 c 0
440 250 m 0
 440 272 458 290 480 290 c 2
 520 290 l 2
 542 290 560 272 560 250 c 0
 560 228 542 210 520 210 c 2
 480 210 l 2
 458 210 440 228 440 250 c 0
440 350 m 0
 440 372 458 390 480 390 c 2
 520 390 l 2
 542 390 560 372 560 350 c 0
 560 328 542 310 520 310 c 2
 480 310 l 2
 458 310 440 328 440 350 c 0
40 450 m 0
 40 472 58 490 80 490 c 2
 420 490 l 2
 442 490 460 472 460 450 c 0
 460 428 442 410 420 410 c 2
 80 410 l 2
 58 410 40 428 40 450 c 0
40 550 m 0
 40 572 58 590 80 590 c 2
 120 590 l 2
 142 590 160 572 160 550 c 0
 160 528 142 510 120 510 c 2
 80 510 l 2
 58 510 40 528 40 550 c 0
40 650 m 0
 40 672 58 690 80 690 c 2
 520 690 l 2
 542 690 560 672 560 650 c 0
 560 628 542 610 520 610 c 2
 80 610 l 2
 58 610 40 628 40 650 c 0
EndSplineSet
EndChar

StartChar: six
Encoding: 54 54 22
Width: 600
Flags: HMW
LayerCount: 2
Fore
SplineSet
140 50 m 0
 140 72 158 90 180 90 c 2
 420 90 l 2
 442 90 460 72 460 50 c 0
 460 28 442 10 420 10 c 2
 180 10 l 2
 158 10 140 28 140 50 c 0
440 150 m 0
 440 172 458 190 480 190 c 2
 520 190 l 2
 542 190 560 172 560 150 c 0
 560 128 542 110 520 110 c 2
 480 110 l 2
 458 110 440 128 440 150 c 0
40 150 m 0
 40 172 58 190 80 190 c 2
 120 190 l 2
 142 190 160 172 160 150 c 0
 160 128 142 110 120 110 c 2
 80 110 l 2
 58 110 40 128 40 150 c 0
440 250 m 0
 440 272 458 290 480 290 c 2
 520 290 l 2
 542 290 560 272 560 250 c 0
 560 228 542 210 520 210 c 2
 480 210 l 2
 458 210 440 228 440 250 c 0
40 250 m 0
 40 272 58 290 80 290 c 2
 120 290 l 2
 142 290 160 272 160 250 c 0
 160 228 142 210 120 210 c 2
 80 210 l 2
 58 210 40 228 40 250 c 0
40 350 m 0
 40 372 58 390 80 390 c 2
 420 390 l 2
 442 390 460 372 460 350 c 0
 460 328 442 310 420 310 c 2
 80 310 l 2
 58 310 40 328 40 350 c 0
40 450 m 0
 40 472 58 490 80 490 c 2
 120 490 l 2
 142 490 160 472 160 450 c 0
 160 428 142 410 120 410 c 2
 80 410 l 2
 58 410 40 428 40 450 c 0
140 550 m 0
 140 572 158 590 180 590 c 2
 220 590 l 2
 242 590 260 572 260 550 c 0
 260 528 242 510 220 510 c 2
 180 510 l 2
 158 510 140 528 140 550 c 0
240 650 m 0
 240 672 258 690 280 690 c 2
 420 690 l 2
 442 690 460 672 460 650 c 0
 460 628 442 610 420 610 c 2
 280 610 l 2
 258 610 240 628 240 650 c 0
EndSplineSet
EndChar

StartChar: seven
Encoding: 55 55 23
Width: 600
Flags: HMW
LayerCount: 2
Fore
SplineSet
140 50 m 0
 140 72 158 90 180 90 c 2
 220 90 l 2
 242 90 260 72 260 50 c 0
 260 28 242 10 220 10 c 2
 180 10 l 2
 158 10 140 28 140 50 c 0
140 150 m 0
 140 172 158 190 180 190 c 2
 220 190 l 2
 242 190 260 172 260 150 c 0
 260 128 242 110 220 110 c 2
 180 110 l 2
 158 110 140 128 140 150 c 0
140 250 m 0
 140 272 158 290 180 290 c 2
 220 290 l 2
 242 290 260 272 260 250 c 0
 260 228 242 210 220 210 c 2
 180 210 l 2
 158 210 140 228 140 250 c 0
240 350 m 0
 240 372 258 390 280 390 c 2
 320 390 l 2
 342 390 360 372 360 350 c 0
 360 328 342 310 320 310 c 2
 280 310 l 2
 258 310 240 328 240 350 c 0
340 450 m 0
 340 472 358 490 380 490 c 2
 420 490 l 2
 442 490 460 472 460 450 c 0
 460 428 442 410 420 410 c 2
 380 410 l 2
 358 410 340 428 340 450 c 0
440 550 m 0
 440 572 458 590 480 590 c 2
 520 590 l 2
 542 590 560 572 560 550 c 0
 560 528 542 510 520 510 c 2
 480 510 l 2
 458 510 440 528 440 550 c 0
40 650 m 0
 40 672 58 690 80 690 c 2
 520 690 l 2
 542 690 560 672 560 650 c 0
 560 628 542 610 520 610 c 2
 80 610 l 2
 58 610 40 628 40 650 c 0
EndSplineSet
EndChar

StartChar: eight
Encoding: 56 56 24
Width: 600
Flags: HMW
LayerCount: 2
Fore
SplineSet
140 50 m 0
 140 72 158 90 180 90 c 2
 420 90 l 2
 442 90 460 72 460 50 c 0
 460 28 442 10 420 10 c 2
 180 10 l 2
 158 10 140 28 140 50 c 0
440 150 m 0
 440 172 458 190 480 190 c 2
 520 190 l 2
 542 190 560 172 560 150 c 0
 560 128 542 110 520 110 c 2
 480 110 l 2
 458 110 440 128 440 150 c 0
40 150 m 0
 40 172 58 190 80 190 c 2
 120 190 l 2
 142 190 160 172 160 150 c 0
 160 128 142 110 120 110 c 2
 80 110 l 2
 58 110 40 128 40 150 c 0
440 250 m 0
 440 272 458 290 480 290 c 2
 520 290 l 2
 542 290 560 272 560 250 c 0
 560 228 542 210 520 210 c 2
 480 210 l 2
 458 210 440 228 440 250 c 0
40 250 m 0
 40 272 58 290 80 290 c 2
 120 290 l 2
 142 290 160 272 160 250 c 0
 160 228 142 210 120 210 c 2
 80 210 l 2
 58 210 40 228 40 250 c 0
140 350 m 0
 140 372 158 390 180 390 c 2
 420 390 l 2
 442 390 460 372 460 350 c 0
 460 328 442 310 420 310 c 2
 180 310 l 2
 158 310 140 328 140 350 c 0
440 450 m 0
 440 472 458 490 480 490 c 2
 520 490 l 2
 542 490 560 472 560 450 c 0
 560 428 542 410 520 410 c 2
 480 410 l 2
 458 410 440 428 440 450 c 0
40 450 m 0
 40 472 58 490 80 490 c 2
 120 490 l 2
 142 490 160 472 160 450 c 0
 160 428 142 410 120 410 c 2
 80 410 l 2
 58 410 40 428 40 450 c 0
440 550 m 0
 440 572 458 590 480 590 c 2
 520 590 l 2
 542 590 560 572 560 550 c 0
 560 528 542 510 520 510 c 2
 480 510 l 2
 458 510 440 528 440 550 c 0
40 550 m 0
 40 572 58 590 80 590 c 2
 120 590 l 2
 142 590 160 572 160 550 c 0
 160 528 142 510 120 510 c 2
 80 510 l 2
 58 510 40 528 40 550 c 0
140 650 m 0
 140 672 158 690 180 690 c 2
 420 690 l 2
 442 690 460 672 460 650 c 0
 460 628 442 610 420 610 c 2
 180 610 l 2
 158 610 140 628 140 650 c 0
EndSplineSet
EndChar

StartChar: nine
Encoding: 57 57 25
Width: 600
Flags: HMW
LayerCount: 2
Fore
SplineSet
140 50 m 0
 140 72 158 90 180 90 c 2
 320 90 l 2
 342 90 360 72 360 50 c 0
 360 28 342 10 320 10 c 2
 180 10 l 2
 158 10 140 28 140 50 c 0
340 150 m 0
 340 172 358 190 380 190 c 2
 420 190 l 2
 442 190 460 172 460 150 c 0
 460 128 442 110 420 110 c 2
 380 110 l 2
 358 110 340 128 340 150 c 0
440 250 m 0
 440 272 458 290 480 290 c 2
 520 290 l 2
 542 290 560 272 560 250 c 0
 560 228 542 210 520 210 c 2
 480 210 l 2
 458 210 440 228 440 250 c 0
140 350 m 0
 140 372 158 390 180 390 c 2
 520 390 l 2
 542 390 560 372 560 350 c 0
 560 328 542 310 520 310 c 2
 180 310 l 2
 158 310 140 328 140 350 c 0
440 450 m 0
 440 472 458 490 480 490 c 2
 520 490 l 2
 542 490 560 472 560 450 c 0
 560 428 542 410 520 410 c 2
 480 410 l 2
 458 410 440 428 440 450 c 0
40 450 m 0
 40 472 58 490 80 490 c 2
 120 490 l 2
 142 490 160 472 160 450 c 0
 160 428 142 410 120 410 c 2
 80 410 l 2
 58 410 40 428 40 450 c 0
440 550 m 0
 440 572 458 590 480 590 c 2
 520 590 l 2
 542 590 560 572 560 550 c 0
 560 528 542 510 520 510 c 2
 480 510 l 2
 458 510 440 528 440 550 c 0
40 550 m 0
 40 572 58 590 80 590 c 2
 120 590 l 2
 142 590 160 572 160 550 c 0
 160 528 142 510 120 510 c 2
 80 510 l 2
 58 510 40 528 40 550 c 0
140 650 m 0
 140 672 158 690 180 690 c 2
 420 690 l 2
 442 690 460 672 460 650 c 0
 460 628 442 610 420 610 c 2
 180 610 l 2
 158 610 140 628 140 650 c 0
EndSplineSet
EndChar

StartChar: colon
Encoding: 58 58 26
Width: 200
Flags: HMW
LayerCount: 2
Fore
SplineSet
40 50 m 0
 40 72 58 90 80 90 c 2
 120 90 l 2
 142 90 160 72 160 50 c 0
 160 28 142 10 120 10 c 2
 80 10 l 2
 58 10 40 28 40 50 c 0
40 450 m 0
 40 472 58 490 80 490 c 2
 120 490 l 2
 142 490 160 472 160 450 c 0
 160 428 142 410 120 410 c 2
 80 410 l 2
 58 410 40 428 40 450 c 0
EndSplineSet
EndChar

StartChar: semicolon
Encoding: 59 59 27
Width: 300
Flags: HMW
LayerCount: 2
Fore
SplineSet
40 -50 m 0
 40 -28 58 -10 80 -10 c 2
 120 -10 l 2
 142 -10 160 -28 160 -50 c 0
 160 -72 142 -90 120 -90 c 2
 80 -90 l 2
 58 -90 40 -72 40 -50 c 0
140 50 m 0
 140 72 158 90 180 90 c 2
 220 90 l 2
 242 90 260 72 260 50 c 0
 260 28 242 10 220 10 c 2
 180 10 l 2
 158 10 140 28 140 50 c 0
140 150 m 0
 140 172 158 190 180 190 c 2
 220 190 l 2
 242 190 260 172 260 150 c 0
 260 128 242 110 220 110 c 2
 180 110 l 2
 158 110 140 128 140 150 c 0
140 450 m 0
 140 472 158 490 180 490 c 2
 220 490 l 2
 242 490 260 472 260 450 c 0
 260 428 242 410 220 410 c 2
 180 410 l 2
 158 410 140 428 140 450 c 0
EndSplineSet
EndChar

StartChar: less
Encoding: 60 60 28
Width: 400
Flags: HMW
LayerCount: 2
Fore
SplineSet
240 150 m 0
 240 172 258 190 280 190 c 2
 320 190 l 2
 342 190 360 172 360 150 c 0
 360 128 342 110 320 110 c 2
 280 110 l 2
 258 110 240 128 240 150 c 0
140 250 m 0
 140 272 158 290 180 290 c 2
 220 290 l 2
 242 290 260 272 260 250 c 0
 260 228 242 210 220 210 c 2
 180 210 l 2
 158 210 140 228 140 250 c 0
40 350 m 0
 40 372 58 390 80 390 c 2
 120 390 l 2
 142 390 160 372 160 350 c 0
 160 328 142 310 120 310 c 2
 80 310 l 2
 58 310 40 328 40 350 c 0
140 450 m 0
 140 472 158 490 180 490 c 2
 220 490 l 2
 242 490 260 472 260 450 c 0
 260 428 242 410 220 410 c 2
 180 410 l 2
 158 410 140 428 140 450 c 0
240 550 m 0
 240 572 258 590 280 590 c 2
 320 590 l 2
 342 590 360 572 360 550 c 0
 360 528 342 510 320 510 c 2
 280 510 l 2
 258 510 240 528 240 550 c 0
EndSplineSet
EndChar

StartChar: equal
Encoding: 61 61 29
Width: 600
Flags: HMW
LayerCount: 2
Fore
SplineSet
40 250 m 0
 40 272 58 290 80 290 c 2
 520 290 l 2
 542 290 560 272 560 250 c 0
 560 228 542 210 520 210 c 2
 80 210 l 2
 58 210 40 228 40 250 c 0
40 450 m 0
 40 472 58 490 80 490 c 2
 520 490 l 2
 542 490 560 472 560 450 c 0
 560 428 542 410 520 410 c 2
 80 410 l 2
 58 410 40 428 40 450 c 0
EndSplineSet
EndChar

StartChar: greater
Encoding: 62 62 30
Width: 400
Flags: HMW
LayerCount: 2
Fore
SplineSet
40 150 m 0
 40 172 58 190 80 190 c 2
 120 190 l 2
 142 190 160 172 160 150 c 0
 160 128 142 110 120 110 c 2
 80 110 l 2
 58 110 40 128 40 150 c 0
140 250 m 0
 140 272 158 290 180 290 c 2
 220 290 l 2
 242 290 260 272 260 250 c 0
 260 228 242 210 220 210 c 2
 180 210 l 2
 158 210 140 228 140 250 c 0
240 350 m 0
 240 372 258 390 280 390 c 2
 320 390 l 2
 342 390 360 372 360 350 c 0
 360 328 342 310 320 310 c 2
 280 310 l 2
 258 310 240 328 240 350 c 0
140 450 m 0
 140 472 158 490 180 490 c 2
 220 490 l 2
 242 490 260 472 260 450 c 0
 260 428 242 410 220 410 c 2
 180 410 l 2
 158 410 140 428 140 450 c 0
40 550 m 0
 40 572 58 590 80 590 c 2
 120 590 l 2
 142 590 160 572 160 550 c 0
 160 528 142 510 120 510 c 2
 80 510 l 2
 58 510 40 528 40 550 c 0
EndSplineSet
EndChar

StartChar: question
Encoding: 63 63 31
Width: 600
Flags: HMW
LayerCount: 2
Fore
SplineSet
240 50 m 0
 240 72 258 90 280 90 c 2
 320 90 l 2
 342 90 360 72 360 50 c 0
 360 28 342 10 320 10 c 2
 280 10 l 2
 258 10 240 28 240 50 c 0
240 250 m 0
 240 272 258 290 280 290 c 2
 320 290 l 2
 342 290 360 272 360 250 c 0
 360 228 342 210 320 210 c 2
 280 210 l 2
 258 210 240 228 240 250 c 0
240 350 m 0
 240 372 258 390 280 390 c 2
 420 390 l 2
 442 390 460 372 460 350 c 0
 460 328 442 310 420 310 c 2
 280 310 l 2
 258 310 240 328 240 350 c 0
440 450 m 0
 440 472 458 490 480 490 c 2
 520 490 l 2
 542 490 560 472 560 450 c 0
 560 428 542 410 520 410 c 2
 480 410 l 2
 458 410 440 428 440 450 c 0
440 550 m 0
 440 572 458 590 480 590 c 2
 520 590 l 2
 542 590 560 572 560 550 c 0
 560 528 542 510 520 510 c 2
 480 510 l 2
 458 510 440 528 440 550 c 0
40 550 m 0
 40 572 58 590 80 590 c 2
 120 590 l 2
 142 590 160 572 160 550 c 0
 160 528 142 510 120 510 c 2
 80 510 l 2
 58 510 40 528 40 550 c 0
140 650 m 0
 140 672 158 690 180 690 c 2
 420 690 l 2
 442 690 460 672 460 650 c 0
 460 628 442 610 420 610 c 2
 180 610 l 2
 158 610 140 628 140 650 c 0
EndSplineSet
EndChar

StartChar: at
Encoding: 64 64 32
Width: 600
Flags: HMW
LayerCount: 2
Fore
SplineSet
140 50 m 0
 140 72 158 90 180 90 c 2
 420 90 l 2
 442 90 460 72 460 50 c 0
 460 28 442 10 420 10 c 2
 180 10 l 2
 158 10 140 28 140 50 c 0
40 150 m 0
 40 172 58 190 80 190 c 2
 120 190 l 2
 142 190 160 172 160 150 c 0
 160 128 142 110 120 110 c 2
 80 110 l 2
 58 110 40 128 40 150 c 0
240 250 m 0
 240 272 258 290 280 290 c 2
 520 290 l 2
 542 290 560 272 560 250 c 0
 560 228 542 210 520 210 c 2
 280 210 l 2
 258 210 240 228 240 250 c 0
40 250 m 0
 40 272 58 290 80 290 c 2
 120 290 l 2
 142 290 160 272 160 250 c 0
 160 228 142 210 120 210 c 2
 80 210 l 2
 58 210 40 228 40 250 c 0
440 350 m 0
 440 372 458 390 480 390 c 2
 520 390 l 2
 542 390 560 372 560 350 c 0
 560 328 542 310 520 310 c 2
 480 310 l 2
 458 310 440 328 440 350 c 0
240 350 m 0
 240 372 258 390 280 390 c 2
 320 390 l 2
 342 390 360 372 360 350 c 0
 360 328 342 310 320 310 c 2
 280 310 l 2
 258 310 240 328 240 350 c 0
40 350 m 0
 40 372 58 390 80 390 c 2
 120 390 l 2
 142 390 160 372 160 350 c 0
 160 328 142 310 120 310 c 2
 80 310 l 2
 58 310 40 328 40 350 c 0
240 450 m 0
 240 472 258 490 280 490 c 2
 520 490 l 2
 542 490 560 472 560 450 c 0
 560 428 542 410 520 410 c 2
 280 410 l 2
 258 410 240 428 240 450 c 0
40 450 m 0
 40 472 58 490 80 490 c 2
 120 490 l 2
 142 490 160 472 160 450 c 0
 160 428 142 410 120 410 c 2
 80 410 l 2
 58 410 40 428 40 450 c 0
440 550 m 0
 440 572 458 590 480 590 c 2
 520 590 l 2
 542 590 560 572 560 550 c 0
 560 528 542 510 520 510 c 2
 480 510 l 2
 458 510 440 528 440 550 c 0
40 550 m 0
 40 572 58 590 80 590 c 2
 120 590 l 2
 142 590 160 572 160 550 c 0
 160 528 142 510 120 510 c 2
 80 510 l 2
 58 510 40 528 40 550 c 0
140 650 m 0
 140 672 158 690 180 690 c 2
 420 690 l 2
 442 690 460 672 460 650 c 0
 460 628 442 610 420 610 c 2
 180 610 l 2
 158 610 140 628 140 650 c 0
EndSplineSet
EndChar

StartChar: A
Encoding: 65 65 33
Width: 600
Flags: HMW
AnchorPoint: "ogonek" 400 0 basechar 0
AnchorPoint: "marks_below" 300 0 basechar 0
AnchorPoint: "marks_above" 300 800 basechar 0
LayerCount: 2
Fore
SplineSet
440 50 m 0
 440 72 458 90 480 90 c 2
 520 90 l 2
 542 90 560 72 560 50 c 0
 560 28 542 10 520 10 c 2
 480 10 l 2
 458 10 440 28 440 50 c 0
40 50 m 0
 40 72 58 90 80 90 c 2
 120 90 l 2
 142 90 160 72 160 50 c 0
 160 28 142 10 120 10 c 2
 80 10 l 2
 58 10 40 28 40 50 c 0
440 150 m 0
 440 172 458 190 480 190 c 2
 520 190 l 2
 542 190 560 172 560 150 c 0
 560 128 542 110 520 110 c 2
 480 110 l 2
 458 110 440 128 440 150 c 0
40 150 m 0
 40 172 58 190 80 190 c 2
 120 190 l 2
 142 190 160 172 160 150 c 0
 160 128 142 110 120 110 c 2
 80 110 l 2
 58 110 40 128 40 150 c 0
40 250 m 0
 40 272 58 290 80 290 c 2
 520 290 l 2
 542 290 560 272 560 250 c 0
 560 228 542 210 520 210 c 2
 80 210 l 2
 58 210 40 228 40 250 c 0
440 350 m 0
 440 372 458 390 480 390 c 2
 520 390 l 2
 542 390 560 372 560 350 c 0
 560 328 542 310 520 310 c 2
 480 310 l 2
 458 310 440 328 440 350 c 0
40 350 m 0
 40 372 58 390 80 390 c 2
 120 390 l 2
 142 390 160 372 160 350 c 0
 160 328 142 310 120 310 c 2
 80 310 l 2
 58 310 40 328 40 350 c 0
440 450 m 0
 440 472 458 490 480 490 c 2
 520 490 l 2
 542 490 560 472 560 450 c 0
 560 428 542 410 520 410 c 2
 480 410 l 2
 458 410 440 428 440 450 c 0
40 450 m 0
 40 472 58 490 80 490 c 2
 120 490 l 2
 142 490 160 472 160 450 c 0
 160 428 142 410 120 410 c 2
 80 410 l 2
 58 410 40 428 40 450 c 0
340 550 m 0
 340 572 358 590 380 590 c 2
 420 590 l 2
 442 590 460 572 460 550 c 0
 460 528 442 510 420 510 c 2
 380 510 l 2
 358 510 340 528 340 550 c 0
140 550 m 0
 140 572 158 590 180 590 c 2
 220 590 l 2
 242 590 260 572 260 550 c 0
 260 528 242 510 220 510 c 2
 180 510 l 2
 158 510 140 528 140 550 c 0
240 650 m 0
 240 672 258 690 280 690 c 2
 320 690 l 2
 342 690 360 672 360 650 c 0
 360 628 342 610 320 610 c 2
 280 610 l 2
 258 610 240 628 240 650 c 0
EndSplineSet
EndChar

StartChar: B
Encoding: 66 66 34
Width: 600
Flags: HMW
AnchorPoint: "marks_below" 300 0 basechar 0
AnchorPoint: "marks_above" 300 800 basechar 0
LayerCount: 2
Fore
SplineSet
40 50 m 0
 40 72 58 90 80 90 c 2
 420 90 l 2
 442 90 460 72 460 50 c 0
 460 28 442 10 420 10 c 2
 80 10 l 2
 58 10 40 28 40 50 c 0
440 150 m 0
 440 172 458 190 480 190 c 2
 520 190 l 2
 542 190 560 172 560 150 c 0
 560 128 542 110 520 110 c 2
 480 110 l 2
 458 110 440 128 440 150 c 0
40 150 m 0
 40 172 58 190 80 190 c 2
 120 190 l 2
 142 190 160 172 160 150 c 0
 160 128 142 110 120 110 c 2
 80 110 l 2
 58 110 40 128 40 150 c 0
440 250 m 0
 440 272 458 290 480 290 c 2
 520 290 l 2
 542 290 560 272 560 250 c 0
 560 228 542 210 520 210 c 2
 480 210 l 2
 458 210 440 228 440 250 c 0
40 250 m 0
 40 272 58 290 80 290 c 2
 120 290 l 2
 142 290 160 272 160 250 c 0
 160 228 142 210 120 210 c 2
 80 210 l 2
 58 210 40 228 40 250 c 0
40 350 m 0
 40 372 58 390 80 390 c 2
 420 390 l 2
 442 390 460 372 460 350 c 0
 460 328 442 310 420 310 c 2
 80 310 l 2
 58 310 40 328 40 350 c 0
440 450 m 0
 440 472 458 490 480 490 c 2
 520 490 l 2
 542 490 560 472 560 450 c 0
 560 428 542 410 520 410 c 2
 480 410 l 2
 458 410 440 428 440 450 c 0
40 450 m 0
 40 472 58 490 80 490 c 2
 120 490 l 2
 142 490 160 472 160 450 c 0
 160 428 142 410 120 410 c 2
 80 410 l 2
 58 410 40 428 40 450 c 0
440 550 m 0
 440 572 458 590 480 590 c 2
 520 590 l 2
 542 590 560 572 560 550 c 0
 560 528 542 510 520 510 c 2
 480 510 l 2
 458 510 440 528 440 550 c 0
40 550 m 0
 40 572 58 590 80 590 c 2
 120 590 l 2
 142 590 160 572 160 550 c 0
 160 528 142 510 120 510 c 2
 80 510 l 2
 58 510 40 528 40 550 c 0
40 650 m 0
 40 672 58 690 80 690 c 2
 420 690 l 2
 442 690 460 672 460 650 c 0
 460 628 442 610 420 610 c 2
 80 610 l 2
 58 610 40 628 40 650 c 0
EndSplineSet
EndChar

StartChar: C
Encoding: 67 67 35
Width: 600
Flags: HMW
AnchorPoint: "marks_below" 300 0 basechar 0
AnchorPoint: "marks_above" 300 800 basechar 0
LayerCount: 2
Fore
SplineSet
140 50 m 0
 140 72 158 90 180 90 c 2
 420 90 l 2
 442 90 460 72 460 50 c 0
 460 28 442 10 420 10 c 2
 180 10 l 2
 158 10 140 28 140 50 c 0
440 150 m 0
 440 172 458 190 480 190 c 2
 520 190 l 2
 542 190 560 172 560 150 c 0
 560 128 542 110 520 110 c 2
 480 110 l 2
 458 110 440 128 440 150 c 0
40 150 m 0
 40 172 58 190 80 190 c 2
 120 190 l 2
 142 190 160 172 160 150 c 0
 160 128 142 110 120 110 c 2
 80 110 l 2
 58 110 40 128 40 150 c 0
40 250 m 0
 40 272 58 290 80 290 c 2
 120 290 l 2
 142 290 160 272 160 250 c 0
 160 228 142 210 120 210 c 2
 80 210 l 2
 58 210 40 228 40 250 c 0
40 350 m 0
 40 372 58 390 80 390 c 2
 120 390 l 2
 142 390 160 372 160 350 c 0
 160 328 142 310 120 310 c 2
 80 310 l 2
 58 310 40 328 40 350 c 0
40 450 m 0
 40 472 58 490 80 490 c 2
 120 490 l 2
 142 490 160 472 160 450 c 0
 160 428 142 410 120 410 c 2
 80 410 l 2
 58 410 40 428 40 450 c 0
440 550 m 0
 440 572 458 590 480 590 c 2
 520 590 l 2
 542 590 560 572 560 550 c 0
 560 528 542 510 520 510 c 2
 480 510 l 2
 458 510 440 528 440 550 c 0
40 550 m 0
 40 572 58 590 80 590 c 2
 120 590 l 2
 142 590 160 572 160 550 c 0
 160 528 142 510 120 510 c 2
 80 510 l 2
 58 510 40 528 40 550 c 0
140 650 m 0
 140 672 158 690 180 690 c 2
 420 690 l 2
 442 690 460 672 460 650 c 0
 460 628 442 610 420 610 c 2
 180 610 l 2
 158 610 140 628 140 650 c 0
EndSplineSet
EndChar

StartChar: D
Encoding: 68 68 36
Width: 600
Flags: HMW
AnchorPoint: "marks_below" 300 0 basechar 0
AnchorPoint: "marks_above" 300 800 basechar 0
LayerCount: 2
Fore
SplineSet
40 50 m 0
 40 72 58 90 80 90 c 2
 320 90 l 2
 342 90 360 72 360 50 c 0
 360 28 342 10 320 10 c 2
 80 10 l 2
 58 10 40 28 40 50 c 0
340 150 m 0
 340 172 358 190 380 190 c 2
 420 190 l 2
 442 190 460 172 460 150 c 0
 460 128 442 110 420 110 c 2
 380 110 l 2
 358 110 340 128 340 150 c 0
40 150 m 0
 40 172 58 190 80 190 c 2
 120 190 l 2
 142 190 160 172 160 150 c 0
 160 128 142 110 120 110 c 2
 80 110 l 2
 58 110 40 128 40 150 c 0
440 250 m 0
 440 272 458 290 480 290 c 2
 520 290 l 2
 542 290 560 272 560 250 c 0
 560 228 542 210 520 210 c 2
 480 210 l 2
 458 210 440 228 440 250 c 0
40 250 m 0
 40 272 58 290 80 290 c 2
 120 290 l 2
 142 290 160 272 160 250 c 0
 160 228 142 210 120 210 c 2
 80 210 l 2
 58 210 40 228 40 250 c 0
440 350 m 0
 440 372 458 390 480 390 c 2
 520 390 l 2
 542 390 560 372 560 350 c 0
 560 328 542 310 520 310 c 2
 480 310 l 2
 458 310 440 328 440 350 c 0
40 350 m 0
 40 372 58 390 80 390 c 2
 120 390 l 2
 142 390 160 372 160 350 c 0
 160 328 142 310 120 310 c 2
 80 310 l 2
 58 310 40 328 40 350 c 0
440 450 m 0
 440 472 458 490 480 490 c 2
 520 490 l 2
 542 490 560 472 560 450 c 0
 560 428 542 410 520 410 c 2
 480 410 l 2
 458 410 440 428 440 450 c 0
40 450 m 0
 40 472 58 490 80 490 c 2
 120 490 l 2
 142 490 160 472 160 450 c 0
 160 428 142 410 120 410 c 2
 80 410 l 2
 58 410 40 428 40 450 c 0
340 550 m 0
 340 572 358 590 380 590 c 2
 420 590 l 2
 442 590 460 572 460 550 c 0
 460 528 442 510 420 510 c 2
 380 510 l 2
 358 510 340 528 340 550 c 0
40 550 m 0
 40 572 58 590 80 590 c 2
 120 590 l 2
 142 590 160 572 160 550 c 0
 160 528 142 510 120 510 c 2
 80 510 l 2
 58 510 40 528 40 550 c 0
40 650 m 0
 40 672 58 690 80 690 c 2
 320 690 l 2
 342 690 360 672 360 650 c 0
 360 628 342 610 320 610 c 2
 80 610 l 2
 58 610 40 628 40 650 c 0
EndSplineSet
EndChar

StartChar: E
Encoding: 69 69 37
Width: 600
Flags: HMW
AnchorPoint: "ogonek" 400 0 basechar 0
AnchorPoint: "marks_below" 300 0 basechar 0
AnchorPoint: "marks_above" 300 800 basechar 0
LayerCount: 2
Fore
SplineSet
40 50 m 0
 40 72 58 90 80 90 c 2
 520 90 l 2
 542 90 560 72 560 50 c 0
 560 28 542 10 520 10 c 2
 80 10 l 2
 58 10 40 28 40 50 c 0
40 150 m 0
 40 172 58 190 80 190 c 2
 120 190 l 2
 142 190 160 172 160 150 c 0
 160 128 142 110 120 110 c 2
 80 110 l 2
 58 110 40 128 40 150 c 0
40 250 m 0
 40 272 58 290 80 290 c 2
 120 290 l 2
 142 290 160 272 160 250 c 0
 160 228 142 210 120 210 c 2
 80 210 l 2
 58 210 40 228 40 250 c 0
40 350 m 0
 40 372 58 390 80 390 c 2
 420 390 l 2
 442 390 460 372 460 350 c 0
 460 328 442 310 420 310 c 2
 80 310 l 2
 58 310 40 328 40 350 c 0
40 450 m 0
 40 472 58 490 80 490 c 2
 120 490 l 2
 142 490 160 472 160 450 c 0
 160 428 142 410 120 410 c 2
 80 410 l 2
 58 410 40 428 40 450 c 0
40 550 m 0
 40 572 58 590 80 590 c 2
 120 590 l 2
 142 590 160 572 160 550 c 0
 160 528 142 510 120 510 c 2
 80 510 l 2
 58 510 40 528 40 550 c 0
40 650 m 0
 40 672 58 690 80 690 c 2
 520 690 l 2
 542 690 560 672 560 650 c 0
 560 628 542 610 520 610 c 2
 80 610 l 2
 58 610 40 628 40 650 c 0
EndSplineSet
EndChar

StartChar: F
Encoding: 70 70 38
Width: 600
Flags: HMW
AnchorPoint: "marks_below" 300 0 basechar 0
AnchorPoint: "marks_above" 300 800 basechar 0
LayerCount: 2
Fore
SplineSet
40 50 m 0
 40 72 58 90 80 90 c 2
 120 90 l 2
 142 90 160 72 160 50 c 0
 160 28 142 10 120 10 c 2
 80 10 l 2
 58 10 40 28 40 50 c 0
40 150 m 0
 40 172 58 190 80 190 c 2
 120 190 l 2
 142 190 160 172 160 150 c 0
 160 128 142 110 120 110 c 2
 80 110 l 2
 58 110 40 128 40 150 c 0
40 250 m 0
 40 272 58 290 80 290 c 2
 120 290 l 2
 142 290 160 272 160 250 c 0
 160 228 142 210 120 210 c 2
 80 210 l 2
 58 210 40 228 40 250 c 0
40 350 m 0
 40 372 58 390 80 390 c 2
 420 390 l 2
 442 390 460 372 460 350 c 0
 460 328 442 310 420 310 c 2
 80 310 l 2
 58 310 40 328 40 350 c 0
40 450 m 0
 40 472 58 490 80 490 c 2
 120 490 l 2
 142 490 160 472 160 450 c 0
 160 428 142 410 120 410 c 2
 80 410 l 2
 58 410 40 428 40 450 c 0
40 550 m 0
 40 572 58 590 80 590 c 2
 120 590 l 2
 142 590 160 572 160 550 c 0
 160 528 142 510 120 510 c 2
 80 510 l 2
 58 510 40 528 40 550 c 0
40 650 m 0
 40 672 58 690 80 690 c 2
 520 690 l 2
 542 690 560 672 560 650 c 0
 560 628 542 610 520 610 c 2
 80 610 l 2
 58 610 40 628 40 650 c 0
EndSplineSet
EndChar

StartChar: G
Encoding: 71 71 39
Width: 600
Flags: HMW
AnchorPoint: "marks_below" 300 0 basechar 0
AnchorPoint: "marks_above" 300 800 basechar 0
LayerCount: 2
Fore
SplineSet
140 50 m 0
 140 72 158 90 180 90 c 2
 520 90 l 2
 542 90 560 72 560 50 c 0
 560 28 542 10 520 10 c 2
 180 10 l 2
 158 10 140 28 140 50 c 0
440 150 m 0
 440 172 458 190 480 190 c 2
 520 190 l 2
 542 190 560 172 560 150 c 0
 560 128 542 110 520 110 c 2
 480 110 l 2
 458 110 440 128 440 150 c 0
40 150 m 0
 40 172 58 190 80 190 c 2
 120 190 l 2
 142 190 160 172 160 150 c 0
 160 128 142 110 120 110 c 2
 80 110 l 2
 58 110 40 128 40 150 c 0
440 250 m 0
 440 272 458 290 480 290 c 2
 520 290 l 2
 542 290 560 272 560 250 c 0
 560 228 542 210 520 210 c 2
 480 210 l 2
 458 210 440 228 440 250 c 0
40 250 m 0
 40 272 58 290 80 290 c 2
 120 290 l 2
 142 290 160 272 160 250 c 0
 160 228 142 210 120 210 c 2
 80 210 l 2
 58 210 40 228 40 250 c 0
340 350 m 0
 340 372 358 390 380 390 c 2
 520 390 l 2
 542 390 560 372 560 350 c 0
 560 328 542 310 520 310 c 2
 380 310 l 2
 358 310 340 328 340 350 c 0
40 350 m 0
 40 372 58 390 80 390 c 2
 120 390 l 2
 142 390 160 372 160 350 c 0
 160 328 142 310 120 310 c 2
 80 310 l 2
 58 310 40 328 40 350 c 0
40 450 m 0
 40 472 58 490 80 490 c 2
 120 490 l 2
 142 490 160 472 160 450 c 0
 160 428 142 410 120 410 c 2
 80 410 l 2
 58 410 40 428 40 450 c 0
440 550 m 0
 440 572 458 590 480 590 c 2
 520 590 l 2
 542 590 560 572 560 550 c 0
 560 528 542 510 520 510 c 2
 480 510 l 2
 458 510 440 528 440 550 c 0
40 550 m 0
 40 572 58 590 80 590 c 2
 120 590 l 2
 142 590 160 572 160 550 c 0
 160 528 142 510 120 510 c 2
 80 510 l 2
 58 510 40 528 40 550 c 0
140 650 m 0
 140 672 158 690 180 690 c 2
 420 690 l 2
 442 690 460 672 460 650 c 0
 460 628 442 610 420 610 c 2
 180 610 l 2
 158 610 140 628 140 650 c 0
EndSplineSet
EndChar

StartChar: H
Encoding: 72 72 40
Width: 600
Flags: HMW
AnchorPoint: "marks_below" 300 0 basechar 0
AnchorPoint: "marks_above" 300 800 basechar 0
LayerCount: 2
Fore
SplineSet
440 50 m 0
 440 72 458 90 480 90 c 2
 520 90 l 2
 542 90 560 72 560 50 c 0
 560 28 542 10 520 10 c 2
 480 10 l 2
 458 10 440 28 440 50 c 0
40 50 m 0
 40 72 58 90 80 90 c 2
 120 90 l 2
 142 90 160 72 160 50 c 0
 160 28 142 10 120 10 c 2
 80 10 l 2
 58 10 40 28 40 50 c 0
440 150 m 0
 440 172 458 190 480 190 c 2
 520 190 l 2
 542 190 560 172 560 150 c 0
 560 128 542 110 520 110 c 2
 480 110 l 2
 458 110 440 128 440 150 c 0
40 150 m 0
 40 172 58 190 80 190 c 2
 120 190 l 2
 142 190 160 172 160 150 c 0
 160 128 142 110 120 110 c 2
 80 110 l 2
 58 110 40 128 40 150 c 0
440 250 m 0
 440 272 458 290 480 290 c 2
 520 290 l 2
 542 290 560 272 560 250 c 0
 560 228 542 210 520 210 c 2
 480 210 l 2
 458 210 440 228 440 250 c 0
40 250 m 0
 40 272 58 290 80 290 c 2
 120 290 l 2
 142 290 160 272 160 250 c 0
 160 228 142 210 120 210 c 2
 80 210 l 2
 58 210 40 228 40 250 c 0
40 350 m 0
 40 372 58 390 80 390 c 2
 520 390 l 2
 542 390 560 372 560 350 c 0
 560 328 542 310 520 310 c 2
 80 310 l 2
 58 310 40 328 40 350 c 0
440 450 m 0
 440 472 458 490 480 490 c 2
 520 490 l 2
 542 490 560 472 560 450 c 0
 560 428 542 410 520 410 c 2
 480 410 l 2
 458 410 440 428 440 450 c 0
40 450 m 0
 40 472 58 490 80 490 c 2
 120 490 l 2
 142 490 160 472 160 450 c 0
 160 428 142 410 120 410 c 2
 80 410 l 2
 58 410 40 428 40 450 c 0
440 550 m 0
 440 572 458 590 480 590 c 2
 520 590 l 2
 542 590 560 572 560 550 c 0
 560 528 542 510 520 510 c 2
 480 510 l 2
 458 510 440 528 440 550 c 0
40 550 m 0
 40 572 58 590 80 590 c 2
 120 590 l 2
 142 590 160 572 160 550 c 0
 160 528 142 510 120 510 c 2
 80 510 l 2
 58 510 40 528 40 550 c 0
440 650 m 0
 440 672 458 690 480 690 c 2
 520 690 l 2
 542 690 560 672 560 650 c 0
 560 628 542 610 520 610 c 2
 480 610 l 2
 458 610 440 628 440 650 c 0
40 650 m 0
 40 672 58 690 80 690 c 2
 120 690 l 2
 142 690 160 672 160 650 c 0
 160 628 142 610 120 610 c 2
 80 610 l 2
 58 610 40 628 40 650 c 0
EndSplineSet
EndChar

StartChar: I
Encoding: 73 73 41
Width: 400
Flags: HMW
AnchorPoint: "marks_below" 200 0 basechar 0
AnchorPoint: "ogonek" 200 0 basechar 0
AnchorPoint: "marks_above" 200 800 basechar 0
LayerCount: 2
Fore
SplineSet
40 50 m 0
 40 72 58 90 80 90 c 2
 320 90 l 2
 342 90 360 72 360 50 c 0
 360 28 342 10 320 10 c 2
 80 10 l 2
 58 10 40 28 40 50 c 0
140 150 m 0
 140 172 158 190 180 190 c 2
 220 190 l 2
 242 190 260 172 260 150 c 0
 260 128 242 110 220 110 c 2
 180 110 l 2
 158 110 140 128 140 150 c 0
140 250 m 0
 140 272 158 290 180 290 c 2
 220 290 l 2
 242 290 260 272 260 250 c 0
 260 228 242 210 220 210 c 2
 180 210 l 2
 158 210 140 228 140 250 c 0
140 350 m 0
 140 372 158 390 180 390 c 2
 220 390 l 2
 242 390 260 372 260 350 c 0
 260 328 242 310 220 310 c 2
 180 310 l 2
 158 310 140 328 140 350 c 0
140 450 m 0
 140 472 158 490 180 490 c 2
 220 490 l 2
 242 490 260 472 260 450 c 0
 260 428 242 410 220 410 c 2
 180 410 l 2
 158 410 140 428 140 450 c 0
140 550 m 0
 140 572 158 590 180 590 c 2
 220 590 l 2
 242 590 260 572 260 550 c 0
 260 528 242 510 220 510 c 2
 180 510 l 2
 158 510 140 528 140 550 c 0
40 650 m 0
 40 672 58 690 80 690 c 2
 320 690 l 2
 342 690 360 672 360 650 c 0
 360 628 342 610 320 610 c 2
 80 610 l 2
 58 610 40 628 40 650 c 0
EndSplineSet
EndChar

StartChar: J
Encoding: 74 74 42
Width: 600
Flags: HMW
AnchorPoint: "marks_above" 400 800 basechar 0
LayerCount: 2
Fore
SplineSet
140 50 m 0
 140 72 158 90 180 90 c 2
 320 90 l 2
 342 90 360 72 360 50 c 0
 360 28 342 10 320 10 c 2
 180 10 l 2
 158 10 140 28 140 50 c 0
340 150 m 0
 340 172 358 190 380 190 c 2
 420 190 l 2
 442 190 460 172 460 150 c 0
 460 128 442 110 420 110 c 2
 380 110 l 2
 358 110 340 128 340 150 c 0
40 150 m 0
 40 172 58 190 80 190 c 2
 120 190 l 2
 142 190 160 172 160 150 c 0
 160 128 142 110 120 110 c 2
 80 110 l 2
 58 110 40 128 40 150 c 0
340 250 m 0
 340 272 358 290 380 290 c 2
 420 290 l 2
 442 290 460 272 460 250 c 0
 460 228 442 210 420 210 c 2
 380 210 l 2
 358 210 340 228 340 250 c 0
340 350 m 0
 340 372 358 390 380 390 c 2
 420 390 l 2
 442 390 460 372 460 350 c 0
 460 328 442 310 420 310 c 2
 380 310 l 2
 358 310 340 328 340 350 c 0
340 450 m 0
 340 472 358 490 380 490 c 2
 420 490 l 2
 442 490 460 472 460 450 c 0
 460 428 442 410 420 410 c 2
 380 410 l 2
 358 410 340 428 340 450 c 0
340 550 m 0
 340 572 358 590 380 590 c 2
 420 590 l 2
 442 590 460 572 460 550 c 0
 460 528 442 510 420 510 c 2
 380 510 l 2
 358 510 340 528 340 550 c 0
240 650 m 0
 240 672 258 690 280 690 c 2
 520 690 l 2
 542 690 560 672 560 650 c 0
 560 628 542 610 520 610 c 2
 280 610 l 2
 258 610 240 628 240 650 c 0
EndSplineSet
EndChar

StartChar: K
Encoding: 75 75 43
Width: 600
Flags: HMW
AnchorPoint: "marks_below" 300 0 basechar 0
AnchorPoint: "marks_above" 300 800 basechar 0
LayerCount: 2
Fore
SplineSet
440 50 m 0
 440 72 458 90 480 90 c 2
 520 90 l 2
 542 90 560 72 560 50 c 0
 560 28 542 10 520 10 c 2
 480 10 l 2
 458 10 440 28 440 50 c 0
40 50 m 0
 40 72 58 90 80 90 c 2
 120 90 l 2
 142 90 160 72 160 50 c 0
 160 28 142 10 120 10 c 2
 80 10 l 2
 58 10 40 28 40 50 c 0
340 150 m 0
 340 172 358 190 380 190 c 2
 420 190 l 2
 442 190 460 172 460 150 c 0
 460 128 442 110 420 110 c 2
 380 110 l 2
 358 110 340 128 340 150 c 0
40 150 m 0
 40 172 58 190 80 190 c 2
 120 190 l 2
 142 190 160 172 160 150 c 0
 160 128 142 110 120 110 c 2
 80 110 l 2
 58 110 40 128 40 150 c 0
240 250 m 0
 240 272 258 290 280 290 c 2
 320 290 l 2
 342 290 360 272 360 250 c 0
 360 228 342 210 320 210 c 2
 280 210 l 2
 258 210 240 228 240 250 c 0
40 250 m 0
 40 272 58 290 80 290 c 2
 120 290 l 2
 142 290 160 272 160 250 c 0
 160 228 142 210 120 210 c 2
 80 210 l 2
 58 210 40 228 40 250 c 0
40 350 m 0
 40 372 58 390 80 390 c 2
 220 390 l 2
 242 390 260 372 260 350 c 0
 260 328 242 310 220 310 c 2
 80 310 l 2
 58 310 40 328 40 350 c 0
240 450 m 0
 240 472 258 490 280 490 c 2
 320 490 l 2
 342 490 360 472 360 450 c 0
 360 428 342 410 320 410 c 2
 280 410 l 2
 258 410 240 428 240 450 c 0
40 450 m 0
 40 472 58 490 80 490 c 2
 120 490 l 2
 142 490 160 472 160 450 c 0
 160 428 142 410 120 410 c 2
 80 410 l 2
 58 410 40 428 40 450 c 0
340 550 m 0
 340 572 358 590 380 590 c 2
 420 590 l 2
 442 590 460 572 460 550 c 0
 460 528 442 510 420 510 c 2
 380 510 l 2
 358 510 340 528 340 550 c 0
40 550 m 0
 40 572 58 590 80 590 c 2
 120 590 l 2
 142 590 160 572 160 550 c 0
 160 528 142 510 120 510 c 2
 80 510 l 2
 58 510 40 528 40 550 c 0
440 650 m 0
 440 672 458 690 480 690 c 2
 520 690 l 2
 542 690 560 672 560 650 c 0
 560 628 542 610 520 610 c 2
 480 610 l 2
 458 610 440 628 440 650 c 0
40 650 m 0
 40 672 58 690 80 690 c 2
 120 690 l 2
 142 690 160 672 160 650 c 0
 160 628 142 610 120 610 c 2
 80 610 l 2
 58 610 40 628 40 650 c 0
EndSplineSet
EndChar

StartChar: L
Encoding: 76 76 44
Width: 600
Flags: HMW
AnchorPoint: "marks_aboveright" 250 500 basechar 0
AnchorPoint: "marks_below" 300 0 basechar 0
AnchorPoint: "marks_above" 300 800 basechar 0
LayerCount: 2
Fore
SplineSet
40 50 m 0
 40 72 58 90 80 90 c 2
 520 90 l 2
 542 90 560 72 560 50 c 0
 560 28 542 10 520 10 c 2
 80 10 l 2
 58 10 40 28 40 50 c 0
40 150 m 0
 40 172 58 190 80 190 c 2
 120 190 l 2
 142 190 160 172 160 150 c 0
 160 128 142 110 120 110 c 2
 80 110 l 2
 58 110 40 128 40 150 c 0
40 250 m 0
 40 272 58 290 80 290 c 2
 120 290 l 2
 142 290 160 272 160 250 c 0
 160 228 142 210 120 210 c 2
 80 210 l 2
 58 210 40 228 40 250 c 0
40 350 m 0
 40 372 58 390 80 390 c 2
 120 390 l 2
 142 390 160 372 160 350 c 0
 160 328 142 310 120 310 c 2
 80 310 l 2
 58 310 40 328 40 350 c 0
40 450 m 0
 40 472 58 490 80 490 c 2
 120 490 l 2
 142 490 160 472 160 450 c 0
 160 428 142 410 120 410 c 2
 80 410 l 2
 58 410 40 428 40 450 c 0
40 550 m 0
 40 572 58 590 80 590 c 2
 120 590 l 2
 142 590 160 572 160 550 c 0
 160 528 142 510 120 510 c 2
 80 510 l 2
 58 510 40 528 40 550 c 0
40 650 m 0
 40 672 58 690 80 690 c 2
 120 690 l 2
 142 690 160 672 160 650 c 0
 160 628 142 610 120 610 c 2
 80 610 l 2
 58 610 40 628 40 650 c 0
EndSplineSet
EndChar

StartChar: M
Encoding: 77 77 45
Width: 600
Flags: HMW
AnchorPoint: "marks_below" 300 0 basechar 0
AnchorPoint: "marks_above" 300 800 basechar 0
LayerCount: 2
Fore
SplineSet
440 50 m 0
 440 72 458 90 480 90 c 2
 520 90 l 2
 542 90 560 72 560 50 c 0
 560 28 542 10 520 10 c 2
 480 10 l 2
 458 10 440 28 440 50 c 0
40 50 m 0
 40 72 58 90 80 90 c 2
 120 90 l 2
 142 90 160 72 160 50 c 0
 160 28 142 10 120 10 c 2
 80 10 l 2
 58 10 40 28 40 50 c 0
440 150 m 0
 440 172 458 190 480 190 c 2
 520 190 l 2
 542 190 560 172 560 150 c 0
 560 128 542 110 520 110 c 2
 480 110 l 2
 458 110 440 128 440 150 c 0
40 150 m 0
 40 172 58 190 80 190 c 2
 120 190 l 2
 142 190 160 172 160 150 c 0
 160 128 142 110 120 110 c 2
 80 110 l 2
 58 110 40 128 40 150 c 0
440 250 m 0
 440 272 458 290 480 290 c 2
 520 290 l 2
 542 290 560 272 560 250 c 0
 560 228 542 210 520 210 c 2
 480 210 l 2
 458 210 440 228 440 250 c 0
40 250 m 0
 40 272 58 290 80 290 c 2
 120 290 l 2
 142 290 160 272 160 250 c 0
 160 228 142 210 120 210 c 2
 80 210 l 2
 58 210 40 228 40 250 c 0
440 350 m 0
 440 372 458 390 480 390 c 2
 520 390 l 2
 542 390 560 372 560 350 c 0
 560 328 542 310 520 310 c 2
 480 310 l 2
 458 310 440 328 440 350 c 0
240 350 m 0
 240 372 258 390 280 390 c 2
 320 390 l 2
 342 390 360 372 360 350 c 0
 360 328 342 310 320 310 c 2
 280 310 l 2
 258 310 240 328 240 350 c 0
40 350 m 0
 40 372 58 390 80 390 c 2
 120 390 l 2
 142 390 160 372 160 350 c 0
 160 328 142 310 120 310 c 2
 80 310 l 2
 58 310 40 328 40 350 c 0
440 450 m 0
 440 472 458 490 480 490 c 2
 520 490 l 2
 542 490 560 472 560 450 c 0
 560 428 542 410 520 410 c 2
 480 410 l 2
 458 410 440 428 440 450 c 0
240 450 m 0
 240 472 258 490 280 490 c 2
 320 490 l 2
 342 490 360 472 360 450 c 0
 360 428 342 410 320 410 c 2
 280 410 l 2
 258 410 240 428 240 450 c 0
40 450 m 0
 40 472 58 490 80 490 c 2
 120 490 l 2
 142 490 160 472 160 450 c 0
 160 428 142 410 120 410 c 2
 80 410 l 2
 58 410 40 428 40 450 c 0
340 550 m 0
 340 572 358 590 380 590 c 2
 520 590 l 2
 542 590 560 572 560 550 c 0
 560 528 542 510 520 510 c 2
 380 510 l 2
 358 510 340 528 340 550 c 0
40 550 m 0
 40 572 58 590 80 590 c 2
 220 590 l 2
 242 590 260 572 260 550 c 0
 260 528 242 510 220 510 c 2
 80 510 l 2
 58 510 40 528 40 550 c 0
440 650 m 0
 440 672 458 690 480 690 c 2
 520 690 l 2
 542 690 560 672 560 650 c 0
 560 628 542 610 520 610 c 2
 480 610 l 2
 458 610 440 628 440 650 c 0
40 650 m 0
 40 672 58 690 80 690 c 2
 120 690 l 2
 142 690 160 672 160 650 c 0
 160 628 142 610 120 610 c 2
 80 610 l 2
 58 610 40 628 40 650 c 0
EndSplineSet
EndChar

StartChar: N
Encoding: 78 78 46
Width: 600
Flags: HMW
AnchorPoint: "marks_below" 300 0 basechar 0
AnchorPoint: "marks_above" 300 800 basechar 0
LayerCount: 2
Fore
SplineSet
440 50 m 0
 440 72 458 90 480 90 c 2
 520 90 l 2
 542 90 560 72 560 50 c 0
 560 28 542 10 520 10 c 2
 480 10 l 2
 458 10 440 28 440 50 c 0
40 50 m 0
 40 72 58 90 80 90 c 2
 120 90 l 2
 142 90 160 72 160 50 c 0
 160 28 142 10 120 10 c 2
 80 10 l 2
 58 10 40 28 40 50 c 0
440 150 m 0
 440 172 458 190 480 190 c 2
 520 190 l 2
 542 190 560 172 560 150 c 0
 560 128 542 110 520 110 c 2
 480 110 l 2
 458 110 440 128 440 150 c 0
40 150 m 0
 40 172 58 190 80 190 c 2
 120 190 l 2
 142 190 160 172 160 150 c 0
 160 128 142 110 120 110 c 2
 80 110 l 2
 58 110 40 128 40 150 c 0
340 250 m 0
 340 272 358 290 380 290 c 2
 520 290 l 2
 542 290 560 272 560 250 c 0
 560 228 542 210 520 210 c 2
 380 210 l 2
 358 210 340 228 340 250 c 0
40 250 m 0
 40 272 58 290 80 290 c 2
 120 290 l 2
 142 290 160 272 160 250 c 0
 160 228 142 210 120 210 c 2
 80 210 l 2
 58 210 40 228 40 250 c 0
440 350 m 0
 440 372 458 390 480 390 c 2
 520 390 l 2
 542 390 560 372 560 350 c 0
 560 328 542 310 520 310 c 2
 480 310 l 2
 458 310 440 328 440 350 c 0
240 350 m 0
 240 372 258 390 280 390 c 2
 320 390 l 2
 342 390 360 372 360 350 c 0
 360 328 342 310 320 310 c 2
 280 310 l 2
 258 310 240 328 240 350 c 0
40 350 m 0
 40 372 58 390 80 390 c 2
 120 390 l 2
 142 390 160 372 160 350 c 0
 160 328 142 310 120 310 c 2
 80 310 l 2
 58 310 40 328 40 350 c 0
440 450 m 0
 440 472 458 490 480 490 c 2
 520 490 l 2
 542 490 560 472 560 450 c 0
 560 428 542 410 520 410 c 2
 480 410 l 2
 458 410 440 428 440 450 c 0
40 450 m 0
 40 472 58 490 80 490 c 2
 220 490 l 2
 242 490 260 472 260 450 c 0
 260 428 242 410 220 410 c 2
 80 410 l 2
 58 410 40 428 40 450 c 0
440 550 m 0
 440 572 458 590 480 590 c 2
 520 590 l 2
 542 590 560 572 560 550 c 0
 560 528 542 510 520 510 c 2
 480 510 l 2
 458 510 440 528 440 550 c 0
40 550 m 0
 40 572 58 590 80 590 c 2
 120 590 l 2
 142 590 160 572 160 550 c 0
 160 528 142 510 120 510 c 2
 80 510 l 2
 58 510 40 528 40 550 c 0
440 650 m 0
 440 672 458 690 480 690 c 2
 520 690 l 2
 542 690 560 672 560 650 c 0
 560 628 542 610 520 610 c 2
 480 610 l 2
 458 610 440 628 440 650 c 0
40 650 m 0
 40 672 58 690 80 690 c 2
 120 690 l 2
 142 690 160 672 160 650 c 0
 160 628 142 610 120 610 c 2
 80 610 l 2
 58 610 40 628 40 650 c 0
EndSplineSet
EndChar

StartChar: O
Encoding: 79 79 47
Width: 600
Flags: HMW
AnchorPoint: "marks_below" 300 0 basechar 0
AnchorPoint: "marks_above" 300 800 basechar 0
LayerCount: 2
Fore
SplineSet
140 50 m 0
 140 72 158 90 180 90 c 2
 420 90 l 2
 442 90 460 72 460 50 c 0
 460 28 442 10 420 10 c 2
 180 10 l 2
 158 10 140 28 140 50 c 0
440 150 m 0
 440 172 458 190 480 190 c 2
 520 190 l 2
 542 190 560 172 560 150 c 0
 560 128 542 110 520 110 c 2
 480 110 l 2
 458 110 440 128 440 150 c 0
40 150 m 0
 40 172 58 190 80 190 c 2
 120 190 l 2
 142 190 160 172 160 150 c 0
 160 128 142 110 120 110 c 2
 80 110 l 2
 58 110 40 128 40 150 c 0
440 250 m 0
 440 272 458 290 480 290 c 2
 520 290 l 2
 542 290 560 272 560 250 c 0
 560 228 542 210 520 210 c 2
 480 210 l 2
 458 210 440 228 440 250 c 0
40 250 m 0
 40 272 58 290 80 290 c 2
 120 290 l 2
 142 290 160 272 160 250 c 0
 160 228 142 210 120 210 c 2
 80 210 l 2
 58 210 40 228 40 250 c 0
440 350 m 0
 440 372 458 390 480 390 c 2
 520 390 l 2
 542 390 560 372 560 350 c 0
 560 328 542 310 520 310 c 2
 480 310 l 2
 458 310 440 328 440 350 c 0
40 350 m 0
 40 372 58 390 80 390 c 2
 120 390 l 2
 142 390 160 372 160 350 c 0
 160 328 142 310 120 310 c 2
 80 310 l 2
 58 310 40 328 40 350 c 0
440 450 m 0
 440 472 458 490 480 490 c 2
 520 490 l 2
 542 490 560 472 560 450 c 0
 560 428 542 410 520 410 c 2
 480 410 l 2
 458 410 440 428 440 450 c 0
40 450 m 0
 40 472 58 490 80 490 c 2
 120 490 l 2
 142 490 160 472 160 450 c 0
 160 428 142 410 120 410 c 2
 80 410 l 2
 58 410 40 428 40 450 c 0
440 550 m 0
 440 572 458 590 480 590 c 2
 520 590 l 2
 542 590 560 572 560 550 c 0
 560 528 542 510 520 510 c 2
 480 510 l 2
 458 510 440 528 440 550 c 0
40 550 m 0
 40 572 58 590 80 590 c 2
 120 590 l 2
 142 590 160 572 160 550 c 0
 160 528 142 510 120 510 c 2
 80 510 l 2
 58 510 40 528 40 550 c 0
140 650 m 0
 140 672 158 690 180 690 c 2
 420 690 l 2
 442 690 460 672 460 650 c 0
 460 628 442 610 420 610 c 2
 180 610 l 2
 158 610 140 628 140 650 c 0
EndSplineSet
EndChar

StartChar: P
Encoding: 80 80 48
Width: 600
Flags: HMW
AnchorPoint: "marks_below" 300 0 basechar 0
AnchorPoint: "marks_above" 300 800 basechar 0
LayerCount: 2
Fore
SplineSet
40 50 m 0
 40 72 58 90 80 90 c 2
 120 90 l 2
 142 90 160 72 160 50 c 0
 160 28 142 10 120 10 c 2
 80 10 l 2
 58 10 40 28 40 50 c 0
40 150 m 0
 40 172 58 190 80 190 c 2
 120 190 l 2
 142 190 160 172 160 150 c 0
 160 128 142 110 120 110 c 2
 80 110 l 2
 58 110 40 128 40 150 c 0
40 250 m 0
 40 272 58 290 80 290 c 2
 120 290 l 2
 142 290 160 272 160 250 c 0
 160 228 142 210 120 210 c 2
 80 210 l 2
 58 210 40 228 40 250 c 0
40 350 m 0
 40 372 58 390 80 390 c 2
 420 390 l 2
 442 390 460 372 460 350 c 0
 460 328 442 310 420 310 c 2
 80 310 l 2
 58 310 40 328 40 350 c 0
440 450 m 0
 440 472 458 490 480 490 c 2
 520 490 l 2
 542 490 560 472 560 450 c 0
 560 428 542 410 520 410 c 2
 480 410 l 2
 458 410 440 428 440 450 c 0
40 450 m 0
 40 472 58 490 80 490 c 2
 120 490 l 2
 142 490 160 472 160 450 c 0
 160 428 142 410 120 410 c 2
 80 410 l 2
 58 410 40 428 40 450 c 0
440 550 m 0
 440 572 458 590 480 590 c 2
 520 590 l 2
 542 590 560 572 560 550 c 0
 560 528 542 510 520 510 c 2
 480 510 l 2
 458 510 440 528 440 550 c 0
40 550 m 0
 40 572 58 590 80 590 c 2
 120 590 l 2
 142 590 160 572 160 550 c 0
 160 528 142 510 120 510 c 2
 80 510 l 2
 58 510 40 528 40 550 c 0
40 650 m 0
 40 672 58 690 80 690 c 2
 420 690 l 2
 442 690 460 672 460 650 c 0
 460 628 442 610 420 610 c 2
 80 610 l 2
 58 610 40 628 40 650 c 0
EndSplineSet
EndChar

StartChar: Q
Encoding: 81 81 49
Width: 600
Flags: HMW
AnchorPoint: "marks_below" 300 0 basechar 0
AnchorPoint: "marks_above" 300 800 basechar 0
LayerCount: 2
Fore
SplineSet
440 50 m 0
 440 72 458 90 480 90 c 2
 520 90 l 2
 542 90 560 72 560 50 c 0
 560 28 542 10 520 10 c 2
 480 10 l 2
 458 10 440 28 440 50 c 0
140 50 m 0
 140 72 158 90 180 90 c 2
 320 90 l 2
 342 90 360 72 360 50 c 0
 360 28 342 10 320 10 c 2
 180 10 l 2
 158 10 140 28 140 50 c 0
340 150 m 0
 340 172 358 190 380 190 c 2
 420 190 l 2
 442 190 460 172 460 150 c 0
 460 128 442 110 420 110 c 2
 380 110 l 2
 358 110 340 128 340 150 c 0
40 150 m 0
 40 172 58 190 80 190 c 2
 120 190 l 2
 142 190 160 172 160 150 c 0
 160 128 142 110 120 110 c 2
 80 110 l 2
 58 110 40 128 40 150 c 0
440 250 m 0
 440 272 458 290 480 290 c 2
 520 290 l 2
 542 290 560 272 560 250 c 0
 560 228 542 210 520 210 c 2
 480 210 l 2
 458 210 440 228 440 250 c 0
240 250 m 0
 240 272 258 290 280 290 c 2
 320 290 l 2
 342 290 360 272 360 250 c 0
 360 228 342 210 320 210 c 2
 280 210 l 2
 258 210 240 228 240 250 c 0
40 250 m 0
 40 272 58 290 80 290 c 2
 120 290 l 2
 142 290 160 272 160 250 c 0
 160 228 142 210 120 210 c 2
 80 210 l 2
 58 210 40 228 40 250 c 0
440 350 m 0
 440 372 458 390 480 390 c 2
 520 390 l 2
 542 390 560 372 560 350 c 0
 560 328 542 310 520 310 c 2
 480 310 l 2
 458 310 440 328 440 350 c 0
40 350 m 0
 40 372 58 390 80 390 c 2
 120 390 l 2
 142 390 160 372 160 350 c 0
 160 328 142 310 120 310 c 2
 80 310 l 2
 58 310 40 328 40 350 c 0
440 450 m 0
 440 472 458 490 480 490 c 2
 520 490 l 2
 542 490 560 472 560 450 c 0
 560 428 542 410 520 410 c 2
 480 410 l 2
 458 410 440 428 440 450 c 0
40 450 m 0
 40 472 58 490 80 490 c 2
 120 490 l 2
 142 490 160 472 160 450 c 0
 160 428 142 410 120 410 c 2
 80 410 l 2
 58 410 40 428 40 450 c 0
440 550 m 0
 440 572 458 590 480 590 c 2
 520 590 l 2
 542 590 560 572 560 550 c 0
 560 528 542 510 520 510 c 2
 480 510 l 2
 458 510 440 528 440 550 c 0
40 550 m 0
 40 572 58 590 80 590 c 2
 120 590 l 2
 142 590 160 572 160 550 c 0
 160 528 142 510 120 510 c 2
 80 510 l 2
 58 510 40 528 40 550 c 0
140 650 m 0
 140 672 158 690 180 690 c 2
 420 690 l 2
 442 690 460 672 460 650 c 0
 460 628 442 610 420 610 c 2
 180 610 l 2
 158 610 140 628 140 650 c 0
EndSplineSet
EndChar

StartChar: R
Encoding: 82 82 50
Width: 600
Flags: HMW
AnchorPoint: "marks_below" 300 0 basechar 0
AnchorPoint: "marks_above" 300 800 basechar 0
LayerCount: 2
Fore
SplineSet
440 50 m 0
 440 72 458 90 480 90 c 2
 520 90 l 2
 542 90 560 72 560 50 c 0
 560 28 542 10 520 10 c 2
 480 10 l 2
 458 10 440 28 440 50 c 0
40 50 m 0
 40 72 58 90 80 90 c 2
 120 90 l 2
 142 90 160 72 160 50 c 0
 160 28 142 10 120 10 c 2
 80 10 l 2
 58 10 40 28 40 50 c 0
340 150 m 0
 340 172 358 190 380 190 c 2
 420 190 l 2
 442 190 460 172 460 150 c 0
 460 128 442 110 420 110 c 2
 380 110 l 2
 358 110 340 128 340 150 c 0
40 150 m 0
 40 172 58 190 80 190 c 2
 120 190 l 2
 142 190 160 172 160 150 c 0
 160 128 142 110 120 110 c 2
 80 110 l 2
 58 110 40 128 40 150 c 0
240 250 m 0
 240 272 258 290 280 290 c 2
 320 290 l 2
 342 290 360 272 360 250 c 0
 360 228 342 210 320 210 c 2
 280 210 l 2
 258 210 240 228 240 250 c 0
40 250 m 0
 40 272 58 290 80 290 c 2
 120 290 l 2
 142 290 160 272 160 250 c 0
 160 228 142 210 120 210 c 2
 80 210 l 2
 58 210 40 228 40 250 c 0
40 350 m 0
 40 372 58 390 80 390 c 2
 420 390 l 2
 442 390 460 372 460 350 c 0
 460 328 442 310 420 310 c 2
 80 310 l 2
 58 310 40 328 40 350 c 0
440 450 m 0
 440 472 458 490 480 490 c 2
 520 490 l 2
 542 490 560 472 560 450 c 0
 560 428 542 410 520 410 c 2
 480 410 l 2
 458 410 440 428 440 450 c 0
40 450 m 0
 40 472 58 490 80 490 c 2
 120 490 l 2
 142 490 160 472 160 450 c 0
 160 428 142 410 120 410 c 2
 80 410 l 2
 58 410 40 428 40 450 c 0
440 550 m 0
 440 572 458 590 480 590 c 2
 520 590 l 2
 542 590 560 572 560 550 c 0
 560 528 542 510 520 510 c 2
 480 510 l 2
 458 510 440 528 440 550 c 0
40 550 m 0
 40 572 58 590 80 590 c 2
 120 590 l 2
 142 590 160 572 160 550 c 0
 160 528 142 510 120 510 c 2
 80 510 l 2
 58 510 40 528 40 550 c 0
40 650 m 0
 40 672 58 690 80 690 c 2
 420 690 l 2
 442 690 460 672 460 650 c 0
 460 628 442 610 420 610 c 2
 80 610 l 2
 58 610 40 628 40 650 c 0
EndSplineSet
EndChar

StartChar: S
Encoding: 83 83 51
Width: 600
Flags: HMW
AnchorPoint: "marks_below" 300 0 basechar 0
AnchorPoint: "marks_above" 300 800 basechar 0
LayerCount: 2
Fore
SplineSet
140 50 m 0
 140 72 158 90 180 90 c 2
 420 90 l 2
 442 90 460 72 460 50 c 0
 460 28 442 10 420 10 c 2
 180 10 l 2
 158 10 140 28 140 50 c 0
440 150 m 0
 440 172 458 190 480 190 c 2
 520 190 l 2
 542 190 560 172 560 150 c 0
 560 128 542 110 520 110 c 2
 480 110 l 2
 458 110 440 128 440 150 c 0
40 150 m 0
 40 172 58 190 80 190 c 2
 120 190 l 2
 142 190 160 172 160 150 c 0
 160 128 142 110 120 110 c 2
 80 110 l 2
 58 110 40 128 40 150 c 0
440 250 m 0
 440 272 458 290 480 290 c 2
 520 290 l 2
 542 290 560 272 560 250 c 0
 560 228 542 210 520 210 c 2
 480 210 l 2
 458 210 440 228 440 250 c 0
140 350 m 0
 140 372 158 390 180 390 c 2
 420 390 l 2
 442 390 460 372 460 350 c 0
 460 328 442 310 420 310 c 2
 180 310 l 2
 158 310 140 328 140 350 c 0
40 450 m 0
 40 472 58 490 80 490 c 2
 120 490 l 2
 142 490 160 472 160 450 c 0
 160 428 142 410 120 410 c 2
 80 410 l 2
 58 410 40 428 40 450 c 0
440 550 m 0
 440 572 458 590 480 590 c 2
 520 590 l 2
 542 590 560 572 560 550 c 0
 560 528 542 510 520 510 c 2
 480 510 l 2
 458 510 440 528 440 550 c 0
40 550 m 0
 40 572 58 590 80 590 c 2
 120 590 l 2
 142 590 160 572 160 550 c 0
 160 528 142 510 120 510 c 2
 80 510 l 2
 58 510 40 528 40 550 c 0
140 650 m 0
 140 672 158 690 180 690 c 2
 420 690 l 2
 442 690 460 672 460 650 c 0
 460 628 442 610 420 610 c 2
 180 610 l 2
 158 610 140 628 140 650 c 0
EndSplineSet
EndChar

StartChar: T
Encoding: 84 84 52
Width: 600
Flags: HMW
AnchorPoint: "marks_below" 300 0 basechar 0
AnchorPoint: "marks_above" 300 800 basechar 0
LayerCount: 2
Fore
SplineSet
240 50 m 0
 240 72 258 90 280 90 c 2
 320 90 l 2
 342 90 360 72 360 50 c 0
 360 28 342 10 320 10 c 2
 280 10 l 2
 258 10 240 28 240 50 c 0
240 150 m 0
 240 172 258 190 280 190 c 2
 320 190 l 2
 342 190 360 172 360 150 c 0
 360 128 342 110 320 110 c 2
 280 110 l 2
 258 110 240 128 240 150 c 0
240 250 m 0
 240 272 258 290 280 290 c 2
 320 290 l 2
 342 290 360 272 360 250 c 0
 360 228 342 210 320 210 c 2
 280 210 l 2
 258 210 240 228 240 250 c 0
240 350 m 0
 240 372 258 390 280 390 c 2
 320 390 l 2
 342 390 360 372 360 350 c 0
 360 328 342 310 320 310 c 2
 280 310 l 2
 258 310 240 328 240 350 c 0
240 450 m 0
 240 472 258 490 280 490 c 2
 320 490 l 2
 342 490 360 472 360 450 c 0
 360 428 342 410 320 410 c 2
 280 410 l 2
 258 410 240 428 240 450 c 0
240 550 m 0
 240 572 258 590 280 590 c 2
 320 590 l 2
 342 590 360 572 360 550 c 0
 360 528 342 510 320 510 c 2
 280 510 l 2
 258 510 240 528 240 550 c 0
40 650 m 0
 40 672 58 690 80 690 c 2
 520 690 l 2
 542 690 560 672 560 650 c 0
 560 628 542 610 520 610 c 2
 80 610 l 2
 58 610 40 628 40 650 c 0
EndSplineSet
EndChar

StartChar: U
Encoding: 85 85 53
Width: 600
Flags: HMW
AnchorPoint: "ogonek" 300 0 basechar 0
AnchorPoint: "marks_below" 300 0 basechar 0
AnchorPoint: "marks_above" 300 800 basechar 0
LayerCount: 2
Fore
SplineSet
140 50 m 0
 140 72 158 90 180 90 c 2
 420 90 l 2
 442 90 460 72 460 50 c 0
 460 28 442 10 420 10 c 2
 180 10 l 2
 158 10 140 28 140 50 c 0
440 150 m 0
 440 172 458 190 480 190 c 2
 520 190 l 2
 542 190 560 172 560 150 c 0
 560 128 542 110 520 110 c 2
 480 110 l 2
 458 110 440 128 440 150 c 0
40 150 m 0
 40 172 58 190 80 190 c 2
 120 190 l 2
 142 190 160 172 160 150 c 0
 160 128 142 110 120 110 c 2
 80 110 l 2
 58 110 40 128 40 150 c 0
440 250 m 0
 440 272 458 290 480 290 c 2
 520 290 l 2
 542 290 560 272 560 250 c 0
 560 228 542 210 520 210 c 2
 480 210 l 2
 458 210 440 228 440 250 c 0
40 250 m 0
 40 272 58 290 80 290 c 2
 120 290 l 2
 142 290 160 272 160 250 c 0
 160 228 142 210 120 210 c 2
 80 210 l 2
 58 210 40 228 40 250 c 0
440 350 m 0
 440 372 458 390 480 390 c 2
 520 390 l 2
 542 390 560 372 560 350 c 0
 560 328 542 310 520 310 c 2
 480 310 l 2
 458 310 440 328 440 350 c 0
40 350 m 0
 40 372 58 390 80 390 c 2
 120 390 l 2
 142 390 160 372 160 350 c 0
 160 328 142 310 120 310 c 2
 80 310 l 2
 58 310 40 328 40 350 c 0
440 450 m 0
 440 472 458 490 480 490 c 2
 520 490 l 2
 542 490 560 472 560 450 c 0
 560 428 542 410 520 410 c 2
 480 410 l 2
 458 410 440 428 440 450 c 0
40 450 m 0
 40 472 58 490 80 490 c 2
 120 490 l 2
 142 490 160 472 160 450 c 0
 160 428 142 410 120 410 c 2
 80 410 l 2
 58 410 40 428 40 450 c 0
440 550 m 0
 440 572 458 590 480 590 c 2
 520 590 l 2
 542 590 560 572 560 550 c 0
 560 528 542 510 520 510 c 2
 480 510 l 2
 458 510 440 528 440 550 c 0
40 550 m 0
 40 572 58 590 80 590 c 2
 120 590 l 2
 142 590 160 572 160 550 c 0
 160 528 142 510 120 510 c 2
 80 510 l 2
 58 510 40 528 40 550 c 0
440 650 m 0
 440 672 458 690 480 690 c 2
 520 690 l 2
 542 690 560 672 560 650 c 0
 560 628 542 610 520 610 c 2
 480 610 l 2
 458 610 440 628 440 650 c 0
40 650 m 0
 40 672 58 690 80 690 c 2
 120 690 l 2
 142 690 160 672 160 650 c 0
 160 628 142 610 120 610 c 2
 80 610 l 2
 58 610 40 628 40 650 c 0
EndSplineSet
EndChar

StartChar: V
Encoding: 86 86 54
Width: 600
Flags: HMW
AnchorPoint: "marks_below" 300 0 basechar 0
AnchorPoint: "marks_above" 300 800 basechar 0
LayerCount: 2
Fore
SplineSet
240 50 m 0
 240 72 258 90 280 90 c 2
 320 90 l 2
 342 90 360 72 360 50 c 0
 360 28 342 10 320 10 c 2
 280 10 l 2
 258 10 240 28 240 50 c 0
340 150 m 0
 340 172 358 190 380 190 c 2
 420 190 l 2
 442 190 460 172 460 150 c 0
 460 128 442 110 420 110 c 2
 380 110 l 2
 358 110 340 128 340 150 c 0
140 150 m 0
 140 172 158 190 180 190 c 2
 220 190 l 2
 242 190 260 172 260 150 c 0
 260 128 242 110 220 110 c 2
 180 110 l 2
 158 110 140 128 140 150 c 0
440 250 m 0
 440 272 458 290 480 290 c 2
 520 290 l 2
 542 290 560 272 560 250 c 0
 560 228 542 210 520 210 c 2
 480 210 l 2
 458 210 440 228 440 250 c 0
40 250 m 0
 40 272 58 290 80 290 c 2
 120 290 l 2
 142 290 160 272 160 250 c 0
 160 228 142 210 120 210 c 2
 80 210 l 2
 58 210 40 228 40 250 c 0
440 350 m 0
 440 372 458 390 480 390 c 2
 520 390 l 2
 542 390 560 372 560 350 c 0
 560 328 542 310 520 310 c 2
 480 310 l 2
 458 310 440 328 440 350 c 0
40 350 m 0
 40 372 58 390 80 390 c 2
 120 390 l 2
 142 390 160 372 160 350 c 0
 160 328 142 310 120 310 c 2
 80 310 l 2
 58 310 40 328 40 350 c 0
440 450 m 0
 440 472 458 490 480 490 c 2
 520 490 l 2
 542 490 560 472 560 450 c 0
 560 428 542 410 520 410 c 2
 480 410 l 2
 458 410 440 428 440 450 c 0
40 450 m 0
 40 472 58 490 80 490 c 2
 120 490 l 2
 142 490 160 472 160 450 c 0
 160 428 142 410 120 410 c 2
 80 410 l 2
 58 410 40 428 40 450 c 0
440 550 m 0
 440 572 458 590 480 590 c 2
 520 590 l 2
 542 590 560 572 560 550 c 0
 560 528 542 510 520 510 c 2
 480 510 l 2
 458 510 440 528 440 550 c 0
40 550 m 0
 40 572 58 590 80 590 c 2
 120 590 l 2
 142 590 160 572 160 550 c 0
 160 528 142 510 120 510 c 2
 80 510 l 2
 58 510 40 528 40 550 c 0
440 650 m 0
 440 672 458 690 480 690 c 2
 520 690 l 2
 542 690 560 672 560 650 c 0
 560 628 542 610 520 610 c 2
 480 610 l 2
 458 610 440 628 440 650 c 0
40 650 m 0
 40 672 58 690 80 690 c 2
 120 690 l 2
 142 690 160 672 160 650 c 0
 160 628 142 610 120 610 c 2
 80 610 l 2
 58 610 40 628 40 650 c 0
EndSplineSet
EndChar

StartChar: W
Encoding: 87 87 55
Width: 600
Flags: HMW
AnchorPoint: "marks_below" 300 0 basechar 0
AnchorPoint: "marks_above" 300 800 basechar 0
LayerCount: 2
Fore
SplineSet
340 50 m 0
 340 72 358 90 380 90 c 2
 420 90 l 2
 442 90 460 72 460 50 c 0
 460 28 442 10 420 10 c 2
 380 10 l 2
 358 10 340 28 340 50 c 0
140 50 m 0
 140 72 158 90 180 90 c 2
 220 90 l 2
 242 90 260 72 260 50 c 0
 260 28 242 10 220 10 c 2
 180 10 l 2
 158 10 140 28 140 50 c 0
440 150 m 0
 440 172 458 190 480 190 c 2
 520 190 l 2
 542 190 560 172 560 150 c 0
 560 128 542 110 520 110 c 2
 480 110 l 2
 458 110 440 128 440 150 c 0
240 150 m 0
 240 172 258 190 280 190 c 2
 320 190 l 2
 342 190 360 172 360 150 c 0
 360 128 342 110 320 110 c 2
 280 110 l 2
 258 110 240 128 240 150 c 0
40 150 m 0
 40 172 58 190 80 190 c 2
 120 190 l 2
 142 190 160 172 160 150 c 0
 160 128 142 110 120 110 c 2
 80 110 l 2
 58 110 40 128 40 150 c 0
440 250 m 0
 440 272 458 290 480 290 c 2
 520 290 l 2
 542 290 560 272 560 250 c 0
 560 228 542 210 520 210 c 2
 480 210 l 2
 458 210 440 228 440 250 c 0
240 250 m 0
 240 272 258 290 280 290 c 2
 320 290 l 2
 342 290 360 272 360 250 c 0
 360 228 342 210 320 210 c 2
 280 210 l 2
 258 210 240 228 240 250 c 0
40 250 m 0
 40 272 58 290 80 290 c 2
 120 290 l 2
 142 290 160 272 160 250 c 0
 160 228 142 210 120 210 c 2
 80 210 l 2
 58 210 40 228 40 250 c 0
440 350 m 0
 440 372 458 390 480 390 c 2
 520 390 l 2
 542 390 560 372 560 350 c 0
 560 328 542 310 520 310 c 2
 480 310 l 2
 458 310 440 328 440 350 c 0
240 350 m 0
 240 372 258 390 280 390 c 2
 320 390 l 2
 342 390 360 372 360 350 c 0
 360 328 342 310 320 310 c 2
 280 310 l 2
 258 310 240 328 240 350 c 0
40 350 m 0
 40 372 58 390 80 390 c 2
 120 390 l 2
 142 390 160 372 160 350 c 0
 160 328 142 310 120 310 c 2
 80 310 l 2
 58 310 40 328 40 350 c 0
440 450 m 0
 440 472 458 490 480 490 c 2
 520 490 l 2
 542 490 560 472 560 450 c 0
 560 428 542 410 520 410 c 2
 480 410 l 2
 458 410 440 428 440 450 c 0
40 450 m 0
 40 472 58 490 80 490 c 2
 120 490 l 2
 142 490 160 472 160 450 c 0
 160 428 142 410 120 410 c 2
 80 410 l 2
 58 410 40 428 40 450 c 0
440 550 m 0
 440 572 458 590 480 590 c 2
 520 590 l 2
 542 590 560 572 560 550 c 0
 560 528 542 510 520 510 c 2
 480 510 l 2
 458 510 440 528 440 550 c 0
40 550 m 0
 40 572 58 590 80 590 c 2
 120 590 l 2
 142 590 160 572 160 550 c 0
 160 528 142 510 120 510 c 2
 80 510 l 2
 58 510 40 528 40 550 c 0
440 650 m 0
 440 672 458 690 480 690 c 2
 520 690 l 2
 542 690 560 672 560 650 c 0
 560 628 542 610 520 610 c 2
 480 610 l 2
 458 610 440 628 440 650 c 0
40 650 m 0
 40 672 58 690 80 690 c 2
 120 690 l 2
 142 690 160 672 160 650 c 0
 160 628 142 610 120 610 c 2
 80 610 l 2
 58 610 40 628 40 650 c 0
EndSplineSet
EndChar

StartChar: X
Encoding: 88 88 56
Width: 600
Flags: HMW
AnchorPoint: "marks_below" 300 0 basechar 0
AnchorPoint: "marks_above" 300 800 basechar 0
LayerCount: 2
Fore
SplineSet
440 50 m 0
 440 72 458 90 480 90 c 2
 520 90 l 2
 542 90 560 72 560 50 c 0
 560 28 542 10 520 10 c 2
 480 10 l 2
 458 10 440 28 440 50 c 0
40 50 m 0
 40 72 58 90 80 90 c 2
 120 90 l 2
 142 90 160 72 160 50 c 0
 160 28 142 10 120 10 c 2
 80 10 l 2
 58 10 40 28 40 50 c 0
440 150 m 0
 440 172 458 190 480 190 c 2
 520 190 l 2
 542 190 560 172 560 150 c 0
 560 128 542 110 520 110 c 2
 480 110 l 2
 458 110 440 128 440 150 c 0
40 150 m 0
 40 172 58 190 80 190 c 2
 120 190 l 2
 142 190 160 172 160 150 c 0
 160 128 142 110 120 110 c 2
 80 110 l 2
 58 110 40 128 40 150 c 0
340 250 m 0
 340 272 358 290 380 290 c 2
 420 290 l 2
 442 290 460 272 460 250 c 0
 460 228 442 210 420 210 c 2
 380 210 l 2
 358 210 340 228 340 250 c 0
140 250 m 0
 140 272 158 290 180 290 c 2
 220 290 l 2
 242 290 260 272 260 250 c 0
 260 228 242 210 220 210 c 2
 180 210 l 2
 158 210 140 228 140 250 c 0
240 350 m 0
 240 372 258 390 280 390 c 2
 320 390 l 2
 342 390 360 372 360 350 c 0
 360 328 342 310 320 310 c 2
 280 310 l 2
 258 310 240 328 240 350 c 0
340 450 m 0
 340 472 358 490 380 490 c 2
 420 490 l 2
 442 490 460 472 460 450 c 0
 460 428 442 410 420 410 c 2
 380 410 l 2
 358 410 340 428 340 450 c 0
140 450 m 0
 140 472 158 490 180 490 c 2
 220 490 l 2
 242 490 260 472 260 450 c 0
 260 428 242 410 220 410 c 2
 180 410 l 2
 158 410 140 428 140 450 c 0
440 550 m 0
 440 572 458 590 480 590 c 2
 520 590 l 2
 542 590 560 572 560 550 c 0
 560 528 542 510 520 510 c 2
 480 510 l 2
 458 510 440 528 440 550 c 0
40 550 m 0
 40 572 58 590 80 590 c 2
 120 590 l 2
 142 590 160 572 160 550 c 0
 160 528 142 510 120 510 c 2
 80 510 l 2
 58 510 40 528 40 550 c 0
440 650 m 0
 440 672 458 690 480 690 c 2
 520 690 l 2
 542 690 560 672 560 650 c 0
 560 628 542 610 520 610 c 2
 480 610 l 2
 458 610 440 628 440 650 c 0
40 650 m 0
 40 672 58 690 80 690 c 2
 120 690 l 2
 142 690 160 672 160 650 c 0
 160 628 142 610 120 610 c 2
 80 610 l 2
 58 610 40 628 40 650 c 0
EndSplineSet
EndChar

StartChar: Y
Encoding: 89 89 57
Width: 600
Flags: HMW
AnchorPoint: "marks_below" 300 0 basechar 0
AnchorPoint: "marks_above" 300 800 basechar 0
LayerCount: 2
Fore
SplineSet
240 50 m 0
 240 72 258 90 280 90 c 2
 320 90 l 2
 342 90 360 72 360 50 c 0
 360 28 342 10 320 10 c 2
 280 10 l 2
 258 10 240 28 240 50 c 0
240 150 m 0
 240 172 258 190 280 190 c 2
 320 190 l 2
 342 190 360 172 360 150 c 0
 360 128 342 110 320 110 c 2
 280 110 l 2
 258 110 240 128 240 150 c 0
240 250 m 0
 240 272 258 290 280 290 c 2
 320 290 l 2
 342 290 360 272 360 250 c 0
 360 228 342 210 320 210 c 2
 280 210 l 2
 258 210 240 228 240 250 c 0
240 350 m 0
 240 372 258 390 280 390 c 2
 320 390 l 2
 342 390 360 372 360 350 c 0
 360 328 342 310 320 310 c 2
 280 310 l 2
 258 310 240 328 240 350 c 0
340 450 m 0
 340 472 358 490 380 490 c 2
 420 490 l 2
 442 490 460 472 460 450 c 0
 460 428 442 410 420 410 c 2
 380 410 l 2
 358 410 340 428 340 450 c 0
140 450 m 0
 140 472 158 490 180 490 c 2
 220 490 l 2
 242 490 260 472 260 450 c 0
 260 428 242 410 220 410 c 2
 180 410 l 2
 158 410 140 428 140 450 c 0
440 550 m 0
 440 572 458 590 480 590 c 2
 520 590 l 2
 542 590 560 572 560 550 c 0
 560 528 542 510 520 510 c 2
 480 510 l 2
 458 510 440 528 440 550 c 0
40 550 m 0
 40 572 58 590 80 590 c 2
 120 590 l 2
 142 590 160 572 160 550 c 0
 160 528 142 510 120 510 c 2
 80 510 l 2
 58 510 40 528 40 550 c 0
440 650 m 0
 440 672 458 690 480 690 c 2
 520 690 l 2
 542 690 560 672 560 650 c 0
 560 628 542 610 520 610 c 2
 480 610 l 2
 458 610 440 628 440 650 c 0
40 650 m 0
 40 672 58 690 80 690 c 2
 120 690 l 2
 142 690 160 672 160 650 c 0
 160 628 142 610 120 610 c 2
 80 610 l 2
 58 610 40 628 40 650 c 0
EndSplineSet
EndChar

StartChar: Z
Encoding: 90 90 58
Width: 600
Flags: HMW
AnchorPoint: "marks_below" 300 0 basechar 0
AnchorPoint: "marks_above" 300 800 basechar 0
LayerCount: 2
Fore
SplineSet
40 50 m 0
 40 72 58 90 80 90 c 2
 520 90 l 2
 542 90 560 72 560 50 c 0
 560 28 542 10 520 10 c 2
 80 10 l 2
 58 10 40 28 40 50 c 0
40 150 m 0
 40 172 58 190 80 190 c 2
 120 190 l 2
 142 190 160 172 160 150 c 0
 160 128 142 110 120 110 c 2
 80 110 l 2
 58 110 40 128 40 150 c 0
140 250 m 0
 140 272 158 290 180 290 c 2
 220 290 l 2
 242 290 260 272 260 250 c 0
 260 228 242 210 220 210 c 2
 180 210 l 2
 158 210 140 228 140 250 c 0
240 350 m 0
 240 372 258 390 280 390 c 2
 320 390 l 2
 342 390 360 372 360 350 c 0
 360 328 342 310 320 310 c 2
 280 310 l 2
 258 310 240 328 240 350 c 0
340 450 m 0
 340 472 358 490 380 490 c 2
 420 490 l 2
 442 490 460 472 460 450 c 0
 460 428 442 410 420 410 c 2
 380 410 l 2
 358 410 340 428 340 450 c 0
440 550 m 0
 440 572 458 590 480 590 c 2
 520 590 l 2
 542 590 560 572 560 550 c 0
 560 528 542 510 520 510 c 2
 480 510 l 2
 458 510 440 528 440 550 c 0
40 650 m 0
 40 672 58 690 80 690 c 2
 520 690 l 2
 542 690 560 672 560 650 c 0
 560 628 542 610 520 610 c 2
 80 610 l 2
 58 610 40 628 40 650 c 0
EndSplineSet
EndChar

StartChar: bracketleft
Encoding: 91 91 59
Width: 400
Flags: HMW
LayerCount: 2
Fore
SplineSet
40 50 m 0
 40 72 58 90 80 90 c 2
 320 90 l 2
 342 90 360 72 360 50 c 0
 360 28 342 10 320 10 c 2
 80 10 l 2
 58 10 40 28 40 50 c 0
40 150 m 0
 40 172 58 190 80 190 c 2
 120 190 l 2
 142 190 160 172 160 150 c 0
 160 128 142 110 120 110 c 2
 80 110 l 2
 58 110 40 128 40 150 c 0
40 250 m 0
 40 272 58 290 80 290 c 2
 120 290 l 2
 142 290 160 272 160 250 c 0
 160 228 142 210 120 210 c 2
 80 210 l 2
 58 210 40 228 40 250 c 0
40 350 m 0
 40 372 58 390 80 390 c 2
 120 390 l 2
 142 390 160 372 160 350 c 0
 160 328 142 310 120 310 c 2
 80 310 l 2
 58 310 40 328 40 350 c 0
40 450 m 0
 40 472 58 490 80 490 c 2
 120 490 l 2
 142 490 160 472 160 450 c 0
 160 428 142 410 120 410 c 2
 80 410 l 2
 58 410 40 428 40 450 c 0
40 550 m 0
 40 572 58 590 80 590 c 2
 120 590 l 2
 142 590 160 572 160 550 c 0
 160 528 142 510 120 510 c 2
 80 510 l 2
 58 510 40 528 40 550 c 0
40 650 m 0
 40 672 58 690 80 690 c 2
 320 690 l 2
 342 690 360 672 360 650 c 0
 360 628 342 610 320 610 c 2
 80 610 l 2
 58 610 40 628 40 650 c 0
EndSplineSet
EndChar

StartChar: backslash
Encoding: 92 92 60
Width: 600
Flags: HMW
LayerCount: 2
Fore
SplineSet
440 150 m 0
 440 172 458 190 480 190 c 2
 520 190 l 2
 542 190 560 172 560 150 c 0
 560 128 542 110 520 110 c 2
 480 110 l 2
 458 110 440 128 440 150 c 0
340 250 m 0
 340 272 358 290 380 290 c 2
 420 290 l 2
 442 290 460 272 460 250 c 0
 460 228 442 210 420 210 c 2
 380 210 l 2
 358 210 340 228 340 250 c 0
240 350 m 0
 240 372 258 390 280 390 c 2
 320 390 l 2
 342 390 360 372 360 350 c 0
 360 328 342 310 320 310 c 2
 280 310 l 2
 258 310 240 328 240 350 c 0
140 450 m 0
 140 472 158 490 180 490 c 2
 220 490 l 2
 242 490 260 472 260 450 c 0
 260 428 242 410 220 410 c 2
 180 410 l 2
 158 410 140 428 140 450 c 0
40 550 m 0
 40 572 58 590 80 590 c 2
 120 590 l 2
 142 590 160 572 160 550 c 0
 160 528 142 510 120 510 c 2
 80 510 l 2
 58 510 40 528 40 550 c 0
EndSplineSet
EndChar

StartChar: bracketright
Encoding: 93 93 61
Width: 400
Flags: HMW
LayerCount: 2
Fore
SplineSet
40 50 m 0
 40 72 58 90 80 90 c 2
 320 90 l 2
 342 90 360 72 360 50 c 0
 360 28 342 10 320 10 c 2
 80 10 l 2
 58 10 40 28 40 50 c 0
240 150 m 0
 240 172 258 190 280 190 c 2
 320 190 l 2
 342 190 360 172 360 150 c 0
 360 128 342 110 320 110 c 2
 280 110 l 2
 258 110 240 128 240 150 c 0
240 250 m 0
 240 272 258 290 280 290 c 2
 320 290 l 2
 342 290 360 272 360 250 c 0
 360 228 342 210 320 210 c 2
 280 210 l 2
 258 210 240 228 240 250 c 0
240 350 m 0
 240 372 258 390 280 390 c 2
 320 390 l 2
 342 390 360 372 360 350 c 0
 360 328 342 310 320 310 c 2
 280 310 l 2
 258 310 240 328 240 350 c 0
240 450 m 0
 240 472 258 490 280 490 c 2
 320 490 l 2
 342 490 360 472 360 450 c 0
 360 428 342 410 320 410 c 2
 280 410 l 2
 258 410 240 428 240 450 c 0
240 550 m 0
 240 572 258 590 280 590 c 2
 320 590 l 2
 342 590 360 572 360 550 c 0
 360 528 342 510 320 510 c 2
 280 510 l 2
 258 510 240 528 240 550 c 0
40 650 m 0
 40 672 58 690 80 690 c 2
 320 690 l 2
 342 690 360 672 360 650 c 0
 360 628 342 610 320 610 c 2
 80 610 l 2
 58 610 40 628 40 650 c 0
EndSplineSet
EndChar

StartChar: asciicircum
Encoding: 94 94 62
Width: 600
Flags: HMW
LayerCount: 2
Fore
SplineSet
440 450 m 0
 440 472 458 490 480 490 c 2
 520 490 l 2
 542 490 560 472 560 450 c 0
 560 428 542 410 520 410 c 2
 480 410 l 2
 458 410 440 428 440 450 c 0
40 450 m 0
 40 472 58 490 80 490 c 2
 120 490 l 2
 142 490 160 472 160 450 c 0
 160 428 142 410 120 410 c 2
 80 410 l 2
 58 410 40 428 40 450 c 0
340 550 m 0
 340 572 358 590 380 590 c 2
 420 590 l 2
 442 590 460 572 460 550 c 0
 460 528 442 510 420 510 c 2
 380 510 l 2
 358 510 340 528 340 550 c 0
140 550 m 0
 140 572 158 590 180 590 c 2
 220 590 l 2
 242 590 260 572 260 550 c 0
 260 528 242 510 220 510 c 2
 180 510 l 2
 158 510 140 528 140 550 c 0
240 650 m 0
 240 672 258 690 280 690 c 2
 320 690 l 2
 342 690 360 672 360 650 c 0
 360 628 342 610 320 610 c 2
 280 610 l 2
 258 610 240 628 240 650 c 0
EndSplineSet
EndChar

StartChar: underscore
Encoding: 95 95 63
Width: 600
Flags: HMW
LayerCount: 2
Fore
SplineSet
-10 -50 m 0
 -10 -28 8 -10 30 -10 c 2
 70 -10 l 2
 81.914397696 -10 92.6556311568 -15.2792390584 100 -23.6140167927 c 1
 104.995191492 -17.9452096137 111.561735273 -13.6898610896 119 -11.547602563 c 1
 119 -10 l 1
 201 -10 l 1
 201 -22.5201542249 l 1
 205.857803824 -17.3976605348 212.048186509 -13.5497606299 219 -11.547602563 c 1
 219 -10 l 1
 301 -10 l 1
 301 -22.5201542249 l 1
 305.857803824 -17.3976605348 312.048186509 -13.5497606299 319 -11.547602563 c 1
 319 -10 l 1
 401 -10 l 1
 401 -22.5201542249 l 1
 405.857803824 -17.3976605348 412.048186509 -13.5497606299 419 -11.547602563 c 1
 419 -10 l 1
 501 -10 l 1
 501 -22.5201542249 l 1
 505.857803824 -17.3976605348 512.048186509 -13.5497606299 519 -11.547602563 c 1
 519 -10 l 1
 601 -10 l 1
 601 -24.793517631 l 1
 606.62032665 -31.6852931989 610 -40.4671273384 610 -50 c 0
 610 -59.5328726616 606.62032665 -68.3147068011 601 -75.206482369 c 1
 601 -90 l 1
 519 -90 l 1
 519 -88.452397437 l 1
 512.048186509 -86.4502393701 505.857803824 -82.6023394652 501 -77.4798457751 c 1
 501 -90 l 1
 419 -90 l 1
 419 -88.452397437 l 1
 412.048186509 -86.4502393701 405.857803824 -82.6023394652 401 -77.4798457751 c 1
 401 -90 l 1
 319 -90 l 1
 319 -88.452397437 l 1
 312.048186509 -86.4502393701 305.857803824 -82.6023394652 301 -77.4798457751 c 1
 301 -90 l 1
 219 -90 l 1
 219 -88.452397437 l 1
 212.048186509 -86.4502393701 205.857803824 -82.6023394652 201 -77.4798457751 c 1
 201 -90 l 1
 119 -90 l 1
 119 -88.452397437 l 1
 111.561735273 -86.3101389104 104.995191492 -82.0547903863 100 -76.3859832073 c 1
 92.6556311568 -84.7207609416 81.914397696 -90 70 -90 c 2
 30 -90 l 2
 8 -90 -10 -72 -10 -50 c 0
EndSplineSet
EndChar

StartChar: grave
Encoding: 96 96 64
Width: 300
Flags: HMW
LayerCount: 2
Fore
SplineSet
140 550 m 0
 140 572 158 590 180 590 c 2
 220 590 l 2
 242 590 260 572 260 550 c 0
 260 528 242 510 220 510 c 2
 180 510 l 2
 158 510 140 528 140 550 c 0
40 650 m 0
 40 672 58 690 80 690 c 2
 120 690 l 2
 142 690 160 672 160 650 c 0
 160 628 142 610 120 610 c 2
 80 610 l 2
 58 610 40 628 40 650 c 0
EndSplineSet
EndChar

StartChar: a
Encoding: 97 97 65
Width: 600
Flags: HMW
AnchorPoint: "ogonek" 400 0 basechar 0
AnchorPoint: "marks_below" 300 0 basechar 0
AnchorPoint: "marks_above" 300 600 basechar 0
LayerCount: 2
Fore
SplineSet
140 50 m 0
 140 72 158 90 180 90 c 2
 520 90 l 2
 542 90 560 72 560 50 c 0
 560 28 542 10 520 10 c 2
 180 10 l 2
 158 10 140 28 140 50 c 0
440 150 m 0
 440 172 458 190 480 190 c 2
 520 190 l 2
 542 190 560 172 560 150 c 0
 560 128 542 110 520 110 c 2
 480 110 l 2
 458 110 440 128 440 150 c 0
40 150 m 0
 40 172 58 190 80 190 c 2
 120 190 l 2
 142 190 160 172 160 150 c 0
 160 128 142 110 120 110 c 2
 80 110 l 2
 58 110 40 128 40 150 c 0
140 250 m 0
 140 272 158 290 180 290 c 2
 520 290 l 2
 542 290 560 272 560 250 c 0
 560 228 542 210 520 210 c 2
 180 210 l 2
 158 210 140 228 140 250 c 0
440 350 m 0
 440 372 458 390 480 390 c 2
 520 390 l 2
 542 390 560 372 560 350 c 0
 560 328 542 310 520 310 c 2
 480 310 l 2
 458 310 440 328 440 350 c 0
140 450 m 0
 140 472 158 490 180 490 c 2
 420 490 l 2
 442 490 460 472 460 450 c 0
 460 428 442 410 420 410 c 2
 180 410 l 2
 158 410 140 428 140 450 c 0
EndSplineSet
EndChar

StartChar: b
Encoding: 98 98 66
Width: 600
Flags: HMW
AnchorPoint: "marks_below" 300 0 basechar 0
AnchorPoint: "marks_above" 300 800 basechar 0
LayerCount: 2
Fore
SplineSet
240 50 m 0
 240 72 258 90 280 90 c 2
 420 90 l 2
 442 90 460 72 460 50 c 0
 460 28 442 10 420 10 c 2
 280 10 l 2
 258 10 240 28 240 50 c 0
40 50 m 0
 40 72 58 90 80 90 c 2
 120 90 l 2
 142 90 160 72 160 50 c 0
 160 28 142 10 120 10 c 2
 80 10 l 2
 58 10 40 28 40 50 c 0
440 150 m 0
 440 172 458 190 480 190 c 2
 520 190 l 2
 542 190 560 172 560 150 c 0
 560 128 542 110 520 110 c 2
 480 110 l 2
 458 110 440 128 440 150 c 0
40 150 m 0
 40 172 58 190 80 190 c 2
 220 190 l 2
 242 190 260 172 260 150 c 0
 260 128 242 110 220 110 c 2
 80 110 l 2
 58 110 40 128 40 150 c 0
440 250 m 0
 440 272 458 290 480 290 c 2
 520 290 l 2
 542 290 560 272 560 250 c 0
 560 228 542 210 520 210 c 2
 480 210 l 2
 458 210 440 228 440 250 c 0
40 250 m 0
 40 272 58 290 80 290 c 2
 120 290 l 2
 142 290 160 272 160 250 c 0
 160 228 142 210 120 210 c 2
 80 210 l 2
 58 210 40 228 40 250 c 0
440 350 m 0
 440 372 458 390 480 390 c 2
 520 390 l 2
 542 390 560 372 560 350 c 0
 560 328 542 310 520 310 c 2
 480 310 l 2
 458 310 440 328 440 350 c 0
40 350 m 0
 40 372 58 390 80 390 c 2
 220 390 l 2
 242 390 260 372 260 350 c 0
 260 328 242 310 220 310 c 2
 80 310 l 2
 58 310 40 328 40 350 c 0
240 450 m 0
 240 472 258 490 280 490 c 2
 420 490 l 2
 442 490 460 472 460 450 c 0
 460 428 442 410 420 410 c 2
 280 410 l 2
 258 410 240 428 240 450 c 0
40 450 m 0
 40 472 58 490 80 490 c 2
 120 490 l 2
 142 490 160 472 160 450 c 0
 160 428 142 410 120 410 c 2
 80 410 l 2
 58 410 40 428 40 450 c 0
40 550 m 0
 40 572 58 590 80 590 c 2
 120 590 l 2
 142 590 160 572 160 550 c 0
 160 528 142 510 120 510 c 2
 80 510 l 2
 58 510 40 528 40 550 c 0
40 650 m 0
 40 672 58 690 80 690 c 2
 120 690 l 2
 142 690 160 672 160 650 c 0
 160 628 142 610 120 610 c 2
 80 610 l 2
 58 610 40 628 40 650 c 0
EndSplineSet
EndChar

StartChar: c
Encoding: 99 99 67
Width: 600
Flags: HMW
AnchorPoint: "marks_below" 300 0 basechar 0
AnchorPoint: "marks_above" 300 600 basechar 0
LayerCount: 2
Fore
SplineSet
140 50 m 0
 140 72 158 90 180 90 c 2
 420 90 l 2
 442 90 460 72 460 50 c 0
 460 28 442 10 420 10 c 2
 180 10 l 2
 158 10 140 28 140 50 c 0
440 150 m 0
 440 172 458 190 480 190 c 2
 520 190 l 2
 542 190 560 172 560 150 c 0
 560 128 542 110 520 110 c 2
 480 110 l 2
 458 110 440 128 440 150 c 0
40 150 m 0
 40 172 58 190 80 190 c 2
 120 190 l 2
 142 190 160 172 160 150 c 0
 160 128 142 110 120 110 c 2
 80 110 l 2
 58 110 40 128 40 150 c 0
40 250 m 0
 40 272 58 290 80 290 c 2
 120 290 l 2
 142 290 160 272 160 250 c 0
 160 228 142 210 120 210 c 2
 80 210 l 2
 58 210 40 228 40 250 c 0
440 350 m 0
 440 372 458 390 480 390 c 2
 520 390 l 2
 542 390 560 372 560 350 c 0
 560 328 542 310 520 310 c 2
 480 310 l 2
 458 310 440 328 440 350 c 0
40 350 m 0
 40 372 58 390 80 390 c 2
 120 390 l 2
 142 390 160 372 160 350 c 0
 160 328 142 310 120 310 c 2
 80 310 l 2
 58 310 40 328 40 350 c 0
140 450 m 0
 140 472 158 490 180 490 c 2
 420 490 l 2
 442 490 460 472 460 450 c 0
 460 428 442 410 420 410 c 2
 180 410 l 2
 158 410 140 428 140 450 c 0
EndSplineSet
EndChar

StartChar: d
Encoding: 100 100 68
Width: 600
Flags: HMW
AnchorPoint: "marks_aboveright" 650 500 basechar 0
AnchorPoint: "marks_below" 300 0 basechar 0
AnchorPoint: "marks_above" 300 800 basechar 0
LayerCount: 2
Fore
SplineSet
440 50 m 0
 440 72 458 90 480 90 c 2
 520 90 l 2
 542 90 560 72 560 50 c 0
 560 28 542 10 520 10 c 2
 480 10 l 2
 458 10 440 28 440 50 c 0
140 50 m 0
 140 72 158 90 180 90 c 2
 320 90 l 2
 342 90 360 72 360 50 c 0
 360 28 342 10 320 10 c 2
 180 10 l 2
 158 10 140 28 140 50 c 0
340 150 m 0
 340 172 358 190 380 190 c 2
 520 190 l 2
 542 190 560 172 560 150 c 0
 560 128 542 110 520 110 c 2
 380 110 l 2
 358 110 340 128 340 150 c 0
40 150 m 0
 40 172 58 190 80 190 c 2
 120 190 l 2
 142 190 160 172 160 150 c 0
 160 128 142 110 120 110 c 2
 80 110 l 2
 58 110 40 128 40 150 c 0
440 250 m 0
 440 272 458 290 480 290 c 2
 520 290 l 2
 542 290 560 272 560 250 c 0
 560 228 542 210 520 210 c 2
 480 210 l 2
 458 210 440 228 440 250 c 0
40 250 m 0
 40 272 58 290 80 290 c 2
 120 290 l 2
 142 290 160 272 160 250 c 0
 160 228 142 210 120 210 c 2
 80 210 l 2
 58 210 40 228 40 250 c 0
340 350 m 0
 340 372 358 390 380 390 c 2
 520 390 l 2
 542 390 560 372 560 350 c 0
 560 328 542 310 520 310 c 2
 380 310 l 2
 358 310 340 328 340 350 c 0
40 350 m 0
 40 372 58 390 80 390 c 2
 120 390 l 2
 142 390 160 372 160 350 c 0
 160 328 142 310 120 310 c 2
 80 310 l 2
 58 310 40 328 40 350 c 0
440 450 m 0
 440 472 458 490 480 490 c 2
 520 490 l 2
 542 490 560 472 560 450 c 0
 560 428 542 410 520 410 c 2
 480 410 l 2
 458 410 440 428 440 450 c 0
140 450 m 0
 140 472 158 490 180 490 c 2
 320 490 l 2
 342 490 360 472 360 450 c 0
 360 428 342 410 320 410 c 2
 180 410 l 2
 158 410 140 428 140 450 c 0
440 550 m 0
 440 572 458 590 480 590 c 2
 520 590 l 2
 542 590 560 572 560 550 c 0
 560 528 542 510 520 510 c 2
 480 510 l 2
 458 510 440 528 440 550 c 0
440 650 m 0
 440 672 458 690 480 690 c 2
 520 690 l 2
 542 690 560 672 560 650 c 0
 560 628 542 610 520 610 c 2
 480 610 l 2
 458 610 440 628 440 650 c 0
EndSplineSet
EndChar

StartChar: e
Encoding: 101 101 69
Width: 600
Flags: HMW
AnchorPoint: "ogonek" 400 0 basechar 0
AnchorPoint: "marks_below" 300 0 basechar 0
AnchorPoint: "marks_above" 300 600 basechar 0
LayerCount: 2
Fore
SplineSet
140 50 m 0
 140 72 158 90 180 90 c 2
 420 90 l 2
 442 90 460 72 460 50 c 0
 460 28 442 10 420 10 c 2
 180 10 l 2
 158 10 140 28 140 50 c 0
40 150 m 0
 40 172 58 190 80 190 c 2
 120 190 l 2
 142 190 160 172 160 150 c 0
 160 128 142 110 120 110 c 2
 80 110 l 2
 58 110 40 128 40 150 c 0
40 250 m 0
 40 272 58 290 80 290 c 2
 520 290 l 2
 542 290 560 272 560 250 c 0
 560 228 542 210 520 210 c 2
 80 210 l 2
 58 210 40 228 40 250 c 0
440 350 m 0
 440 372 458 390 480 390 c 2
 520 390 l 2
 542 390 560 372 560 350 c 0
 560 328 542 310 520 310 c 2
 480 310 l 2
 458 310 440 328 440 350 c 0
40 350 m 0
 40 372 58 390 80 390 c 2
 120 390 l 2
 142 390 160 372 160 350 c 0
 160 328 142 310 120 310 c 2
 80 310 l 2
 58 310 40 328 40 350 c 0
140 450 m 0
 140 472 158 490 180 490 c 2
 420 490 l 2
 442 490 460 472 460 450 c 0
 460 428 442 410 420 410 c 2
 180 410 l 2
 158 410 140 428 140 450 c 0
EndSplineSet
EndChar

StartChar: f
Encoding: 102 102 70
Width: 600
Flags: HMW
AnchorPoint: "marks_below" 300 0 basechar 0
AnchorPoint: "marks_above" 300 800 basechar 0
LayerCount: 2
Fore
SplineSet
140 50 m 0
 140 72 158 90 180 90 c 2
 220 90 l 2
 242 90 260 72 260 50 c 0
 260 28 242 10 220 10 c 2
 180 10 l 2
 158 10 140 28 140 50 c 0
140 150 m 0
 140 172 158 190 180 190 c 2
 220 190 l 2
 242 190 260 172 260 150 c 0
 260 128 242 110 220 110 c 2
 180 110 l 2
 158 110 140 128 140 150 c 0
140 250 m 0
 140 272 158 290 180 290 c 2
 220 290 l 2
 242 290 260 272 260 250 c 0
 260 228 242 210 220 210 c 2
 180 210 l 2
 158 210 140 228 140 250 c 0
40 350 m 0
 40 372 58 390 80 390 c 2
 420 390 l 2
 442 390 460 372 460 350 c 0
 460 328 442 310 420 310 c 2
 80 310 l 2
 58 310 40 328 40 350 c 0
140 450 m 0
 140 472 158 490 180 490 c 2
 220 490 l 2
 242 490 260 472 260 450 c 0
 260 428 242 410 220 410 c 2
 180 410 l 2
 158 410 140 428 140 450 c 0
440 550 m 0
 440 572 458 590 480 590 c 2
 520 590 l 2
 542 590 560 572 560 550 c 0
 560 528 542 510 520 510 c 2
 480 510 l 2
 458 510 440 528 440 550 c 0
140 550 m 0
 140 572 158 590 180 590 c 2
 220 590 l 2
 242 590 260 572 260 550 c 0
 260 528 242 510 220 510 c 2
 180 510 l 2
 158 510 140 528 140 550 c 0
240 650 m 0
 240 672 258 690 280 690 c 2
 420 690 l 2
 442 690 460 672 460 650 c 0
 460 628 442 610 420 610 c 2
 280 610 l 2
 258 610 240 628 240 650 c 0
EndSplineSet
EndChar

StartChar: g
Encoding: 103 103 71
Width: 600
Flags: HMW
AnchorPoint: "marks_above" 300 600 basechar 0
LayerCount: 2
Fore
SplineSet
140 -150 m 0
 140 -128 158 -110 180 -110 c 2
 420 -110 l 2
 442 -110 460 -128 460 -150 c 0
 460 -172 442 -190 420 -190 c 2
 180 -190 l 2
 158 -190 140 -172 140 -150 c 0
440 -50 m 0
 440 -28 458 -10 480 -10 c 2
 520 -10 l 2
 542 -10 560 -28 560 -50 c 0
 560 -72 542 -90 520 -90 c 2
 480 -90 l 2
 458 -90 440 -72 440 -50 c 0
440 50 m 0
 440 72 458 90 480 90 c 2
 520 90 l 2
 542 90 560 72 560 50 c 0
 560 28 542 10 520 10 c 2
 480 10 l 2
 458 10 440 28 440 50 c 0
140 50 m 0
 140 72 158 90 180 90 c 2
 320 90 l 2
 342 90 360 72 360 50 c 0
 360 28 342 10 320 10 c 2
 180 10 l 2
 158 10 140 28 140 50 c 0
340 150 m 0
 340 172 358 190 380 190 c 2
 520 190 l 2
 542 190 560 172 560 150 c 0
 560 128 542 110 520 110 c 2
 380 110 l 2
 358 110 340 128 340 150 c 0
40 150 m 0
 40 172 58 190 80 190 c 2
 120 190 l 2
 142 190 160 172 160 150 c 0
 160 128 142 110 120 110 c 2
 80 110 l 2
 58 110 40 128 40 150 c 0
440 250 m 0
 440 272 458 290 480 290 c 2
 520 290 l 2
 542 290 560 272 560 250 c 0
 560 228 542 210 520 210 c 2
 480 210 l 2
 458 210 440 228 440 250 c 0
40 250 m 0
 40 272 58 290 80 290 c 2
 120 290 l 2
 142 290 160 272 160 250 c 0
 160 228 142 210 120 210 c 2
 80 210 l 2
 58 210 40 228 40 250 c 0
340 350 m 0
 340 372 358 390 380 390 c 2
 520 390 l 2
 542 390 560 372 560 350 c 0
 560 328 542 310 520 310 c 2
 380 310 l 2
 358 310 340 328 340 350 c 0
40 350 m 0
 40 372 58 390 80 390 c 2
 120 390 l 2
 142 390 160 372 160 350 c 0
 160 328 142 310 120 310 c 2
 80 310 l 2
 58 310 40 328 40 350 c 0
440 450 m 0
 440 472 458 490 480 490 c 2
 520 490 l 2
 542 490 560 472 560 450 c 0
 560 428 542 410 520 410 c 2
 480 410 l 2
 458 410 440 428 440 450 c 0
140 450 m 0
 140 472 158 490 180 490 c 2
 320 490 l 2
 342 490 360 472 360 450 c 0
 360 428 342 410 320 410 c 2
 180 410 l 2
 158 410 140 428 140 450 c 0
EndSplineSet
EndChar

StartChar: h
Encoding: 104 104 72
Width: 600
Flags: HMW
AnchorPoint: "marks_below" 300 0 basechar 0
AnchorPoint: "marks_above" 300 800 basechar 0
LayerCount: 2
Fore
SplineSet
440 50 m 0
 440 72 458 90 480 90 c 2
 520 90 l 2
 542 90 560 72 560 50 c 0
 560 28 542 10 520 10 c 2
 480 10 l 2
 458 10 440 28 440 50 c 0
40 50 m 0
 40 72 58 90 80 90 c 2
 120 90 l 2
 142 90 160 72 160 50 c 0
 160 28 142 10 120 10 c 2
 80 10 l 2
 58 10 40 28 40 50 c 0
440 150 m 0
 440 172 458 190 480 190 c 2
 520 190 l 2
 542 190 560 172 560 150 c 0
 560 128 542 110 520 110 c 2
 480 110 l 2
 458 110 440 128 440 150 c 0
40 150 m 0
 40 172 58 190 80 190 c 2
 120 190 l 2
 142 190 160 172 160 150 c 0
 160 128 142 110 120 110 c 2
 80 110 l 2
 58 110 40 128 40 150 c 0
440 250 m 0
 440 272 458 290 480 290 c 2
 520 290 l 2
 542 290 560 272 560 250 c 0
 560 228 542 210 520 210 c 2
 480 210 l 2
 458 210 440 228 440 250 c 0
40 250 m 0
 40 272 58 290 80 290 c 2
 120 290 l 2
 142 290 160 272 160 250 c 0
 160 228 142 210 120 210 c 2
 80 210 l 2
 58 210 40 228 40 250 c 0
440 350 m 0
 440 372 458 390 480 390 c 2
 520 390 l 2
 542 390 560 372 560 350 c 0
 560 328 542 310 520 310 c 2
 480 310 l 2
 458 310 440 328 440 350 c 0
40 350 m 0
 40 372 58 390 80 390 c 2
 220 390 l 2
 242 390 260 372 260 350 c 0
 260 328 242 310 220 310 c 2
 80 310 l 2
 58 310 40 328 40 350 c 0
240 450 m 0
 240 472 258 490 280 490 c 2
 420 490 l 2
 442 490 460 472 460 450 c 0
 460 428 442 410 420 410 c 2
 280 410 l 2
 258 410 240 428 240 450 c 0
40 450 m 0
 40 472 58 490 80 490 c 2
 120 490 l 2
 142 490 160 472 160 450 c 0
 160 428 142 410 120 410 c 2
 80 410 l 2
 58 410 40 428 40 450 c 0
40 550 m 0
 40 572 58 590 80 590 c 2
 120 590 l 2
 142 590 160 572 160 550 c 0
 160 528 142 510 120 510 c 2
 80 510 l 2
 58 510 40 528 40 550 c 0
40 650 m 0
 40 672 58 690 80 690 c 2
 120 690 l 2
 142 690 160 672 160 650 c 0
 160 628 142 610 120 610 c 2
 80 610 l 2
 58 610 40 628 40 650 c 0
EndSplineSet
EndChar

StartChar: i
Encoding: 105 105 73
Width: 400
Flags: HMW
AnchorPoint: "marks_below" 200 0 basechar 0
AnchorPoint: "ogonek" 200 0 basechar 0
AnchorPoint: "marks_above" 200 800 basechar 0
LayerCount: 2
Fore
SplineSet
40 50 m 0
 40 72 58 90 80 90 c 2
 320 90 l 2
 342 90 360 72 360 50 c 0
 360 28 342 10 320 10 c 2
 80 10 l 2
 58 10 40 28 40 50 c 0
140 150 m 0
 140 172 158 190 180 190 c 2
 220 190 l 2
 242 190 260 172 260 150 c 0
 260 128 242 110 220 110 c 2
 180 110 l 2
 158 110 140 128 140 150 c 0
140 250 m 0
 140 272 158 290 180 290 c 2
 220 290 l 2
 242 290 260 272 260 250 c 0
 260 228 242 210 220 210 c 2
 180 210 l 2
 158 210 140 228 140 250 c 0
140 350 m 0
 140 372 158 390 180 390 c 2
 220 390 l 2
 242 390 260 372 260 350 c 0
 260 328 242 310 220 310 c 2
 180 310 l 2
 158 310 140 328 140 350 c 0
40 450 m 0
 40 472 58 490 80 490 c 2
 220 490 l 2
 242 490 260 472 260 450 c 0
 260 428 242 410 220 410 c 2
 80 410 l 2
 58 410 40 428 40 450 c 0
140 650 m 0
 140 672 158 690 180 690 c 2
 220 690 l 2
 242 690 260 672 260 650 c 0
 260 628 242 610 220 610 c 2
 180 610 l 2
 158 610 140 628 140 650 c 0
EndSplineSet
EndChar

StartChar: j
Encoding: 106 106 74
Width: 500
Flags: HMW
LayerCount: 2
Fore
SplineSet
140 -150 m 0
 140 -128 158 -110 180 -110 c 2
 320 -110 l 2
 342 -110 360 -128 360 -150 c 0
 360 -172 342 -190 320 -190 c 2
 180 -190 l 2
 158 -190 140 -172 140 -150 c 0
340 -50 m 0
 340 -28 358 -10 380 -10 c 2
 420 -10 l 2
 442 -10 460 -28 460 -50 c 0
 460 -72 442 -90 420 -90 c 2
 380 -90 l 2
 358 -90 340 -72 340 -50 c 0
40 -50 m 0
 40 -28 58 -10 80 -10 c 2
 120 -10 l 2
 142 -10 160 -28 160 -50 c 0
 160 -72 142 -90 120 -90 c 2
 80 -90 l 2
 58 -90 40 -72 40 -50 c 0
340 50 m 0
 340 72 358 90 380 90 c 2
 420 90 l 2
 442 90 460 72 460 50 c 0
 460 28 442 10 420 10 c 2
 380 10 l 2
 358 10 340 28 340 50 c 0
340 150 m 0
 340 172 358 190 380 190 c 2
 420 190 l 2
 442 190 460 172 460 150 c 0
 460 128 442 110 420 110 c 2
 380 110 l 2
 358 110 340 128 340 150 c 0
340 250 m 0
 340 272 358 290 380 290 c 2
 420 290 l 2
 442 290 460 272 460 250 c 0
 460 228 442 210 420 210 c 2
 380 210 l 2
 358 210 340 228 340 250 c 0
340 350 m 0
 340 372 358 390 380 390 c 2
 420 390 l 2
 442 390 460 372 460 350 c 0
 460 328 442 310 420 310 c 2
 380 310 l 2
 358 310 340 328 340 350 c 0
240 450 m 0
 240 472 258 490 280 490 c 2
 420 490 l 2
 442 490 460 472 460 450 c 0
 460 428 442 410 420 410 c 2
 280 410 l 2
 258 410 240 428 240 450 c 0
340 650 m 0
 340 672 358 690 380 690 c 2
 420 690 l 2
 442 690 460 672 460 650 c 0
 460 628 442 610 420 610 c 2
 380 610 l 2
 358 610 340 628 340 650 c 0
EndSplineSet
EndChar

StartChar: k
Encoding: 107 107 75
Width: 600
Flags: HMW
AnchorPoint: "marks_below" 300 0 basechar 0
AnchorPoint: "marks_above" 300 800 basechar 0
LayerCount: 2
Fore
SplineSet
440 50 m 0
 440 72 458 90 480 90 c 2
 520 90 l 2
 542 90 560 72 560 50 c 0
 560 28 542 10 520 10 c 2
 480 10 l 2
 458 10 440 28 440 50 c 0
40 50 m 0
 40 72 58 90 80 90 c 2
 120 90 l 2
 142 90 160 72 160 50 c 0
 160 28 142 10 120 10 c 2
 80 10 l 2
 58 10 40 28 40 50 c 0
340 150 m 0
 340 172 358 190 380 190 c 2
 420 190 l 2
 442 190 460 172 460 150 c 0
 460 128 442 110 420 110 c 2
 380 110 l 2
 358 110 340 128 340 150 c 0
40 150 m 0
 40 172 58 190 80 190 c 2
 120 190 l 2
 142 190 160 172 160 150 c 0
 160 128 142 110 120 110 c 2
 80 110 l 2
 58 110 40 128 40 150 c 0
40 250 m 0
 40 272 58 290 80 290 c 2
 320 290 l 2
 342 290 360 272 360 250 c 0
 360 228 342 210 320 210 c 2
 80 210 l 2
 58 210 40 228 40 250 c 0
340 350 m 0
 340 372 358 390 380 390 c 2
 420 390 l 2
 442 390 460 372 460 350 c 0
 460 328 442 310 420 310 c 2
 380 310 l 2
 358 310 340 328 340 350 c 0
40 350 m 0
 40 372 58 390 80 390 c 2
 120 390 l 2
 142 390 160 372 160 350 c 0
 160 328 142 310 120 310 c 2
 80 310 l 2
 58 310 40 328 40 350 c 0
440 450 m 0
 440 472 458 490 480 490 c 2
 520 490 l 2
 542 490 560 472 560 450 c 0
 560 428 542 410 520 410 c 2
 480 410 l 2
 458 410 440 428 440 450 c 0
40 450 m 0
 40 472 58 490 80 490 c 2
 120 490 l 2
 142 490 160 472 160 450 c 0
 160 428 142 410 120 410 c 2
 80 410 l 2
 58 410 40 428 40 450 c 0
40 550 m 0
 40 572 58 590 80 590 c 2
 120 590 l 2
 142 590 160 572 160 550 c 0
 160 528 142 510 120 510 c 2
 80 510 l 2
 58 510 40 528 40 550 c 0
40 650 m 0
 40 672 58 690 80 690 c 2
 120 690 l 2
 142 690 160 672 160 650 c 0
 160 628 142 610 120 610 c 2
 80 610 l 2
 58 610 40 628 40 650 c 0
EndSplineSet
EndChar

StartChar: l
Encoding: 108 108 76
Width: 400
Flags: HMW
AnchorPoint: "marks_aboveright" 350 500 basechar 0
AnchorPoint: "marks_below" 200 0 basechar 0
AnchorPoint: "ogonek" 200 0 basechar 0
AnchorPoint: "marks_above" 200 800 basechar 0
LayerCount: 2
Fore
SplineSet
40 50 m 0
 40 72 58 90 80 90 c 2
 320 90 l 2
 342 90 360 72 360 50 c 0
 360 28 342 10 320 10 c 2
 80 10 l 2
 58 10 40 28 40 50 c 0
140 150 m 0
 140 172 158 190 180 190 c 2
 220 190 l 2
 242 190 260 172 260 150 c 0
 260 128 242 110 220 110 c 2
 180 110 l 2
 158 110 140 128 140 150 c 0
140 250 m 0
 140 272 158 290 180 290 c 2
 220 290 l 2
 242 290 260 272 260 250 c 0
 260 228 242 210 220 210 c 2
 180 210 l 2
 158 210 140 228 140 250 c 0
140 350 m 0
 140 372 158 390 180 390 c 2
 220 390 l 2
 242 390 260 372 260 350 c 0
 260 328 242 310 220 310 c 2
 180 310 l 2
 158 310 140 328 140 350 c 0
140 450 m 0
 140 472 158 490 180 490 c 2
 220 490 l 2
 242 490 260 472 260 450 c 0
 260 428 242 410 220 410 c 2
 180 410 l 2
 158 410 140 428 140 450 c 0
140 550 m 0
 140 572 158 590 180 590 c 2
 220 590 l 2
 242 590 260 572 260 550 c 0
 260 528 242 510 220 510 c 2
 180 510 l 2
 158 510 140 528 140 550 c 0
40 650 m 0
 40 672 58 690 80 690 c 2
 220 690 l 2
 242 690 260 672 260 650 c 0
 260 628 242 610 220 610 c 2
 80 610 l 2
 58 610 40 628 40 650 c 0
EndSplineSet
EndChar

StartChar: m
Encoding: 109 109 77
Width: 600
Flags: HMW
AnchorPoint: "marks_below" 300 0 basechar 0
AnchorPoint: "marks_above" 300 600 basechar 0
LayerCount: 2
Fore
SplineSet
440 50 m 0
 440 72 458 90 480 90 c 2
 520 90 l 2
 542 90 560 72 560 50 c 0
 560 28 542 10 520 10 c 2
 480 10 l 2
 458 10 440 28 440 50 c 0
40 50 m 0
 40 72 58 90 80 90 c 2
 120 90 l 2
 142 90 160 72 160 50 c 0
 160 28 142 10 120 10 c 2
 80 10 l 2
 58 10 40 28 40 50 c 0
440 150 m 0
 440 172 458 190 480 190 c 2
 520 190 l 2
 542 190 560 172 560 150 c 0
 560 128 542 110 520 110 c 2
 480 110 l 2
 458 110 440 128 440 150 c 0
240 150 m 0
 240 172 258 190 280 190 c 2
 320 190 l 2
 342 190 360 172 360 150 c 0
 360 128 342 110 320 110 c 2
 280 110 l 2
 258 110 240 128 240 150 c 0
40 150 m 0
 40 172 58 190 80 190 c 2
 120 190 l 2
 142 190 160 172 160 150 c 0
 160 128 142 110 120 110 c 2
 80 110 l 2
 58 110 40 128 40 150 c 0
440 250 m 0
 440 272 458 290 480 290 c 2
 520 290 l 2
 542 290 560 272 560 250 c 0
 560 228 542 210 520 210 c 2
 480 210 l 2
 458 210 440 228 440 250 c 0
240 250 m 0
 240 272 258 290 280 290 c 2
 320 290 l 2
 342 290 360 272 360 250 c 0
 360 228 342 210 320 210 c 2
 280 210 l 2
 258 210 240 228 240 250 c 0
40 250 m 0
 40 272 58 290 80 290 c 2
 120 290 l 2
 142 290 160 272 160 250 c 0
 160 228 142 210 120 210 c 2
 80 210 l 2
 58 210 40 228 40 250 c 0
440 350 m 0
 440 372 458 390 480 390 c 2
 520 390 l 2
 542 390 560 372 560 350 c 0
 560 328 542 310 520 310 c 2
 480 310 l 2
 458 310 440 328 440 350 c 0
240 350 m 0
 240 372 258 390 280 390 c 2
 320 390 l 2
 342 390 360 372 360 350 c 0
 360 328 342 310 320 310 c 2
 280 310 l 2
 258 310 240 328 240 350 c 0
40 350 m 0
 40 372 58 390 80 390 c 2
 120 390 l 2
 142 390 160 372 160 350 c 0
 160 328 142 310 120 310 c 2
 80 310 l 2
 58 310 40 328 40 350 c 0
340 450 m 0
 340 472 358 490 380 490 c 2
 420 490 l 2
 442 490 460 472 460 450 c 0
 460 428 442 410 420 410 c 2
 380 410 l 2
 358 410 340 428 340 450 c 0
40 450 m 0
 40 472 58 490 80 490 c 2
 220 490 l 2
 242 490 260 472 260 450 c 0
 260 428 242 410 220 410 c 2
 80 410 l 2
 58 410 40 428 40 450 c 0
EndSplineSet
EndChar

StartChar: n
Encoding: 110 110 78
Width: 600
Flags: HMW
AnchorPoint: "marks_below" 300 0 basechar 0
AnchorPoint: "marks_above" 300 600 basechar 0
LayerCount: 2
Fore
SplineSet
440 50 m 0
 440 72 458 90 480 90 c 2
 520 90 l 2
 542 90 560 72 560 50 c 0
 560 28 542 10 520 10 c 2
 480 10 l 2
 458 10 440 28 440 50 c 0
40 50 m 0
 40 72 58 90 80 90 c 2
 120 90 l 2
 142 90 160 72 160 50 c 0
 160 28 142 10 120 10 c 2
 80 10 l 2
 58 10 40 28 40 50 c 0
440 150 m 0
 440 172 458 190 480 190 c 2
 520 190 l 2
 542 190 560 172 560 150 c 0
 560 128 542 110 520 110 c 2
 480 110 l 2
 458 110 440 128 440 150 c 0
40 150 m 0
 40 172 58 190 80 190 c 2
 120 190 l 2
 142 190 160 172 160 150 c 0
 160 128 142 110 120 110 c 2
 80 110 l 2
 58 110 40 128 40 150 c 0
440 250 m 0
 440 272 458 290 480 290 c 2
 520 290 l 2
 542 290 560 272 560 250 c 0
 560 228 542 210 520 210 c 2
 480 210 l 2
 458 210 440 228 440 250 c 0
40 250 m 0
 40 272 58 290 80 290 c 2
 120 290 l 2
 142 290 160 272 160 250 c 0
 160 228 142 210 120 210 c 2
 80 210 l 2
 58 210 40 228 40 250 c 0
440 350 m 0
 440 372 458 390 480 390 c 2
 520 390 l 2
 542 390 560 372 560 350 c 0
 560 328 542 310 520 310 c 2
 480 310 l 2
 458 310 440 328 440 350 c 0
40 350 m 0
 40 372 58 390 80 390 c 2
 220 390 l 2
 242 390 260 372 260 350 c 0
 260 328 242 310 220 310 c 2
 80 310 l 2
 58 310 40 328 40 350 c 0
240 450 m 0
 240 472 258 490 280 490 c 2
 420 490 l 2
 442 490 460 472 460 450 c 0
 460 428 442 410 420 410 c 2
 280 410 l 2
 258 410 240 428 240 450 c 0
40 450 m 0
 40 472 58 490 80 490 c 2
 120 490 l 2
 142 490 160 472 160 450 c 0
 160 428 142 410 120 410 c 2
 80 410 l 2
 58 410 40 428 40 450 c 0
EndSplineSet
EndChar

StartChar: o
Encoding: 111 111 79
Width: 600
Flags: HMW
AnchorPoint: "marks_below" 300 0 basechar 0
AnchorPoint: "marks_above" 300 600 basechar 0
LayerCount: 2
Fore
SplineSet
140 50 m 0
 140 72 158 90 180 90 c 2
 420 90 l 2
 442 90 460 72 460 50 c 0
 460 28 442 10 420 10 c 2
 180 10 l 2
 158 10 140 28 140 50 c 0
440 150 m 0
 440 172 458 190 480 190 c 2
 520 190 l 2
 542 190 560 172 560 150 c 0
 560 128 542 110 520 110 c 2
 480 110 l 2
 458 110 440 128 440 150 c 0
40 150 m 0
 40 172 58 190 80 190 c 2
 120 190 l 2
 142 190 160 172 160 150 c 0
 160 128 142 110 120 110 c 2
 80 110 l 2
 58 110 40 128 40 150 c 0
440 250 m 0
 440 272 458 290 480 290 c 2
 520 290 l 2
 542 290 560 272 560 250 c 0
 560 228 542 210 520 210 c 2
 480 210 l 2
 458 210 440 228 440 250 c 0
40 250 m 0
 40 272 58 290 80 290 c 2
 120 290 l 2
 142 290 160 272 160 250 c 0
 160 228 142 210 120 210 c 2
 80 210 l 2
 58 210 40 228 40 250 c 0
440 350 m 0
 440 372 458 390 480 390 c 2
 520 390 l 2
 542 390 560 372 560 350 c 0
 560 328 542 310 520 310 c 2
 480 310 l 2
 458 310 440 328 440 350 c 0
40 350 m 0
 40 372 58 390 80 390 c 2
 120 390 l 2
 142 390 160 372 160 350 c 0
 160 328 142 310 120 310 c 2
 80 310 l 2
 58 310 40 328 40 350 c 0
140 450 m 0
 140 472 158 490 180 490 c 2
 420 490 l 2
 442 490 460 472 460 450 c 0
 460 428 442 410 420 410 c 2
 180 410 l 2
 158 410 140 428 140 450 c 0
EndSplineSet
EndChar

StartChar: p
Encoding: 112 112 80
Width: 600
Flags: HMW
AnchorPoint: "marks_above" 300 600 basechar 0
LayerCount: 2
Fore
SplineSet
40 -150 m 0
 40 -128 58 -110 80 -110 c 2
 120 -110 l 2
 142 -110 160 -128 160 -150 c 0
 160 -172 142 -190 120 -190 c 2
 80 -190 l 2
 58 -190 40 -172 40 -150 c 0
40 -50 m 0
 40 -28 58 -10 80 -10 c 2
 120 -10 l 2
 142 -10 160 -28 160 -50 c 0
 160 -72 142 -90 120 -90 c 2
 80 -90 l 2
 58 -90 40 -72 40 -50 c 0
240 50 m 0
 240 72 258 90 280 90 c 2
 420 90 l 2
 442 90 460 72 460 50 c 0
 460 28 442 10 420 10 c 2
 280 10 l 2
 258 10 240 28 240 50 c 0
40 50 m 0
 40 72 58 90 80 90 c 2
 120 90 l 2
 142 90 160 72 160 50 c 0
 160 28 142 10 120 10 c 2
 80 10 l 2
 58 10 40 28 40 50 c 0
440 150 m 0
 440 172 458 190 480 190 c 2
 520 190 l 2
 542 190 560 172 560 150 c 0
 560 128 542 110 520 110 c 2
 480 110 l 2
 458 110 440 128 440 150 c 0
40 150 m 0
 40 172 58 190 80 190 c 2
 220 190 l 2
 242 190 260 172 260 150 c 0
 260 128 242 110 220 110 c 2
 80 110 l 2
 58 110 40 128 40 150 c 0
440 250 m 0
 440 272 458 290 480 290 c 2
 520 290 l 2
 542 290 560 272 560 250 c 0
 560 228 542 210 520 210 c 2
 480 210 l 2
 458 210 440 228 440 250 c 0
40 250 m 0
 40 272 58 290 80 290 c 2
 120 290 l 2
 142 290 160 272 160 250 c 0
 160 228 142 210 120 210 c 2
 80 210 l 2
 58 210 40 228 40 250 c 0
440 350 m 0
 440 372 458 390 480 390 c 2
 520 390 l 2
 542 390 560 372 560 350 c 0
 560 328 542 310 520 310 c 2
 480 310 l 2
 458 310 440 328 440 350 c 0
40 350 m 0
 40 372 58 390 80 390 c 2
 220 390 l 2
 242 390 260 372 260 350 c 0
 260 328 242 310 220 310 c 2
 80 310 l 2
 58 310 40 328 40 350 c 0
240 450 m 0
 240 472 258 490 280 490 c 2
 420 490 l 2
 442 490 460 472 460 450 c 0
 460 428 442 410 420 410 c 2
 280 410 l 2
 258 410 240 428 240 450 c 0
40 450 m 0
 40 472 58 490 80 490 c 2
 120 490 l 2
 142 490 160 472 160 450 c 0
 160 428 142 410 120 410 c 2
 80 410 l 2
 58 410 40 428 40 450 c 0
EndSplineSet
EndChar

StartChar: q
Encoding: 113 113 81
Width: 600
Flags: HMW
AnchorPoint: "marks_above" 300 600 basechar 0
LayerCount: 2
Fore
SplineSet
440 -150 m 0
 440 -128 458 -110 480 -110 c 2
 520 -110 l 2
 542 -110 560 -128 560 -150 c 0
 560 -172 542 -190 520 -190 c 2
 480 -190 l 2
 458 -190 440 -172 440 -150 c 0
440 -50 m 0
 440 -28 458 -10 480 -10 c 2
 520 -10 l 2
 542 -10 560 -28 560 -50 c 0
 560 -72 542 -90 520 -90 c 2
 480 -90 l 2
 458 -90 440 -72 440 -50 c 0
440 50 m 0
 440 72 458 90 480 90 c 2
 520 90 l 2
 542 90 560 72 560 50 c 0
 560 28 542 10 520 10 c 2
 480 10 l 2
 458 10 440 28 440 50 c 0
140 50 m 0
 140 72 158 90 180 90 c 2
 320 90 l 2
 342 90 360 72 360 50 c 0
 360 28 342 10 320 10 c 2
 180 10 l 2
 158 10 140 28 140 50 c 0
340 150 m 0
 340 172 358 190 380 190 c 2
 520 190 l 2
 542 190 560 172 560 150 c 0
 560 128 542 110 520 110 c 2
 380 110 l 2
 358 110 340 128 340 150 c 0
40 150 m 0
 40 172 58 190 80 190 c 2
 120 190 l 2
 142 190 160 172 160 150 c 0
 160 128 142 110 120 110 c 2
 80 110 l 2
 58 110 40 128 40 150 c 0
440 250 m 0
 440 272 458 290 480 290 c 2
 520 290 l 2
 542 290 560 272 560 250 c 0
 560 228 542 210 520 210 c 2
 480 210 l 2
 458 210 440 228 440 250 c 0
40 250 m 0
 40 272 58 290 80 290 c 2
 120 290 l 2
 142 290 160 272 160 250 c 0
 160 228 142 210 120 210 c 2
 80 210 l 2
 58 210 40 228 40 250 c 0
340 350 m 0
 340 372 358 390 380 390 c 2
 520 390 l 2
 542 390 560 372 560 350 c 0
 560 328 542 310 520 310 c 2
 380 310 l 2
 358 310 340 328 340 350 c 0
40 350 m 0
 40 372 58 390 80 390 c 2
 120 390 l 2
 142 390 160 372 160 350 c 0
 160 328 142 310 120 310 c 2
 80 310 l 2
 58 310 40 328 40 350 c 0
440 450 m 0
 440 472 458 490 480 490 c 2
 520 490 l 2
 542 490 560 472 560 450 c 0
 560 428 542 410 520 410 c 2
 480 410 l 2
 458 410 440 428 440 450 c 0
140 450 m 0
 140 472 158 490 180 490 c 2
 320 490 l 2
 342 490 360 472 360 450 c 0
 360 428 342 410 320 410 c 2
 180 410 l 2
 158 410 140 428 140 450 c 0
EndSplineSet
EndChar

StartChar: r
Encoding: 114 114 82
Width: 600
Flags: HMW
AnchorPoint: "marks_below" 300 0 basechar 0
AnchorPoint: "marks_above" 300 600 basechar 0
LayerCount: 2
Fore
SplineSet
40 50 m 0
 40 72 58 90 80 90 c 2
 120 90 l 2
 142 90 160 72 160 50 c 0
 160 28 142 10 120 10 c 2
 80 10 l 2
 58 10 40 28 40 50 c 0
40 150 m 0
 40 172 58 190 80 190 c 2
 120 190 l 2
 142 190 160 172 160 150 c 0
 160 128 142 110 120 110 c 2
 80 110 l 2
 58 110 40 128 40 150 c 0
40 250 m 0
 40 272 58 290 80 290 c 2
 120 290 l 2
 142 290 160 272 160 250 c 0
 160 228 142 210 120 210 c 2
 80 210 l 2
 58 210 40 228 40 250 c 0
440 350 m 0
 440 372 458 390 480 390 c 2
 520 390 l 2
 542 390 560 372 560 350 c 0
 560 328 542 310 520 310 c 2
 480 310 l 2
 458 310 440 328 440 350 c 0
40 350 m 0
 40 372 58 390 80 390 c 2
 220 390 l 2
 242 390 260 372 260 350 c 0
 260 328 242 310 220 310 c 2
 80 310 l 2
 58 310 40 328 40 350 c 0
240 450 m 0
 240 472 258 490 280 490 c 2
 420 490 l 2
 442 490 460 472 460 450 c 0
 460 428 442 410 420 410 c 2
 280 410 l 2
 258 410 240 428 240 450 c 0
40 450 m 0
 40 472 58 490 80 490 c 2
 120 490 l 2
 142 490 160 472 160 450 c 0
 160 428 142 410 120 410 c 2
 80 410 l 2
 58 410 40 428 40 450 c 0
EndSplineSet
EndChar

StartChar: s
Encoding: 115 115 83
Width: 600
Flags: HMW
AnchorPoint: "marks_below" 300 0 basechar 0
AnchorPoint: "marks_above" 300 600 basechar 0
LayerCount: 2
Fore
SplineSet
40 50 m 0
 40 72 58 90 80 90 c 2
 420 90 l 2
 442 90 460 72 460 50 c 0
 460 28 442 10 420 10 c 2
 80 10 l 2
 58 10 40 28 40 50 c 0
440 150 m 0
 440 172 458 190 480 190 c 2
 520 190 l 2
 542 190 560 172 560 150 c 0
 560 128 542 110 520 110 c 2
 480 110 l 2
 458 110 440 128 440 150 c 0
140 250 m 0
 140 272 158 290 180 290 c 2
 420 290 l 2
 442 290 460 272 460 250 c 0
 460 228 442 210 420 210 c 2
 180 210 l 2
 158 210 140 228 140 250 c 0
40 350 m 0
 40 372 58 390 80 390 c 2
 120 390 l 2
 142 390 160 372 160 350 c 0
 160 328 142 310 120 310 c 2
 80 310 l 2
 58 310 40 328 40 350 c 0
140 450 m 0
 140 472 158 490 180 490 c 2
 520 490 l 2
 542 490 560 472 560 450 c 0
 560 428 542 410 520 410 c 2
 180 410 l 2
 158 410 140 428 140 450 c 0
EndSplineSet
EndChar

StartChar: t
Encoding: 116 116 84
Width: 600
Flags: HMW
AnchorPoint: "marks_aboveright" 350 600 basechar 0
AnchorPoint: "marks_below" 300 0 basechar 0
AnchorPoint: "marks_above" 300 800 basechar 0
LayerCount: 2
Fore
SplineSet
240 50 m 0
 240 72 258 90 280 90 c 2
 420 90 l 2
 442 90 460 72 460 50 c 0
 460 28 442 10 420 10 c 2
 280 10 l 2
 258 10 240 28 240 50 c 0
440 150 m 0
 440 172 458 190 480 190 c 2
 520 190 l 2
 542 190 560 172 560 150 c 0
 560 128 542 110 520 110 c 2
 480 110 l 2
 458 110 440 128 440 150 c 0
140 150 m 0
 140 172 158 190 180 190 c 2
 220 190 l 2
 242 190 260 172 260 150 c 0
 260 128 242 110 220 110 c 2
 180 110 l 2
 158 110 140 128 140 150 c 0
140 250 m 0
 140 272 158 290 180 290 c 2
 220 290 l 2
 242 290 260 272 260 250 c 0
 260 228 242 210 220 210 c 2
 180 210 l 2
 158 210 140 228 140 250 c 0
140 350 m 0
 140 372 158 390 180 390 c 2
 220 390 l 2
 242 390 260 372 260 350 c 0
 260 328 242 310 220 310 c 2
 180 310 l 2
 158 310 140 328 140 350 c 0
40 450 m 0
 40 472 58 490 80 490 c 2
 420 490 l 2
 442 490 460 472 460 450 c 0
 460 428 442 410 420 410 c 2
 80 410 l 2
 58 410 40 428 40 450 c 0
140 550 m 0
 140 572 158 590 180 590 c 2
 220 590 l 2
 242 590 260 572 260 550 c 0
 260 528 242 510 220 510 c 2
 180 510 l 2
 158 510 140 528 140 550 c 0
140 650 m 0
 140 672 158 690 180 690 c 2
 220 690 l 2
 242 690 260 672 260 650 c 0
 260 628 242 610 220 610 c 2
 180 610 l 2
 158 610 140 628 140 650 c 0
EndSplineSet
EndChar

StartChar: u
Encoding: 117 117 85
Width: 600
Flags: HMW
AnchorPoint: "ogonek" 400 0 basechar 0
AnchorPoint: "marks_below" 300 0 basechar 0
AnchorPoint: "marks_above" 300 600 basechar 0
LayerCount: 2
Fore
SplineSet
440 50 m 0
 440 72 458 90 480 90 c 2
 520 90 l 2
 542 90 560 72 560 50 c 0
 560 28 542 10 520 10 c 2
 480 10 l 2
 458 10 440 28 440 50 c 0
140 50 m 0
 140 72 158 90 180 90 c 2
 320 90 l 2
 342 90 360 72 360 50 c 0
 360 28 342 10 320 10 c 2
 180 10 l 2
 158 10 140 28 140 50 c 0
340 150 m 0
 340 172 358 190 380 190 c 2
 520 190 l 2
 542 190 560 172 560 150 c 0
 560 128 542 110 520 110 c 2
 380 110 l 2
 358 110 340 128 340 150 c 0
40 150 m 0
 40 172 58 190 80 190 c 2
 120 190 l 2
 142 190 160 172 160 150 c 0
 160 128 142 110 120 110 c 2
 80 110 l 2
 58 110 40 128 40 150 c 0
440 250 m 0
 440 272 458 290 480 290 c 2
 520 290 l 2
 542 290 560 272 560 250 c 0
 560 228 542 210 520 210 c 2
 480 210 l 2
 458 210 440 228 440 250 c 0
40 250 m 0
 40 272 58 290 80 290 c 2
 120 290 l 2
 142 290 160 272 160 250 c 0
 160 228 142 210 120 210 c 2
 80 210 l 2
 58 210 40 228 40 250 c 0
440 350 m 0
 440 372 458 390 480 390 c 2
 520 390 l 2
 542 390 560 372 560 350 c 0
 560 328 542 310 520 310 c 2
 480 310 l 2
 458 310 440 328 440 350 c 0
40 350 m 0
 40 372 58 390 80 390 c 2
 120 390 l 2
 142 390 160 372 160 350 c 0
 160 328 142 310 120 310 c 2
 80 310 l 2
 58 310 40 328 40 350 c 0
440 450 m 0
 440 472 458 490 480 490 c 2
 520 490 l 2
 542 490 560 472 560 450 c 0
 560 428 542 410 520 410 c 2
 480 410 l 2
 458 410 440 428 440 450 c 0
40 450 m 0
 40 472 58 490 80 490 c 2
 120 490 l 2
 142 490 160 472 160 450 c 0
 160 428 142 410 120 410 c 2
 80 410 l 2
 58 410 40 428 40 450 c 0
EndSplineSet
EndChar

StartChar: v
Encoding: 118 118 86
Width: 600
Flags: HMW
AnchorPoint: "marks_below" 300 0 basechar 0
AnchorPoint: "marks_above" 300 600 basechar 0
LayerCount: 2
Fore
SplineSet
240 50 m 0
 240 72 258 90 280 90 c 2
 320 90 l 2
 342 90 360 72 360 50 c 0
 360 28 342 10 320 10 c 2
 280 10 l 2
 258 10 240 28 240 50 c 0
340 150 m 0
 340 172 358 190 380 190 c 2
 420 190 l 2
 442 190 460 172 460 150 c 0
 460 128 442 110 420 110 c 2
 380 110 l 2
 358 110 340 128 340 150 c 0
140 150 m 0
 140 172 158 190 180 190 c 2
 220 190 l 2
 242 190 260 172 260 150 c 0
 260 128 242 110 220 110 c 2
 180 110 l 2
 158 110 140 128 140 150 c 0
440 250 m 0
 440 272 458 290 480 290 c 2
 520 290 l 2
 542 290 560 272 560 250 c 0
 560 228 542 210 520 210 c 2
 480 210 l 2
 458 210 440 228 440 250 c 0
40 250 m 0
 40 272 58 290 80 290 c 2
 120 290 l 2
 142 290 160 272 160 250 c 0
 160 228 142 210 120 210 c 2
 80 210 l 2
 58 210 40 228 40 250 c 0
440 350 m 0
 440 372 458 390 480 390 c 2
 520 390 l 2
 542 390 560 372 560 350 c 0
 560 328 542 310 520 310 c 2
 480 310 l 2
 458 310 440 328 440 350 c 0
40 350 m 0
 40 372 58 390 80 390 c 2
 120 390 l 2
 142 390 160 372 160 350 c 0
 160 328 142 310 120 310 c 2
 80 310 l 2
 58 310 40 328 40 350 c 0
440 450 m 0
 440 472 458 490 480 490 c 2
 520 490 l 2
 542 490 560 472 560 450 c 0
 560 428 542 410 520 410 c 2
 480 410 l 2
 458 410 440 428 440 450 c 0
40 450 m 0
 40 472 58 490 80 490 c 2
 120 490 l 2
 142 490 160 472 160 450 c 0
 160 428 142 410 120 410 c 2
 80 410 l 2
 58 410 40 428 40 450 c 0
EndSplineSet
EndChar

StartChar: w
Encoding: 119 119 87
Width: 600
Flags: HMW
AnchorPoint: "marks_below" 300 0 basechar 0
AnchorPoint: "marks_above" 300 600 basechar 0
LayerCount: 2
Fore
SplineSet
340 50 m 0
 340 72 358 90 380 90 c 2
 420 90 l 2
 442 90 460 72 460 50 c 0
 460 28 442 10 420 10 c 2
 380 10 l 2
 358 10 340 28 340 50 c 0
140 50 m 0
 140 72 158 90 180 90 c 2
 220 90 l 2
 242 90 260 72 260 50 c 0
 260 28 242 10 220 10 c 2
 180 10 l 2
 158 10 140 28 140 50 c 0
440 150 m 0
 440 172 458 190 480 190 c 2
 520 190 l 2
 542 190 560 172 560 150 c 0
 560 128 542 110 520 110 c 2
 480 110 l 2
 458 110 440 128 440 150 c 0
240 150 m 0
 240 172 258 190 280 190 c 2
 320 190 l 2
 342 190 360 172 360 150 c 0
 360 128 342 110 320 110 c 2
 280 110 l 2
 258 110 240 128 240 150 c 0
40 150 m 0
 40 172 58 190 80 190 c 2
 120 190 l 2
 142 190 160 172 160 150 c 0
 160 128 142 110 120 110 c 2
 80 110 l 2
 58 110 40 128 40 150 c 0
440 250 m 0
 440 272 458 290 480 290 c 2
 520 290 l 2
 542 290 560 272 560 250 c 0
 560 228 542 210 520 210 c 2
 480 210 l 2
 458 210 440 228 440 250 c 0
240 250 m 0
 240 272 258 290 280 290 c 2
 320 290 l 2
 342 290 360 272 360 250 c 0
 360 228 342 210 320 210 c 2
 280 210 l 2
 258 210 240 228 240 250 c 0
40 250 m 0
 40 272 58 290 80 290 c 2
 120 290 l 2
 142 290 160 272 160 250 c 0
 160 228 142 210 120 210 c 2
 80 210 l 2
 58 210 40 228 40 250 c 0
440 350 m 0
 440 372 458 390 480 390 c 2
 520 390 l 2
 542 390 560 372 560 350 c 0
 560 328 542 310 520 310 c 2
 480 310 l 2
 458 310 440 328 440 350 c 0
240 350 m 0
 240 372 258 390 280 390 c 2
 320 390 l 2
 342 390 360 372 360 350 c 0
 360 328 342 310 320 310 c 2
 280 310 l 2
 258 310 240 328 240 350 c 0
40 350 m 0
 40 372 58 390 80 390 c 2
 120 390 l 2
 142 390 160 372 160 350 c 0
 160 328 142 310 120 310 c 2
 80 310 l 2
 58 310 40 328 40 350 c 0
440 450 m 0
 440 472 458 490 480 490 c 2
 520 490 l 2
 542 490 560 472 560 450 c 0
 560 428 542 410 520 410 c 2
 480 410 l 2
 458 410 440 428 440 450 c 0
40 450 m 0
 40 472 58 490 80 490 c 2
 120 490 l 2
 142 490 160 472 160 450 c 0
 160 428 142 410 120 410 c 2
 80 410 l 2
 58 410 40 428 40 450 c 0
EndSplineSet
EndChar

StartChar: x
Encoding: 120 120 88
Width: 600
Flags: HMW
AnchorPoint: "marks_below" 300 0 basechar 0
AnchorPoint: "marks_above" 300 600 basechar 0
LayerCount: 2
Fore
SplineSet
440 50 m 0
 440 72 458 90 480 90 c 2
 520 90 l 2
 542 90 560 72 560 50 c 0
 560 28 542 10 520 10 c 2
 480 10 l 2
 458 10 440 28 440 50 c 0
40 50 m 0
 40 72 58 90 80 90 c 2
 120 90 l 2
 142 90 160 72 160 50 c 0
 160 28 142 10 120 10 c 2
 80 10 l 2
 58 10 40 28 40 50 c 0
340 150 m 0
 340 172 358 190 380 190 c 2
 420 190 l 2
 442 190 460 172 460 150 c 0
 460 128 442 110 420 110 c 2
 380 110 l 2
 358 110 340 128 340 150 c 0
140 150 m 0
 140 172 158 190 180 190 c 2
 220 190 l 2
 242 190 260 172 260 150 c 0
 260 128 242 110 220 110 c 2
 180 110 l 2
 158 110 140 128 140 150 c 0
240 250 m 0
 240 272 258 290 280 290 c 2
 320 290 l 2
 342 290 360 272 360 250 c 0
 360 228 342 210 320 210 c 2
 280 210 l 2
 258 210 240 228 240 250 c 0
340 350 m 0
 340 372 358 390 380 390 c 2
 420 390 l 2
 442 390 460 372 460 350 c 0
 460 328 442 310 420 310 c 2
 380 310 l 2
 358 310 340 328 340 350 c 0
140 350 m 0
 140 372 158 390 180 390 c 2
 220 390 l 2
 242 390 260 372 260 350 c 0
 260 328 242 310 220 310 c 2
 180 310 l 2
 158 310 140 328 140 350 c 0
440 450 m 0
 440 472 458 490 480 490 c 2
 520 490 l 2
 542 490 560 472 560 450 c 0
 560 428 542 410 520 410 c 2
 480 410 l 2
 458 410 440 428 440 450 c 0
40 450 m 0
 40 472 58 490 80 490 c 2
 120 490 l 2
 142 490 160 472 160 450 c 0
 160 428 142 410 120 410 c 2
 80 410 l 2
 58 410 40 428 40 450 c 0
EndSplineSet
EndChar

StartChar: y
Encoding: 121 121 89
Width: 600
Flags: HMW
AnchorPoint: "marks_above" 300 600 basechar 0
LayerCount: 2
Fore
SplineSet
140 -150 m 0
 140 -128 158 -110 180 -110 c 2
 420 -110 l 2
 442 -110 460 -128 460 -150 c 0
 460 -172 442 -190 420 -190 c 2
 180 -190 l 2
 158 -190 140 -172 140 -150 c 0
440 -50 m 0
 440 -28 458 -10 480 -10 c 2
 520 -10 l 2
 542 -10 560 -28 560 -50 c 0
 560 -72 542 -90 520 -90 c 2
 480 -90 l 2
 458 -90 440 -72 440 -50 c 0
440 50 m 0
 440 72 458 90 480 90 c 2
 520 90 l 2
 542 90 560 72 560 50 c 0
 560 28 542 10 520 10 c 2
 480 10 l 2
 458 10 440 28 440 50 c 0
140 50 m 0
 140 72 158 90 180 90 c 2
 320 90 l 2
 342 90 360 72 360 50 c 0
 360 28 342 10 320 10 c 2
 180 10 l 2
 158 10 140 28 140 50 c 0
340 150 m 0
 340 172 358 190 380 190 c 2
 520 190 l 2
 542 190 560 172 560 150 c 0
 560 128 542 110 520 110 c 2
 380 110 l 2
 358 110 340 128 340 150 c 0
40 150 m 0
 40 172 58 190 80 190 c 2
 120 190 l 2
 142 190 160 172 160 150 c 0
 160 128 142 110 120 110 c 2
 80 110 l 2
 58 110 40 128 40 150 c 0
440 250 m 0
 440 272 458 290 480 290 c 2
 520 290 l 2
 542 290 560 272 560 250 c 0
 560 228 542 210 520 210 c 2
 480 210 l 2
 458 210 440 228 440 250 c 0
40 250 m 0
 40 272 58 290 80 290 c 2
 120 290 l 2
 142 290 160 272 160 250 c 0
 160 228 142 210 120 210 c 2
 80 210 l 2
 58 210 40 228 40 250 c 0
440 350 m 0
 440 372 458 390 480 390 c 2
 520 390 l 2
 542 390 560 372 560 350 c 0
 560 328 542 310 520 310 c 2
 480 310 l 2
 458 310 440 328 440 350 c 0
40 350 m 0
 40 372 58 390 80 390 c 2
 120 390 l 2
 142 390 160 372 160 350 c 0
 160 328 142 310 120 310 c 2
 80 310 l 2
 58 310 40 328 40 350 c 0
440 450 m 0
 440 472 458 490 480 490 c 2
 520 490 l 2
 542 490 560 472 560 450 c 0
 560 428 542 410 520 410 c 2
 480 410 l 2
 458 410 440 428 440 450 c 0
40 450 m 0
 40 472 58 490 80 490 c 2
 120 490 l 2
 142 490 160 472 160 450 c 0
 160 428 142 410 120 410 c 2
 80 410 l 2
 58 410 40 428 40 450 c 0
EndSplineSet
EndChar

StartChar: z
Encoding: 122 122 90
Width: 600
Flags: HMW
AnchorPoint: "marks_below" 300 0 basechar 0
AnchorPoint: "marks_above" 300 600 basechar 0
LayerCount: 2
Fore
SplineSet
40 50 m 0
 40 72 58 90 80 90 c 2
 520 90 l 2
 542 90 560 72 560 50 c 0
 560 28 542 10 520 10 c 2
 80 10 l 2
 58 10 40 28 40 50 c 0
140 150 m 0
 140 172 158 190 180 190 c 2
 220 190 l 2
 242 190 260 172 260 150 c 0
 260 128 242 110 220 110 c 2
 180 110 l 2
 158 110 140 128 140 150 c 0
240 250 m 0
 240 272 258 290 280 290 c 2
 320 290 l 2
 342 290 360 272 360 250 c 0
 360 228 342 210 320 210 c 2
 280 210 l 2
 258 210 240 228 240 250 c 0
340 350 m 0
 340 372 358 390 380 390 c 2
 420 390 l 2
 442 390 460 372 460 350 c 0
 460 328 442 310 420 310 c 2
 380 310 l 2
 358 310 340 328 340 350 c 0
40 450 m 0
 40 472 58 490 80 490 c 2
 520 490 l 2
 542 490 560 472 560 450 c 0
 560 428 542 410 520 410 c 2
 80 410 l 2
 58 410 40 428 40 450 c 0
EndSplineSet
EndChar

StartChar: braceleft
Encoding: 123 123 91
Width: 500
Flags: HMW
LayerCount: 2
Fore
SplineSet
240 50 m 0
 240 72 258 90 280 90 c 2
 420 90 l 2
 442 90 460 72 460 50 c 0
 460 28 442 10 420 10 c 2
 280 10 l 2
 258 10 240 28 240 50 c 0
140 150 m 0
 140 172 158 190 180 190 c 2
 220 190 l 2
 242 190 260 172 260 150 c 0
 260 128 242 110 220 110 c 2
 180 110 l 2
 158 110 140 128 140 150 c 0
240 250 m 0
 240 272 258 290 280 290 c 2
 320 290 l 2
 342 290 360 272 360 250 c 0
 360 228 342 210 320 210 c 2
 280 210 l 2
 258 210 240 228 240 250 c 0
40 350 m 0
 40 372 58 390 80 390 c 2
 220 390 l 2
 242 390 260 372 260 350 c 0
 260 328 242 310 220 310 c 2
 80 310 l 2
 58 310 40 328 40 350 c 0
240 450 m 0
 240 472 258 490 280 490 c 2
 320 490 l 2
 342 490 360 472 360 450 c 0
 360 428 342 410 320 410 c 2
 280 410 l 2
 258 410 240 428 240 450 c 0
140 550 m 0
 140 572 158 590 180 590 c 2
 220 590 l 2
 242 590 260 572 260 550 c 0
 260 528 242 510 220 510 c 2
 180 510 l 2
 158 510 140 528 140 550 c 0
240 650 m 0
 240 672 258 690 280 690 c 2
 420 690 l 2
 442 690 460 672 460 650 c 0
 460 628 442 610 420 610 c 2
 280 610 l 2
 258 610 240 628 240 650 c 0
EndSplineSet
EndChar

StartChar: bar
Encoding: 124 124 92
Width: 200
Flags: HMW
LayerCount: 2
Fore
SplineSet
40 50 m 0
 40 72 58 90 80 90 c 2
 120 90 l 2
 142 90 160 72 160 50 c 0
 160 28 142 10 120 10 c 2
 80 10 l 2
 58 10 40 28 40 50 c 0
40 150 m 0
 40 172 58 190 80 190 c 2
 120 190 l 2
 142 190 160 172 160 150 c 0
 160 128 142 110 120 110 c 2
 80 110 l 2
 58 110 40 128 40 150 c 0
40 250 m 0
 40 272 58 290 80 290 c 2
 120 290 l 2
 142 290 160 272 160 250 c 0
 160 228 142 210 120 210 c 2
 80 210 l 2
 58 210 40 228 40 250 c 0
40 350 m 0
 40 372 58 390 80 390 c 2
 120 390 l 2
 142 390 160 372 160 350 c 0
 160 328 142 310 120 310 c 2
 80 310 l 2
 58 310 40 328 40 350 c 0
40 450 m 0
 40 472 58 490 80 490 c 2
 120 490 l 2
 142 490 160 472 160 450 c 0
 160 428 142 410 120 410 c 2
 80 410 l 2
 58 410 40 428 40 450 c 0
40 550 m 0
 40 572 58 590 80 590 c 2
 120 590 l 2
 142 590 160 572 160 550 c 0
 160 528 142 510 120 510 c 2
 80 510 l 2
 58 510 40 528 40 550 c 0
40 650 m 0
 40 672 58 690 80 690 c 2
 120 690 l 2
 142 690 160 672 160 650 c 0
 160 628 142 610 120 610 c 2
 80 610 l 2
 58 610 40 628 40 650 c 0
EndSplineSet
EndChar

StartChar: braceright
Encoding: 125 125 93
Width: 500
Flags: HMW
LayerCount: 2
Fore
SplineSet
40 50 m 0
 40 72 58 90 80 90 c 2
 220 90 l 2
 242 90 260 72 260 50 c 0
 260 28 242 10 220 10 c 2
 80 10 l 2
 58 10 40 28 40 50 c 0
240 150 m 0
 240 172 258 190 280 190 c 2
 320 190 l 2
 342 190 360 172 360 150 c 0
 360 128 342 110 320 110 c 2
 280 110 l 2
 258 110 240 128 240 150 c 0
140 250 m 0
 140 272 158 290 180 290 c 2
 220 290 l 2
 242 290 260 272 260 250 c 0
 260 228 242 210 220 210 c 2
 180 210 l 2
 158 210 140 228 140 250 c 0
240 350 m 0
 240 372 258 390 280 390 c 2
 420 390 l 2
 442 390 460 372 460 350 c 0
 460 328 442 310 420 310 c 2
 280 310 l 2
 258 310 240 328 240 350 c 0
140 450 m 0
 140 472 158 490 180 490 c 2
 220 490 l 2
 242 490 260 472 260 450 c 0
 260 428 242 410 220 410 c 2
 180 410 l 2
 158 410 140 428 140 450 c 0
240 550 m 0
 240 572 258 590 280 590 c 2
 320 590 l 2
 342 590 360 572 360 550 c 0
 360 528 342 510 320 510 c 2
 280 510 l 2
 258 510 240 528 240 550 c 0
40 650 m 0
 40 672 58 690 80 690 c 2
 220 690 l 2
 242 690 260 672 260 650 c 0
 260 628 242 610 220 610 c 2
 80 610 l 2
 58 610 40 628 40 650 c 0
EndSplineSet
EndChar

StartChar: asciitilde
Encoding: 126 126 94
Width: 600
Flags: HMW
LayerCount: 2
Fore
SplineSet
340 250 m 0
 340 272 358 290 380 290 c 2
 420 290 l 2
 442 290 460 272 460 250 c 0
 460 228 442 210 420 210 c 2
 380 210 l 2
 358 210 340 228 340 250 c 0
40 250 m 0
 40 272 58 290 80 290 c 2
 120 290 l 2
 142 290 160 272 160 250 c 0
 160 228 142 210 120 210 c 2
 80 210 l 2
 58 210 40 228 40 250 c 0
440 350 m 0
 440 372 458 390 480 390 c 2
 520 390 l 2
 542 390 560 372 560 350 c 0
 560 328 542 310 520 310 c 2
 480 310 l 2
 458 310 440 328 440 350 c 0
240 350 m 0
 240 372 258 390 280 390 c 2
 320 390 l 2
 342 390 360 372 360 350 c 0
 360 328 342 310 320 310 c 2
 280 310 l 2
 258 310 240 328 240 350 c 0
40 350 m 0
 40 372 58 390 80 390 c 2
 120 390 l 2
 142 390 160 372 160 350 c 0
 160 328 142 310 120 310 c 2
 80 310 l 2
 58 310 40 328 40 350 c 0
440 450 m 0
 440 472 458 490 480 490 c 2
 520 490 l 2
 542 490 560 472 560 450 c 0
 560 428 542 410 520 410 c 2
 480 410 l 2
 458 410 440 428 440 450 c 0
140 450 m 0
 140 472 158 490 180 490 c 2
 220 490 l 2
 242 490 260 472 260 450 c 0
 260 428 242 410 220 410 c 2
 180 410 l 2
 158 410 140 428 140 450 c 0
EndSplineSet
EndChar

StartChar: .notdef
Encoding: 1114113 -1 95
Width: 601
VWidth: 0
Flags: HMW
LayerCount: 2
Fore
SplineSet
130 70 m 1
 470 70 l 1
 470 630 l 1
 130 630 l 1
 130 70 l 1
550 0 m 1
 50 0 l 1
 50 700 l 1
 550 700 l 1
 550 0 l 1
EndSplineSet
EndChar

StartChar: exclamdown
Encoding: 161 161 96
Width: 200
Flags: HMW
LayerCount: 2
Fore
SplineSet
40 -150 m 0
 40 -128 58 -110 80 -110 c 2
 120 -110 l 2
 142 -110 160 -128 160 -150 c 0
 160 -172 142 -190 120 -190 c 2
 80 -190 l 2
 58 -190 40 -172 40 -150 c 0
40 -50 m 0
 40 -28 58 -10 80 -10 c 2
 120 -10 l 2
 142 -10 160 -28 160 -50 c 0
 160 -72 142 -90 120 -90 c 2
 80 -90 l 2
 58 -90 40 -72 40 -50 c 0
40 50 m 0
 40 72 58 90 80 90 c 2
 120 90 l 2
 142 90 160 72 160 50 c 0
 160 28 142 10 120 10 c 2
 80 10 l 2
 58 10 40 28 40 50 c 0
40 150 m 0
 40 172 58 190 80 190 c 2
 120 190 l 2
 142 190 160 172 160 150 c 0
 160 128 142 110 120 110 c 2
 80 110 l 2
 58 110 40 128 40 150 c 0
40 250 m 0
 40 272 58 290 80 290 c 2
 120 290 l 2
 142 290 160 272 160 250 c 0
 160 228 142 210 120 210 c 2
 80 210 l 2
 58 210 40 228 40 250 c 0
40 450 m 0
 40 472 58 490 80 490 c 2
 120 490 l 2
 142 490 160 472 160 450 c 0
 160 428 142 410 120 410 c 2
 80 410 l 2
 58 410 40 428 40 450 c 0
EndSplineSet
EndChar

StartChar: cent
Encoding: 162 162 97
Width: 600
Flags: HMW
LayerCount: 2
Fore
SplineSet
240 50 m 0
 240 72 258 90 280 90 c 2
 320 90 l 2
 342 90 360 72 360 50 c 0
 360 28 342 10 320 10 c 2
 280 10 l 2
 258 10 240 28 240 50 c 0
140 150 m 0
 140 172 158 190 180 190 c 2
 420 190 l 2
 442 190 460 172 460 150 c 0
 460 128 442 110 420 110 c 2
 180 110 l 2
 158 110 140 128 140 150 c 0
440 250 m 0
 440 272 458 290 480 290 c 2
 520 290 l 2
 542 290 560 272 560 250 c 0
 560 228 542 210 520 210 c 2
 480 210 l 2
 458 210 440 228 440 250 c 0
240 250 m 0
 240 272 258 290 280 290 c 2
 320 290 l 2
 342 290 360 272 360 250 c 0
 360 228 342 210 320 210 c 2
 280 210 l 2
 258 210 240 228 240 250 c 0
40 250 m 0
 40 272 58 290 80 290 c 2
 120 290 l 2
 142 290 160 272 160 250 c 0
 160 228 142 210 120 210 c 2
 80 210 l 2
 58 210 40 228 40 250 c 0
240 350 m 0
 240 372 258 390 280 390 c 2
 320 390 l 2
 342 390 360 372 360 350 c 0
 360 328 342 310 320 310 c 2
 280 310 l 2
 258 310 240 328 240 350 c 0
40 350 m 0
 40 372 58 390 80 390 c 2
 120 390 l 2
 142 390 160 372 160 350 c 0
 160 328 142 310 120 310 c 2
 80 310 l 2
 58 310 40 328 40 350 c 0
440 450 m 0
 440 472 458 490 480 490 c 2
 520 490 l 2
 542 490 560 472 560 450 c 0
 560 428 542 410 520 410 c 2
 480 410 l 2
 458 410 440 428 440 450 c 0
240 450 m 0
 240 472 258 490 280 490 c 2
 320 490 l 2
 342 490 360 472 360 450 c 0
 360 428 342 410 320 410 c 2
 280 410 l 2
 258 410 240 428 240 450 c 0
40 450 m 0
 40 472 58 490 80 490 c 2
 120 490 l 2
 142 490 160 472 160 450 c 0
 160 428 142 410 120 410 c 2
 80 410 l 2
 58 410 40 428 40 450 c 0
140 550 m 0
 140 572 158 590 180 590 c 2
 420 590 l 2
 442 590 460 572 460 550 c 0
 460 528 442 510 420 510 c 2
 180 510 l 2
 158 510 140 528 140 550 c 0
240 650 m 0
 240 672 258 690 280 690 c 2
 320 690 l 2
 342 690 360 672 360 650 c 0
 360 628 342 610 320 610 c 2
 280 610 l 2
 258 610 240 628 240 650 c 0
EndSplineSet
EndChar

StartChar: sterling
Encoding: 163 163 98
Width: 600
Flags: HMW
LayerCount: 2
Fore
SplineSet
40 50 m 0
 40 72 58 90 80 90 c 2
 520 90 l 2
 542 90 560 72 560 50 c 0
 560 28 542 10 520 10 c 2
 80 10 l 2
 58 10 40 28 40 50 c 0
140 150 m 0
 140 172 158 190 180 190 c 2
 220 190 l 2
 242 190 260 172 260 150 c 0
 260 128 242 110 220 110 c 2
 180 110 l 2
 158 110 140 128 140 150 c 0
140 250 m 0
 140 272 158 290 180 290 c 2
 220 290 l 2
 242 290 260 272 260 250 c 0
 260 228 242 210 220 210 c 2
 180 210 l 2
 158 210 140 228 140 250 c 0
40 350 m 0
 40 372 58 390 80 390 c 2
 320 390 l 2
 342 390 360 372 360 350 c 0
 360 328 342 310 320 310 c 2
 80 310 l 2
 58 310 40 328 40 350 c 0
140 450 m 0
 140 472 158 490 180 490 c 2
 220 490 l 2
 242 490 260 472 260 450 c 0
 260 428 242 410 220 410 c 2
 180 410 l 2
 158 410 140 428 140 450 c 0
440 550 m 0
 440 572 458 590 480 590 c 2
 520 590 l 2
 542 590 560 572 560 550 c 0
 560 528 542 510 520 510 c 2
 480 510 l 2
 458 510 440 528 440 550 c 0
140 550 m 0
 140 572 158 590 180 590 c 2
 220 590 l 2
 242 590 260 572 260 550 c 0
 260 528 242 510 220 510 c 2
 180 510 l 2
 158 510 140 528 140 550 c 0
240 650 m 0
 240 672 258 690 280 690 c 2
 420 690 l 2
 442 690 460 672 460 650 c 0
 460 628 442 610 420 610 c 2
 280 610 l 2
 258 610 240 628 240 650 c 0
EndSplineSet
EndChar

StartChar: currency
Encoding: 164 164 99
Width: 600
Flags: HMW
LayerCount: 2
Fore
SplineSet
440 150 m 0
 440 172 458 190 480 190 c 2
 520 190 l 2
 542 190 560 172 560 150 c 0
 560 128 542 110 520 110 c 2
 480 110 l 2
 458 110 440 128 440 150 c 0
40 150 m 0
 40 172 58 190 80 190 c 2
 120 190 l 2
 142 190 160 172 160 150 c 0
 160 128 142 110 120 110 c 2
 80 110 l 2
 58 110 40 128 40 150 c 0
140 250 m 0
 140 272 158 290 180 290 c 2
 420 290 l 2
 442 290 460 272 460 250 c 0
 460 228 442 210 420 210 c 2
 180 210 l 2
 158 210 140 228 140 250 c 0
340 350 m 0
 340 372 358 390 380 390 c 2
 420 390 l 2
 442 390 460 372 460 350 c 0
 460 328 442 310 420 310 c 2
 380 310 l 2
 358 310 340 328 340 350 c 0
140 350 m 0
 140 372 158 390 180 390 c 2
 220 390 l 2
 242 390 260 372 260 350 c 0
 260 328 242 310 220 310 c 2
 180 310 l 2
 158 310 140 328 140 350 c 0
140 450 m 0
 140 472 158 490 180 490 c 2
 420 490 l 2
 442 490 460 472 460 450 c 0
 460 428 442 410 420 410 c 2
 180 410 l 2
 158 410 140 428 140 450 c 0
440 550 m 0
 440 572 458 590 480 590 c 2
 520 590 l 2
 542 590 560 572 560 550 c 0
 560 528 542 510 520 510 c 2
 480 510 l 2
 458 510 440 528 440 550 c 0
40 550 m 0
 40 572 58 590 80 590 c 2
 120 590 l 2
 142 590 160 572 160 550 c 0
 160 528 142 510 120 510 c 2
 80 510 l 2
 58 510 40 528 40 550 c 0
EndSplineSet
EndChar

StartChar: yen
Encoding: 165 165 100
Width: 600
Flags: HMW
LayerCount: 2
Fore
SplineSet
240 50 m 0
 240 72 258 90 280 90 c 2
 320 90 l 2
 342 90 360 72 360 50 c 0
 360 28 342 10 320 10 c 2
 280 10 l 2
 258 10 240 28 240 50 c 0
140 150 m 0
 140 172 158 190 180 190 c 2
 420 190 l 2
 442 190 460 172 460 150 c 0
 460 128 442 110 420 110 c 2
 180 110 l 2
 158 110 140 128 140 150 c 0
238 252 m 0
 238 274 256 292 278 292 c 2
 318 292 l 2
 340 292 358 274 358 252 c 0
 358 230 340 212 318 212 c 2
 278 212 l 2
 256 212 238 230 238 252 c 0
140 350 m 0
 140 372 158 390 180 390 c 2
 420 390 l 2
 442 390 460 372 460 350 c 0
 460 328 442 310 420 310 c 2
 180 310 l 2
 158 310 140 328 140 350 c 0
240 450 m 0
 240 472 258 490 280 490 c 2
 320 490 l 2
 342 490 360 472 360 450 c 0
 360 428 342 410 320 410 c 2
 280 410 l 2
 258 410 240 428 240 450 c 0
340 550 m 0
 340 572 358 590 380 590 c 2
 420 590 l 2
 442 590 460 572 460 550 c 0
 460 528 442 510 420 510 c 2
 380 510 l 2
 358 510 340 528 340 550 c 0
140 550 m 0
 140 572 158 590 180 590 c 2
 220 590 l 2
 242 590 260 572 260 550 c 0
 260 528 242 510 220 510 c 2
 180 510 l 2
 158 510 140 528 140 550 c 0
440 650 m 0
 440 672 458 690 480 690 c 2
 520 690 l 2
 542 690 560 672 560 650 c 0
 560 628 542 610 520 610 c 2
 480 610 l 2
 458 610 440 628 440 650 c 0
40 650 m 0
 40 672 58 690 80 690 c 2
 120 690 l 2
 142 690 160 672 160 650 c 0
 160 628 142 610 120 610 c 2
 80 610 l 2
 58 610 40 628 40 650 c 0
EndSplineSet
EndChar

StartChar: brokenbar
Encoding: 166 166 101
Width: 200
Flags: HMW
LayerCount: 2
Fore
SplineSet
40 50 m 0
 40 72 58 90 80 90 c 2
 120 90 l 2
 142 90 160 72 160 50 c 0
 160 28 142 10 120 10 c 2
 80 10 l 2
 58 10 40 28 40 50 c 0
40 150 m 0
 40 172 58 190 80 190 c 2
 120 190 l 2
 142 190 160 172 160 150 c 0
 160 128 142 110 120 110 c 2
 80 110 l 2
 58 110 40 128 40 150 c 0
40 250 m 0
 40 272 58 290 80 290 c 2
 120 290 l 2
 142 290 160 272 160 250 c 0
 160 228 142 210 120 210 c 2
 80 210 l 2
 58 210 40 228 40 250 c 0
40 450 m 0
 40 472 58 490 80 490 c 2
 120 490 l 2
 142 490 160 472 160 450 c 0
 160 428 142 410 120 410 c 2
 80 410 l 2
 58 410 40 428 40 450 c 0
40 550 m 0
 40 572 58 590 80 590 c 2
 120 590 l 2
 142 590 160 572 160 550 c 0
 160 528 142 510 120 510 c 2
 80 510 l 2
 58 510 40 528 40 550 c 0
40 650 m 0
 40 672 58 690 80 690 c 2
 120 690 l 2
 142 690 160 672 160 650 c 0
 160 628 142 610 120 610 c 2
 80 610 l 2
 58 610 40 628 40 650 c 0
EndSplineSet
EndChar

StartChar: section
Encoding: 167 167 102
Width: 600
Flags: HMW
LayerCount: 2
Fore
SplineSet
140 -150 m 0
 140 -128 158 -110 180 -110 c 2
 420 -110 l 2
 442 -110 460 -128 460 -150 c 0
 460 -172 442 -190 420 -190 c 2
 180 -190 l 2
 158 -190 140 -172 140 -150 c 0
440 -50 m 0
 440 -28 458 -10 480 -10 c 2
 520 -10 l 2
 542 -10 560 -28 560 -50 c 0
 560 -72 542 -90 520 -90 c 2
 480 -90 l 2
 458 -90 440 -72 440 -50 c 0
40 -50 m 0
 40 -28 58 -10 80 -10 c 2
 120 -10 l 2
 142 -10 160 -28 160 -50 c 0
 160 -72 142 -90 120 -90 c 2
 80 -90 l 2
 58 -90 40 -72 40 -50 c 0
440 50 m 0
 440 72 458 90 480 90 c 2
 520 90 l 2
 542 90 560 72 560 50 c 0
 560 28 542 10 520 10 c 2
 480 10 l 2
 458 10 440 28 440 50 c 0
140 150 m 0
 140 172 158 190 180 190 c 2
 420 190 l 2
 442 190 460 172 460 150 c 0
 460 128 442 110 420 110 c 2
 180 110 l 2
 158 110 140 128 140 150 c 0
440 250 m 0
 440 272 458 290 480 290 c 2
 520 290 l 2
 542 290 560 272 560 250 c 0
 560 228 542 210 520 210 c 2
 480 210 l 2
 458 210 440 228 440 250 c 0
40 250 m 0
 40 272 58 290 80 290 c 2
 120 290 l 2
 142 290 160 272 160 250 c 0
 160 228 142 210 120 210 c 2
 80 210 l 2
 58 210 40 228 40 250 c 0
140 350 m 0
 140 372 158 390 180 390 c 2
 420 390 l 2
 442 390 460 372 460 350 c 0
 460 328 442 310 420 310 c 2
 180 310 l 2
 158 310 140 328 140 350 c 0
40 450 m 0
 40 472 58 490 80 490 c 2
 120 490 l 2
 142 490 160 472 160 450 c 0
 160 428 142 410 120 410 c 2
 80 410 l 2
 58 410 40 428 40 450 c 0
440 550 m 0
 440 572 458 590 480 590 c 2
 520 590 l 2
 542 590 560 572 560 550 c 0
 560 528 542 510 520 510 c 2
 480 510 l 2
 458 510 440 528 440 550 c 0
40 550 m 0
 40 572 58 590 80 590 c 2
 120 590 l 2
 142 590 160 572 160 550 c 0
 160 528 142 510 120 510 c 2
 80 510 l 2
 58 510 40 528 40 550 c 0
140 650 m 0
 140 672 158 690 180 690 c 2
 420 690 l 2
 442 690 460 672 460 650 c 0
 460 628 442 610 420 610 c 2
 180 610 l 2
 158 610 140 628 140 650 c 0
EndSplineSet
EndChar

StartChar: dieresis
Encoding: 168 168 103
Width: 400
Flags: HMW
LayerCount: 2
Fore
SplineSet
240 650 m 0
 240 672 258 690 280 690 c 2
 320 690 l 2
 342 690 360 672 360 650 c 0
 360 628 342 610 320 610 c 2
 280 610 l 2
 258 610 240 628 240 650 c 0
40 650 m 0
 40 672 58 690 80 690 c 2
 120 690 l 2
 142 690 160 672 160 650 c 0
 160 628 142 610 120 610 c 2
 80 610 l 2
 58 610 40 628 40 650 c 0
EndSplineSet
EndChar

StartChar: copyright
Encoding: 169 169 104
Width: 900
Flags: HMW
LayerCount: 2
Fore
SplineSet
240 -50 m 0
 240 -28 258 -10 280 -10 c 2
 620 -10 l 2
 642 -10 660 -28 660 -50 c 0
 660 -72 642 -90 620 -90 c 2
 280 -90 l 2
 258 -90 240 -72 240 -50 c 0
640 50 m 0
 640 72 658 90 680 90 c 2
 720 90 l 2
 742 90 760 72 760 50 c 0
 760 28 742 10 720 10 c 2
 680 10 l 2
 658 10 640 28 640 50 c 0
140 50 m 0
 140 72 158 90 180 90 c 2
 220 90 l 2
 242 90 260 72 260 50 c 0
 260 28 242 10 220 10 c 2
 180 10 l 2
 158 10 140 28 140 50 c 0
740 150 m 0
 740 172 758 190 780 190 c 2
 820 190 l 2
 842 190 860 172 860 150 c 0
 860 128 842 110 820 110 c 2
 780 110 l 2
 758 110 740 128 740 150 c 0
340 150 m 0
 340 172 358 190 380 190 c 2
 520 190 l 2
 542 190 560 172 560 150 c 0
 560 128 542 110 520 110 c 2
 380 110 l 2
 358 110 340 128 340 150 c 0
40 150 m 0
 40 172 58 190 80 190 c 2
 120 190 l 2
 142 190 160 172 160 150 c 0
 160 128 142 110 120 110 c 2
 80 110 l 2
 58 110 40 128 40 150 c 0
740 250 m 0
 740 272 758 290 780 290 c 2
 820 290 l 2
 842 290 860 272 860 250 c 0
 860 228 842 210 820 210 c 2
 780 210 l 2
 758 210 740 228 740 250 c 0
240 250 m 0
 240 272 258 290 280 290 c 2
 320 290 l 2
 342 290 360 272 360 250 c 0
 360 228 342 210 320 210 c 2
 280 210 l 2
 258 210 240 228 240 250 c 0
40 250 m 0
 40 272 58 290 80 290 c 2
 120 290 l 2
 142 290 160 272 160 250 c 0
 160 228 142 210 120 210 c 2
 80 210 l 2
 58 210 40 228 40 250 c 0
740 350 m 0
 740 372 758 390 780 390 c 2
 820 390 l 2
 842 390 860 372 860 350 c 0
 860 328 842 310 820 310 c 2
 780 310 l 2
 758 310 740 328 740 350 c 0
240 350 m 0
 240 372 258 390 280 390 c 2
 320 390 l 2
 342 390 360 372 360 350 c 0
 360 328 342 310 320 310 c 2
 280 310 l 2
 258 310 240 328 240 350 c 0
40 350 m 0
 40 372 58 390 80 390 c 2
 120 390 l 2
 142 390 160 372 160 350 c 0
 160 328 142 310 120 310 c 2
 80 310 l 2
 58 310 40 328 40 350 c 0
740 450 m 0
 740 472 758 490 780 490 c 2
 820 490 l 2
 842 490 860 472 860 450 c 0
 860 428 842 410 820 410 c 2
 780 410 l 2
 758 410 740 428 740 450 c 0
340 450 m 0
 340 472 358 490 380 490 c 2
 520 490 l 2
 542 490 560 472 560 450 c 0
 560 428 542 410 520 410 c 2
 380 410 l 2
 358 410 340 428 340 450 c 0
40 450 m 0
 40 472 58 490 80 490 c 2
 120 490 l 2
 142 490 160 472 160 450 c 0
 160 428 142 410 120 410 c 2
 80 410 l 2
 58 410 40 428 40 450 c 0
640 550 m 0
 640 572 658 590 680 590 c 2
 720 590 l 2
 742 590 760 572 760 550 c 0
 760 528 742 510 720 510 c 2
 680 510 l 2
 658 510 640 528 640 550 c 0
140 550 m 0
 140 572 158 590 180 590 c 2
 220 590 l 2
 242 590 260 572 260 550 c 0
 260 528 242 510 220 510 c 2
 180 510 l 2
 158 510 140 528 140 550 c 0
240 650 m 0
 240 672 258 690 280 690 c 2
 620 690 l 2
 642 690 660 672 660 650 c 0
 660 628 642 610 620 610 c 2
 280 610 l 2
 258 610 240 628 240 650 c 0
EndSplineSet
EndChar

StartChar: ordfeminine
Encoding: 170 170 105
Width: 500
Flags: HMW
LayerCount: 2
Fore
SplineSet
40 150 m 0
 40 172 58 190 80 190 c 2
 420 190 l 2
 442 190 460 172 460 150 c 0
 460 128 442 110 420 110 c 2
 80 110 l 2
 58 110 40 128 40 150 c 0
140 350 m 0
 140 372 158 390 180 390 c 2
 420 390 l 2
 442 390 460 372 460 350 c 0
 460 328 442 310 420 310 c 2
 180 310 l 2
 158 310 140 328 140 350 c 0
340 450 m 0
 340 472 358 490 380 490 c 2
 420 490 l 2
 442 490 460 472 460 450 c 0
 460 428 442 410 420 410 c 2
 380 410 l 2
 358 410 340 428 340 450 c 0
40 450 m 0
 40 472 58 490 80 490 c 2
 120 490 l 2
 142 490 160 472 160 450 c 0
 160 428 142 410 120 410 c 2
 80 410 l 2
 58 410 40 428 40 450 c 0
340 550 m 0
 340 572 358 590 380 590 c 2
 420 590 l 2
 442 590 460 572 460 550 c 0
 460 528 442 510 420 510 c 2
 380 510 l 2
 358 510 340 528 340 550 c 0
40 550 m 0
 40 572 58 590 80 590 c 2
 120 590 l 2
 142 590 160 572 160 550 c 0
 160 528 142 510 120 510 c 2
 80 510 l 2
 58 510 40 528 40 550 c 0
140 650 m 0
 140 672 158 690 180 690 c 2
 420 690 l 2
 442 690 460 672 460 650 c 0
 460 628 442 610 420 610 c 2
 180 610 l 2
 158 610 140 628 140 650 c 0
EndSplineSet
EndChar

StartChar: logicalnot
Encoding: 172 172 106
Width: 600
Flags: HMW
LayerCount: 2
Fore
SplineSet
440 150 m 0
 440 172 458 190 480 190 c 2
 520 190 l 2
 542 190 560 172 560 150 c 0
 560 128 542 110 520 110 c 2
 480 110 l 2
 458 110 440 128 440 150 c 0
440 250 m 0
 440 272 458 290 480 290 c 2
 520 290 l 2
 542 290 560 272 560 250 c 0
 560 228 542 210 520 210 c 2
 480 210 l 2
 458 210 440 228 440 250 c 0
40 350 m 0
 40 372 58 390 80 390 c 2
 520 390 l 2
 542 390 560 372 560 350 c 0
 560 328 542 310 520 310 c 2
 80 310 l 2
 58 310 40 328 40 350 c 0
EndSplineSet
EndChar

StartChar: registered
Encoding: 174 174 107
Width: 900
Flags: HMW
LayerCount: 2
Fore
SplineSet
240 -50 m 0
 240 -28 258 -10 280 -10 c 2
 620 -10 l 2
 642 -10 660 -28 660 -50 c 0
 660 -72 642 -90 620 -90 c 2
 280 -90 l 2
 258 -90 240 -72 240 -50 c 0
640 50 m 0
 640 72 658 90 680 90 c 2
 720 90 l 2
 742 90 760 72 760 50 c 0
 760 28 742 10 720 10 c 2
 680 10 l 2
 658 10 640 28 640 50 c 0
140 50 m 0
 140 72 158 90 180 90 c 2
 220 90 l 2
 242 90 260 72 260 50 c 0
 260 28 242 10 220 10 c 2
 180 10 l 2
 158 10 140 28 140 50 c 0
740 150 m 0
 740 172 758 190 780 190 c 2
 820 190 l 2
 842 190 860 172 860 150 c 0
 860 128 842 110 820 110 c 2
 780 110 l 2
 758 110 740 128 740 150 c 0
540 150 m 0
 540 172 558 190 580 190 c 2
 620 190 l 2
 642 190 660 172 660 150 c 0
 660 128 642 110 620 110 c 2
 580 110 l 2
 558 110 540 128 540 150 c 0
240 150 m 0
 240 172 258 190 280 190 c 2
 320 190 l 2
 342 190 360 172 360 150 c 0
 360 128 342 110 320 110 c 2
 280 110 l 2
 258 110 240 128 240 150 c 0
40 150 m 0
 40 172 58 190 80 190 c 2
 120 190 l 2
 142 190 160 172 160 150 c 0
 160 128 142 110 120 110 c 2
 80 110 l 2
 58 110 40 128 40 150 c 0
740 250 m 0
 740 272 758 290 780 290 c 2
 820 290 l 2
 842 290 860 272 860 250 c 0
 860 228 842 210 820 210 c 2
 780 210 l 2
 758 210 740 228 740 250 c 0
240 250 m 0
 240 272 258 290 280 290 c 2
 520 290 l 2
 542 290 560 272 560 250 c 0
 560 228 542 210 520 210 c 2
 280 210 l 2
 258 210 240 228 240 250 c 0
40 250 m 0
 40 272 58 290 80 290 c 2
 120 290 l 2
 142 290 160 272 160 250 c 0
 160 228 142 210 120 210 c 2
 80 210 l 2
 58 210 40 228 40 250 c 0
740 350 m 0
 740 372 758 390 780 390 c 2
 820 390 l 2
 842 390 860 372 860 350 c 0
 860 328 842 310 820 310 c 2
 780 310 l 2
 758 310 740 328 740 350 c 0
540 350 m 0
 540 372 558 390 580 390 c 2
 620 390 l 2
 642 390 660 372 660 350 c 0
 660 328 642 310 620 310 c 2
 580 310 l 2
 558 310 540 328 540 350 c 0
240 350 m 0
 240 372 258 390 280 390 c 2
 320 390 l 2
 342 390 360 372 360 350 c 0
 360 328 342 310 320 310 c 2
 280 310 l 2
 258 310 240 328 240 350 c 0
40 350 m 0
 40 372 58 390 80 390 c 2
 120 390 l 2
 142 390 160 372 160 350 c 0
 160 328 142 310 120 310 c 2
 80 310 l 2
 58 310 40 328 40 350 c 0
740 450 m 0
 740 472 758 490 780 490 c 2
 820 490 l 2
 842 490 860 472 860 450 c 0
 860 428 842 410 820 410 c 2
 780 410 l 2
 758 410 740 428 740 450 c 0
240 450 m 0
 240 472 258 490 280 490 c 2
 520 490 l 2
 542 490 560 472 560 450 c 0
 560 428 542 410 520 410 c 2
 280 410 l 2
 258 410 240 428 240 450 c 0
40 450 m 0
 40 472 58 490 80 490 c 2
 120 490 l 2
 142 490 160 472 160 450 c 0
 160 428 142 410 120 410 c 2
 80 410 l 2
 58 410 40 428 40 450 c 0
640 550 m 0
 640 572 658 590 680 590 c 2
 720 590 l 2
 742 590 760 572 760 550 c 0
 760 528 742 510 720 510 c 2
 680 510 l 2
 658 510 640 528 640 550 c 0
140 550 m 0
 140 572 158 590 180 590 c 2
 220 590 l 2
 242 590 260 572 260 550 c 0
 260 528 242 510 220 510 c 2
 180 510 l 2
 158 510 140 528 140 550 c 0
240 650 m 0
 240 672 258 690 280 690 c 2
 620 690 l 2
 642 690 660 672 660 650 c 0
 660 628 642 610 620 610 c 2
 280 610 l 2
 258 610 240 628 240 650 c 0
EndSplineSet
EndChar

StartChar: macron
Encoding: 175 175 108
Width: 400
Flags: HMW
LayerCount: 2
Fore
SplineSet
40 650 m 0
 40 672 58 690 80 690 c 2
 320 690 l 2
 342 690 360 672 360 650 c 0
 360 628 342 610 320 610 c 2
 80 610 l 2
 58 610 40 628 40 650 c 0
EndSplineSet
EndChar

StartChar: degree
Encoding: 176 176 109
Width: 500
Flags: HMW
LayerCount: 2
Fore
SplineSet
140 350 m 0
 140 372 158 390 180 390 c 2
 320 390 l 2
 342 390 360 372 360 350 c 0
 360 328 342 310 320 310 c 2
 180 310 l 2
 158 310 140 328 140 350 c 0
340 450 m 0
 340 472 358 490 380 490 c 2
 420 490 l 2
 442 490 460 472 460 450 c 0
 460 428 442 410 420 410 c 2
 380 410 l 2
 358 410 340 428 340 450 c 0
40 450 m 0
 40 472 58 490 80 490 c 2
 120 490 l 2
 142 490 160 472 160 450 c 0
 160 428 142 410 120 410 c 2
 80 410 l 2
 58 410 40 428 40 450 c 0
340 550 m 0
 340 572 358 590 380 590 c 2
 420 590 l 2
 442 590 460 572 460 550 c 0
 460 528 442 510 420 510 c 2
 380 510 l 2
 358 510 340 528 340 550 c 0
40 550 m 0
 40 572 58 590 80 590 c 2
 120 590 l 2
 142 590 160 572 160 550 c 0
 160 528 142 510 120 510 c 2
 80 510 l 2
 58 510 40 528 40 550 c 0
140 650 m 0
 140 672 158 690 180 690 c 2
 320 690 l 2
 342 690 360 672 360 650 c 0
 360 628 342 610 320 610 c 2
 180 610 l 2
 158 610 140 628 140 650 c 0
EndSplineSet
EndChar

StartChar: uni00B2
Encoding: 178 178 110
Width: 400
Flags: HMW
LayerCount: 2
Fore
SplineSet
40 250 m 0
 40 272 58 290 80 290 c 2
 320 290 l 2
 342 290 360 272 360 250 c 0
 360 228 342 210 320 210 c 2
 80 210 l 2
 58 210 40 228 40 250 c 0
40 350 m 0
 40 372 58 390 80 390 c 2
 120 390 l 2
 142 390 160 372 160 350 c 0
 160 328 142 310 120 310 c 2
 80 310 l 2
 58 310 40 328 40 350 c 0
140 450 m 0
 140 472 158 490 180 490 c 2
 220 490 l 2
 242 490 260 472 260 450 c 0
 260 428 242 410 220 410 c 2
 180 410 l 2
 158 410 140 428 140 450 c 0
240 550 m 0
 240 572 258 590 280 590 c 2
 320 590 l 2
 342 590 360 572 360 550 c 0
 360 528 342 510 320 510 c 2
 280 510 l 2
 258 510 240 528 240 550 c 0
40 650 m 0
 40 672 58 690 80 690 c 2
 220 690 l 2
 242 690 260 672 260 650 c 0
 260 628 242 610 220 610 c 2
 80 610 l 2
 58 610 40 628 40 650 c 0
EndSplineSet
EndChar

StartChar: uni00B3
Encoding: 179 179 111
Width: 400
Flags: HMW
LayerCount: 2
Fore
SplineSet
40 250 m 0
 40 272 58 290 80 290 c 2
 220 290 l 2
 242 290 260 272 260 250 c 0
 260 228 242 210 220 210 c 2
 80 210 l 2
 58 210 40 228 40 250 c 0
240 350 m 0
 240 372 258 390 280 390 c 2
 320 390 l 2
 342 390 360 372 360 350 c 0
 360 328 342 310 320 310 c 2
 280 310 l 2
 258 310 240 328 240 350 c 0
40 450 m 0
 40 472 58 490 80 490 c 2
 220 490 l 2
 242 490 260 472 260 450 c 0
 260 428 242 410 220 410 c 2
 80 410 l 2
 58 410 40 428 40 450 c 0
240 550 m 0
 240 572 258 590 280 590 c 2
 320 590 l 2
 342 590 360 572 360 550 c 0
 360 528 342 510 320 510 c 2
 280 510 l 2
 258 510 240 528 240 550 c 0
40 650 m 0
 40 672 58 690 80 690 c 2
 220 690 l 2
 242 690 260 672 260 650 c 0
 260 628 242 610 220 610 c 2
 80 610 l 2
 58 610 40 628 40 650 c 0
EndSplineSet
EndChar

StartChar: acute
Encoding: 180 180 112
Width: 300
Flags: HMW
LayerCount: 2
Fore
SplineSet
40 550 m 0
 40 572 58 590 80 590 c 2
 120 590 l 2
 142 590 160 572 160 550 c 0
 160 528 142 510 120 510 c 2
 80 510 l 2
 58 510 40 528 40 550 c 0
140 650 m 0
 140 672 158 690 180 690 c 2
 220 690 l 2
 242 690 260 672 260 650 c 0
 260 628 242 610 220 610 c 2
 180 610 l 2
 158 610 140 628 140 650 c 0
EndSplineSet
EndChar

StartChar: mu
Encoding: 181 181 113
Width: 600
Flags: HMW
LayerCount: 2
Fore
SplineSet
40 -150 m 0
 40 -128 58 -110 80 -110 c 2
 120 -110 l 2
 142 -110 160 -128 160 -150 c 0
 160 -172 142 -190 120 -190 c 2
 80 -190 l 2
 58 -190 40 -172 40 -150 c 0
40 -50 m 0
 40 -28 58 -10 80 -10 c 2
 120 -10 l 2
 142 -10 160 -28 160 -50 c 0
 160 -72 142 -90 120 -90 c 2
 80 -90 l 2
 58 -90 40 -72 40 -50 c 0
440 50 m 0
 440 72 458 90 480 90 c 2
 520 90 l 2
 542 90 560 72 560 50 c 0
 560 28 542 10 520 10 c 2
 480 10 l 2
 458 10 440 28 440 50 c 0
40 50 m 0
 40 72 58 90 80 90 c 2
 320 90 l 2
 342 90 360 72 360 50 c 0
 360 28 342 10 320 10 c 2
 80 10 l 2
 58 10 40 28 40 50 c 0
340 150 m 0
 340 172 358 190 380 190 c 2
 420 190 l 2
 442 190 460 172 460 150 c 0
 460 128 442 110 420 110 c 2
 380 110 l 2
 358 110 340 128 340 150 c 0
40 150 m 0
 40 172 58 190 80 190 c 2
 120 190 l 2
 142 190 160 172 160 150 c 0
 160 128 142 110 120 110 c 2
 80 110 l 2
 58 110 40 128 40 150 c 0
340 250 m 0
 340 272 358 290 380 290 c 2
 420 290 l 2
 442 290 460 272 460 250 c 0
 460 228 442 210 420 210 c 2
 380 210 l 2
 358 210 340 228 340 250 c 0
40 250 m 0
 40 272 58 290 80 290 c 2
 120 290 l 2
 142 290 160 272 160 250 c 0
 160 228 142 210 120 210 c 2
 80 210 l 2
 58 210 40 228 40 250 c 0
340 350 m 0
 340 372 358 390 380 390 c 2
 420 390 l 2
 442 390 460 372 460 350 c 0
 460 328 442 310 420 310 c 2
 380 310 l 2
 358 310 340 328 340 350 c 0
40 350 m 0
 40 372 58 390 80 390 c 2
 120 390 l 2
 142 390 160 372 160 350 c 0
 160 328 142 310 120 310 c 2
 80 310 l 2
 58 310 40 328 40 350 c 0
340 450 m 0
 340 472 358 490 380 490 c 2
 420 490 l 2
 442 490 460 472 460 450 c 0
 460 428 442 410 420 410 c 2
 380 410 l 2
 358 410 340 428 340 450 c 0
40 450 m 0
 40 472 58 490 80 490 c 2
 120 490 l 2
 142 490 160 472 160 450 c 0
 160 428 142 410 120 410 c 2
 80 410 l 2
 58 410 40 428 40 450 c 0
EndSplineSet
EndChar

StartChar: paragraph
Encoding: 182 182 114
Width: 600
Flags: HMW
LayerCount: 2
Fore
SplineSet
440 -150 m 0
 440 -128 458 -110 480 -110 c 2
 520 -110 l 2
 542 -110 560 -128 560 -150 c 0
 560 -172 542 -190 520 -190 c 2
 480 -190 l 2
 458 -190 440 -172 440 -150 c 0
240 -150 m 0
 240 -128 258 -110 280 -110 c 2
 320 -110 l 2
 342 -110 360 -128 360 -150 c 0
 360 -172 342 -190 320 -190 c 2
 280 -190 l 2
 258 -190 240 -172 240 -150 c 0
440 -50 m 0
 440 -28 458 -10 480 -10 c 2
 520 -10 l 2
 542 -10 560 -28 560 -50 c 0
 560 -72 542 -90 520 -90 c 2
 480 -90 l 2
 458 -90 440 -72 440 -50 c 0
240 -50 m 0
 240 -28 258 -10 280 -10 c 2
 320 -10 l 2
 342 -10 360 -28 360 -50 c 0
 360 -72 342 -90 320 -90 c 2
 280 -90 l 2
 258 -90 240 -72 240 -50 c 0
440 50 m 0
 440 72 458 90 480 90 c 2
 520 90 l 2
 542 90 560 72 560 50 c 0
 560 28 542 10 520 10 c 2
 480 10 l 2
 458 10 440 28 440 50 c 0
240 50 m 0
 240 72 258 90 280 90 c 2
 320 90 l 2
 342 90 360 72 360 50 c 0
 360 28 342 10 320 10 c 2
 280 10 l 2
 258 10 240 28 240 50 c 0
440 150 m 0
 440 172 458 190 480 190 c 2
 520 190 l 2
 542 190 560 172 560 150 c 0
 560 128 542 110 520 110 c 2
 480 110 l 2
 458 110 440 128 440 150 c 0
240 150 m 0
 240 172 258 190 280 190 c 2
 320 190 l 2
 342 190 360 172 360 150 c 0
 360 128 342 110 320 110 c 2
 280 110 l 2
 258 110 240 128 240 150 c 0
440 250 m 0
 440 272 458 290 480 290 c 2
 520 290 l 2
 542 290 560 272 560 250 c 0
 560 228 542 210 520 210 c 2
 480 210 l 2
 458 210 440 228 440 250 c 0
240 250 m 0
 240 272 258 290 280 290 c 2
 320 290 l 2
 342 290 360 272 360 250 c 0
 360 228 342 210 320 210 c 2
 280 210 l 2
 258 210 240 228 240 250 c 0
440 350 m 0
 440 372 458 390 480 390 c 2
 520 390 l 2
 542 390 560 372 560 350 c 0
 560 328 542 310 520 310 c 2
 480 310 l 2
 458 310 440 328 440 350 c 0
140 350 m 0
 140 372 158 390 180 390 c 2
 320 390 l 2
 342 390 360 372 360 350 c 0
 360 328 342 310 320 310 c 2
 180 310 l 2
 158 310 140 328 140 350 c 0
440 450 m 0
 440 472 458 490 480 490 c 2
 520 490 l 2
 542 490 560 472 560 450 c 0
 560 428 542 410 520 410 c 2
 480 410 l 2
 458 410 440 428 440 450 c 0
40 450 m 0
 40 472 58 490 80 490 c 2
 320 490 l 2
 342 490 360 472 360 450 c 0
 360 428 342 410 320 410 c 2
 80 410 l 2
 58 410 40 428 40 450 c 0
440 550 m 0
 440 572 458 590 480 590 c 2
 520 590 l 2
 542 590 560 572 560 550 c 0
 560 528 542 510 520 510 c 2
 480 510 l 2
 458 510 440 528 440 550 c 0
40 550 m 0
 40 572 58 590 80 590 c 2
 320 590 l 2
 342 590 360 572 360 550 c 0
 360 528 342 510 320 510 c 2
 80 510 l 2
 58 510 40 528 40 550 c 0
140 650 m 0
 140 672 158 690 180 690 c 2
 520 690 l 2
 542 690 560 672 560 650 c 0
 560 628 542 610 520 610 c 2
 180 610 l 2
 158 610 140 628 140 650 c 0
EndSplineSet
EndChar

StartChar: periodcentered
Encoding: 183 183 115
Width: 200
VWidth: 0
Flags: HMW
LayerCount: 2
Fore
SplineSet
40 350 m 0
 40 372 58 390 80 390 c 2
 120 390 l 2
 142 390 160 372 160 350 c 0
 160 328 142 310 120 310 c 2
 80 310 l 2
 58 310 40 328 40 350 c 0
EndSplineSet
EndChar

StartChar: cedilla
Encoding: 184 184 116
Width: 300
Flags: HMW
LayerCount: 2
Fore
SplineSet
40 -150 m 0
 40 -128 58 -110 80 -110 c 2
 220 -110 l 2
 242 -110 260 -128 260 -150 c 0
 260 -172 242 -190 220 -190 c 2
 80 -190 l 2
 58 -190 40 -172 40 -150 c 0
140 -50 m 0
 140 -28 158 -10 180 -10 c 2
 220 -10 l 2
 242 -10 260 -28 260 -50 c 0
 260 -72 242 -90 220 -90 c 2
 180 -90 l 2
 158 -90 140 -72 140 -50 c 0
EndSplineSet
EndChar

StartChar: uni00B9
Encoding: 185 185 117
Width: 400
Flags: HMW
LayerCount: 2
Fore
SplineSet
40 250 m 0
 40 272 58 290 80 290 c 2
 320 290 l 2
 342 290 360 272 360 250 c 0
 360 228 342 210 320 210 c 2
 80 210 l 2
 58 210 40 228 40 250 c 0
140 350 m 0
 140 372 158 390 180 390 c 2
 220 390 l 2
 242 390 260 372 260 350 c 0
 260 328 242 310 220 310 c 2
 180 310 l 2
 158 310 140 328 140 350 c 0
140 450 m 0
 140 472 158 490 180 490 c 2
 220 490 l 2
 242 490 260 472 260 450 c 0
 260 428 242 410 220 410 c 2
 180 410 l 2
 158 410 140 428 140 450 c 0
40 550 m 0
 40 572 58 590 80 590 c 2
 220 590 l 2
 242 590 260 572 260 550 c 0
 260 528 242 510 220 510 c 2
 80 510 l 2
 58 510 40 528 40 550 c 0
140 650 m 0
 140 672 158 690 180 690 c 2
 220 690 l 2
 242 690 260 672 260 650 c 0
 260 628 242 610 220 610 c 2
 180 610 l 2
 158 610 140 628 140 650 c 0
EndSplineSet
EndChar

StartChar: ordmasculine
Encoding: 186 186 118
Width: 500
Flags: HMW
LayerCount: 2
Fore
SplineSet
40 150 m 0
 40 172 58 190 80 190 c 2
 420 190 l 2
 442 190 460 172 460 150 c 0
 460 128 442 110 420 110 c 2
 80 110 l 2
 58 110 40 128 40 150 c 0
140 350 m 0
 140 372 158 390 180 390 c 2
 320 390 l 2
 342 390 360 372 360 350 c 0
 360 328 342 310 320 310 c 2
 180 310 l 2
 158 310 140 328 140 350 c 0
340 450 m 0
 340 472 358 490 380 490 c 2
 420 490 l 2
 442 490 460 472 460 450 c 0
 460 428 442 410 420 410 c 2
 380 410 l 2
 358 410 340 428 340 450 c 0
40 450 m 0
 40 472 58 490 80 490 c 2
 120 490 l 2
 142 490 160 472 160 450 c 0
 160 428 142 410 120 410 c 2
 80 410 l 2
 58 410 40 428 40 450 c 0
340 550 m 0
 340 572 358 590 380 590 c 2
 420 590 l 2
 442 590 460 572 460 550 c 0
 460 528 442 510 420 510 c 2
 380 510 l 2
 358 510 340 528 340 550 c 0
40 550 m 0
 40 572 58 590 80 590 c 2
 120 590 l 2
 142 590 160 572 160 550 c 0
 160 528 142 510 120 510 c 2
 80 510 l 2
 58 510 40 528 40 550 c 0
140 650 m 0
 140 672 158 690 180 690 c 2
 320 690 l 2
 342 690 360 672 360 650 c 0
 360 628 342 610 320 610 c 2
 180 610 l 2
 158 610 140 628 140 650 c 0
EndSplineSet
EndChar

StartChar: questiondown
Encoding: 191 191 123
Width: 600
Flags: HMW
LayerCount: 2
Fore
SplineSet
140 -150 m 0
 140 -128 158 -110 180 -110 c 2
 420 -110 l 2
 442 -110 460 -128 460 -150 c 0
 460 -172 442 -190 420 -190 c 2
 180 -190 l 2
 158 -190 140 -172 140 -150 c 0
440 -50 m 0
 440 -28 458 -10 480 -10 c 2
 520 -10 l 2
 542 -10 560 -28 560 -50 c 0
 560 -72 542 -90 520 -90 c 2
 480 -90 l 2
 458 -90 440 -72 440 -50 c 0
40 -50 m 0
 40 -28 58 -10 80 -10 c 2
 120 -10 l 2
 142 -10 160 -28 160 -50 c 0
 160 -72 142 -90 120 -90 c 2
 80 -90 l 2
 58 -90 40 -72 40 -50 c 0
40 50 m 0
 40 72 58 90 80 90 c 2
 120 90 l 2
 142 90 160 72 160 50 c 0
 160 28 142 10 120 10 c 2
 80 10 l 2
 58 10 40 28 40 50 c 0
140 150 m 0
 140 172 158 190 180 190 c 2
 320 190 l 2
 342 190 360 172 360 150 c 0
 360 128 342 110 320 110 c 2
 180 110 l 2
 158 110 140 128 140 150 c 0
240 250 m 0
 240 272 258 290 280 290 c 2
 320 290 l 2
 342 290 360 272 360 250 c 0
 360 228 342 210 320 210 c 2
 280 210 l 2
 258 210 240 228 240 250 c 0
240 450 m 0
 240 472 258 490 280 490 c 2
 320 490 l 2
 342 490 360 472 360 450 c 0
 360 428 342 410 320 410 c 2
 280 410 l 2
 258 410 240 428 240 450 c 0
EndSplineSet
EndChar

StartChar: AE
Encoding: 198 198 124
Width: 600
Flags: HMW
AnchorPoint: "marks_below" 300 0 basechar 0
AnchorPoint: "marks_above" 300 800 basechar 0
LayerCount: 2
Fore
SplineSet
240 50 m 0
 240 72 258 90 280 90 c 2
 520 90 l 2
 542 90 560 72 560 50 c 0
 560 28 542 10 520 10 c 2
 280 10 l 2
 258 10 240 28 240 50 c 0
40 50 m 0
 40 72 58 90 80 90 c 2
 120 90 l 2
 142 90 160 72 160 50 c 0
 160 28 142 10 120 10 c 2
 80 10 l 2
 58 10 40 28 40 50 c 0
240 150 m 0
 240 172 258 190 280 190 c 2
 320 190 l 2
 342 190 360 172 360 150 c 0
 360 128 342 110 320 110 c 2
 280 110 l 2
 258 110 240 128 240 150 c 0
40 150 m 0
 40 172 58 190 80 190 c 2
 120 190 l 2
 142 190 160 172 160 150 c 0
 160 128 142 110 120 110 c 2
 80 110 l 2
 58 110 40 128 40 150 c 0
40 250 m 0
 40 272 58 290 80 290 c 2
 320 290 l 2
 342 290 360 272 360 250 c 0
 360 228 342 210 320 210 c 2
 80 210 l 2
 58 210 40 228 40 250 c 0
240 350 m 0
 240 372 258 390 280 390 c 2
 520 390 l 2
 542 390 560 372 560 350 c 0
 560 328 542 310 520 310 c 2
 280 310 l 2
 258 310 240 328 240 350 c 0
40 350 m 0
 40 372 58 390 80 390 c 2
 120 390 l 2
 142 390 160 372 160 350 c 0
 160 328 142 310 120 310 c 2
 80 310 l 2
 58 310 40 328 40 350 c 0
240 450 m 0
 240 472 258 490 280 490 c 2
 320 490 l 2
 342 490 360 472 360 450 c 0
 360 428 342 410 320 410 c 2
 280 410 l 2
 258 410 240 428 240 450 c 0
40 450 m 0
 40 472 58 490 80 490 c 2
 120 490 l 2
 142 490 160 472 160 450 c 0
 160 428 142 410 120 410 c 2
 80 410 l 2
 58 410 40 428 40 450 c 0
140 550 m 0
 140 572 158 590 180 590 c 2
 320 590 l 2
 342 590 360 572 360 550 c 0
 360 528 342 510 320 510 c 2
 180 510 l 2
 158 510 140 528 140 550 c 0
240 650 m 0
 240 672 258 690 280 690 c 2
 520 690 l 2
 542 690 560 672 560 650 c 0
 560 628 542 610 520 610 c 2
 280 610 l 2
 258 610 240 628 240 650 c 0
EndSplineSet
EndChar

StartChar: Eth
Encoding: 208 208 134
Width: 600
Flags: HMW
AnchorPoint: "marks_below" 300 0 basechar 0
AnchorPoint: "marks_above" 300 800 basechar 0
LayerCount: 2
Fore
SplineSet
140 50 m 0
 140 72 158 90 180 90 c 2
 320 90 l 2
 342 90 360 72 360 50 c 0
 360 28 342 10 320 10 c 2
 180 10 l 2
 158 10 140 28 140 50 c 0
340 150 m 0
 340 172 358 190 380 190 c 2
 420 190 l 2
 442 190 460 172 460 150 c 0
 460 128 442 110 420 110 c 2
 380 110 l 2
 358 110 340 128 340 150 c 0
140 150 m 0
 140 172 158 190 180 190 c 2
 220 190 l 2
 242 190 260 172 260 150 c 0
 260 128 242 110 220 110 c 2
 180 110 l 2
 158 110 140 128 140 150 c 0
440 250 m 0
 440 272 458 290 480 290 c 2
 520 290 l 2
 542 290 560 272 560 250 c 0
 560 228 542 210 520 210 c 2
 480 210 l 2
 458 210 440 228 440 250 c 0
140 250 m 0
 140 272 158 290 180 290 c 2
 220 290 l 2
 242 290 260 272 260 250 c 0
 260 228 242 210 220 210 c 2
 180 210 l 2
 158 210 140 228 140 250 c 0
440 350 m 0
 440 372 458 390 480 390 c 2
 520 390 l 2
 542 390 560 372 560 350 c 0
 560 328 542 310 520 310 c 2
 480 310 l 2
 458 310 440 328 440 350 c 0
40 350 m 0
 40 372 58 390 80 390 c 2
 320 390 l 2
 342 390 360 372 360 350 c 0
 360 328 342 310 320 310 c 2
 80 310 l 2
 58 310 40 328 40 350 c 0
440 450 m 0
 440 472 458 490 480 490 c 2
 520 490 l 2
 542 490 560 472 560 450 c 0
 560 428 542 410 520 410 c 2
 480 410 l 2
 458 410 440 428 440 450 c 0
140 450 m 0
 140 472 158 490 180 490 c 2
 220 490 l 2
 242 490 260 472 260 450 c 0
 260 428 242 410 220 410 c 2
 180 410 l 2
 158 410 140 428 140 450 c 0
340 550 m 0
 340 572 358 590 380 590 c 2
 420 590 l 2
 442 590 460 572 460 550 c 0
 460 528 442 510 420 510 c 2
 380 510 l 2
 358 510 340 528 340 550 c 0
140 550 m 0
 140 572 158 590 180 590 c 2
 220 590 l 2
 242 590 260 572 260 550 c 0
 260 528 242 510 220 510 c 2
 180 510 l 2
 158 510 140 528 140 550 c 0
140 650 m 0
 140 672 158 690 180 690 c 2
 320 690 l 2
 342 690 360 672 360 650 c 0
 360 628 342 610 320 610 c 2
 180 610 l 2
 158 610 140 628 140 650 c 0
EndSplineSet
EndChar

StartChar: Oslash
Encoding: 216 216 142
Width: 600
Flags: HMW
AnchorPoint: "marks_below" 300 0 basechar 0
AnchorPoint: "marks_above" 300 800 basechar 0
LayerCount: 2
Fore
SplineSet
140 50 m 0
 140 72 158 90 180 90 c 2
 420 90 l 2
 442 90 460 72 460 50 c 0
 460 28 442 10 420 10 c 2
 180 10 l 2
 158 10 140 28 140 50 c 0
440 150 m 0
 440 172 458 190 480 190 c 2
 520 190 l 2
 542 190 560 172 560 150 c 0
 560 128 542 110 520 110 c 2
 480 110 l 2
 458 110 440 128 440 150 c 0
40 150 m 0
 40 172 58 190 80 190 c 2
 120 190 l 2
 142 190 160 172 160 150 c 0
 160 128 142 110 120 110 c 2
 80 110 l 2
 58 110 40 128 40 150 c 0
440 250 m 0
 440 272 458 290 480 290 c 2
 520 290 l 2
 542 290 560 272 560 250 c 0
 560 228 542 210 520 210 c 2
 480 210 l 2
 458 210 440 228 440 250 c 0
140 250 m 0
 140 272 158 290 180 290 c 2
 220 290 l 2
 242 290 260 272 260 250 c 0
 260 228 242 210 220 210 c 2
 180 210 l 2
 158 210 140 228 140 250 c 0
440 350 m 0
 440 372 458 390 480 390 c 2
 520 390 l 2
 542 390 560 372 560 350 c 0
 560 328 542 310 520 310 c 2
 480 310 l 2
 458 310 440 328 440 350 c 0
240 350 m 0
 240 372 258 390 280 390 c 2
 320 390 l 2
 342 390 360 372 360 350 c 0
 360 328 342 310 320 310 c 2
 280 310 l 2
 258 310 240 328 240 350 c 0
40 350 m 0
 40 372 58 390 80 390 c 2
 120 390 l 2
 142 390 160 372 160 350 c 0
 160 328 142 310 120 310 c 2
 80 310 l 2
 58 310 40 328 40 350 c 0
340 450 m 0
 340 472 358 490 380 490 c 2
 420 490 l 2
 442 490 460 472 460 450 c 0
 460 428 442 410 420 410 c 2
 380 410 l 2
 358 410 340 428 340 450 c 0
40 450 m 0
 40 472 58 490 80 490 c 2
 120 490 l 2
 142 490 160 472 160 450 c 0
 160 428 142 410 120 410 c 2
 80 410 l 2
 58 410 40 428 40 450 c 0
440 550 m 0
 440 572 458 590 480 590 c 2
 520 590 l 2
 542 590 560 572 560 550 c 0
 560 528 542 510 520 510 c 2
 480 510 l 2
 458 510 440 528 440 550 c 0
40 550 m 0
 40 572 58 590 80 590 c 2
 120 590 l 2
 142 590 160 572 160 550 c 0
 160 528 142 510 120 510 c 2
 80 510 l 2
 58 510 40 528 40 550 c 0
140 650 m 0
 140 672 158 690 180 690 c 2
 420 690 l 2
 442 690 460 672 460 650 c 0
 460 628 442 610 420 610 c 2
 180 610 l 2
 158 610 140 628 140 650 c 0
EndSplineSet
EndChar

StartChar: Thorn
Encoding: 222 222 148
Width: 600
Flags: HMW
AnchorPoint: "marks_below" 300 0 basechar 0
AnchorPoint: "marks_above" 300 800 basechar 0
LayerCount: 2
Fore
SplineSet
40 50 m 0
 40 72 58 90 80 90 c 2
 120 90 l 2
 142 90 160 72 160 50 c 0
 160 28 142 10 120 10 c 2
 80 10 l 2
 58 10 40 28 40 50 c 0
40 150 m 0
 40 172 58 190 80 190 c 2
 420 190 l 2
 442 190 460 172 460 150 c 0
 460 128 442 110 420 110 c 2
 80 110 l 2
 58 110 40 128 40 150 c 0
440 250 m 0
 440 272 458 290 480 290 c 2
 520 290 l 2
 542 290 560 272 560 250 c 0
 560 228 542 210 520 210 c 2
 480 210 l 2
 458 210 440 228 440 250 c 0
40 250 m 0
 40 272 58 290 80 290 c 2
 120 290 l 2
 142 290 160 272 160 250 c 0
 160 228 142 210 120 210 c 2
 80 210 l 2
 58 210 40 228 40 250 c 0
440 350 m 0
 440 372 458 390 480 390 c 2
 520 390 l 2
 542 390 560 372 560 350 c 0
 560 328 542 310 520 310 c 2
 480 310 l 2
 458 310 440 328 440 350 c 0
40 350 m 0
 40 372 58 390 80 390 c 2
 120 390 l 2
 142 390 160 372 160 350 c 0
 160 328 142 310 120 310 c 2
 80 310 l 2
 58 310 40 328 40 350 c 0
440 450 m 0
 440 472 458 490 480 490 c 2
 520 490 l 2
 542 490 560 472 560 450 c 0
 560 428 542 410 520 410 c 2
 480 410 l 2
 458 410 440 428 440 450 c 0
40 450 m 0
 40 472 58 490 80 490 c 2
 120 490 l 2
 142 490 160 472 160 450 c 0
 160 428 142 410 120 410 c 2
 80 410 l 2
 58 410 40 428 40 450 c 0
40 550 m 0
 40 572 58 590 80 590 c 2
 420 590 l 2
 442 590 460 572 460 550 c 0
 460 528 442 510 420 510 c 2
 80 510 l 2
 58 510 40 528 40 550 c 0
40 650 m 0
 40 672 58 690 80 690 c 2
 120 690 l 2
 142 690 160 672 160 650 c 0
 160 628 142 610 120 610 c 2
 80 610 l 2
 58 610 40 628 40 650 c 0
EndSplineSet
EndChar

StartChar: germandbls
Encoding: 223 223 149
Width: 600
Flags: HMW
AnchorPoint: "marks_below" 300 0 basechar 0
AnchorPoint: "marks_above" 300 800 basechar 0
LayerCount: 2
Fore
SplineSet
240 50 m 0
 240 72 258 90 280 90 c 2
 420 90 l 2
 442 90 460 72 460 50 c 0
 460 28 442 10 420 10 c 2
 280 10 l 2
 258 10 240 28 240 50 c 0
40 50 m 0
 40 72 58 90 80 90 c 2
 120 90 l 2
 142 90 160 72 160 50 c 0
 160 28 142 10 120 10 c 2
 80 10 l 2
 58 10 40 28 40 50 c 0
440 150 m 0
 440 172 458 190 480 190 c 2
 520 190 l 2
 542 190 560 172 560 150 c 0
 560 128 542 110 520 110 c 2
 480 110 l 2
 458 110 440 128 440 150 c 0
40 150 m 0
 40 172 58 190 80 190 c 2
 120 190 l 2
 142 190 160 172 160 150 c 0
 160 128 142 110 120 110 c 2
 80 110 l 2
 58 110 40 128 40 150 c 0
440 250 m 0
 440 272 458 290 480 290 c 2
 520 290 l 2
 542 290 560 272 560 250 c 0
 560 228 542 210 520 210 c 2
 480 210 l 2
 458 210 440 228 440 250 c 0
40 250 m 0
 40 272 58 290 80 290 c 2
 120 290 l 2
 142 290 160 272 160 250 c 0
 160 228 142 210 120 210 c 2
 80 210 l 2
 58 210 40 228 40 250 c 0
240 350 m 0
 240 372 258 390 280 390 c 2
 420 390 l 2
 442 390 460 372 460 350 c 0
 460 328 442 310 420 310 c 2
 280 310 l 2
 258 310 240 328 240 350 c 0
40 350 m 0
 40 372 58 390 80 390 c 2
 120 390 l 2
 142 390 160 372 160 350 c 0
 160 328 142 310 120 310 c 2
 80 310 l 2
 58 310 40 328 40 350 c 0
340 450 m 0
 340 472 358 490 380 490 c 2
 420 490 l 2
 442 490 460 472 460 450 c 0
 460 428 442 410 420 410 c 2
 380 410 l 2
 358 410 340 428 340 450 c 0
40 450 m 0
 40 472 58 490 80 490 c 2
 120 490 l 2
 142 490 160 472 160 450 c 0
 160 428 142 410 120 410 c 2
 80 410 l 2
 58 410 40 428 40 450 c 0
340 550 m 0
 340 572 358 590 380 590 c 2
 420 590 l 2
 442 590 460 572 460 550 c 0
 460 528 442 510 420 510 c 2
 380 510 l 2
 358 510 340 528 340 550 c 0
40 550 m 0
 40 572 58 590 80 590 c 2
 120 590 l 2
 142 590 160 572 160 550 c 0
 160 528 142 510 120 510 c 2
 80 510 l 2
 58 510 40 528 40 550 c 0
140 650 m 0
 140 672 158 690 180 690 c 2
 320 690 l 2
 342 690 360 672 360 650 c 0
 360 628 342 610 320 610 c 2
 180 610 l 2
 158 610 140 628 140 650 c 0
EndSplineSet
EndChar

StartChar: ae
Encoding: 230 230 156
Width: 600
Flags: HMW
AnchorPoint: "marks_below" 300 0 basechar 0
AnchorPoint: "marks_above" 300 600 basechar 0
LayerCount: 2
Fore
SplineSet
340 50 m 0
 340 72 358 90 380 90 c 2
 520 90 l 2
 542 90 560 72 560 50 c 0
 560 28 542 10 520 10 c 2
 380 10 l 2
 358 10 340 28 340 50 c 0
140 50 m 0
 140 72 158 90 180 90 c 2
 220 90 l 2
 242 90 260 72 260 50 c 0
 260 28 242 10 220 10 c 2
 180 10 l 2
 158 10 140 28 140 50 c 0
240 150 m 0
 240 172 258 190 280 190 c 2
 320 190 l 2
 342 190 360 172 360 150 c 0
 360 128 342 110 320 110 c 2
 280 110 l 2
 258 110 240 128 240 150 c 0
40 150 m 0
 40 172 58 190 80 190 c 2
 120 190 l 2
 142 190 160 172 160 150 c 0
 160 128 142 110 120 110 c 2
 80 110 l 2
 58 110 40 128 40 150 c 0
140 250 m 0
 140 272 158 290 180 290 c 2
 520 290 l 2
 542 290 560 272 560 250 c 0
 560 228 542 210 520 210 c 2
 180 210 l 2
 158 210 140 228 140 250 c 0
440 350 m 0
 440 372 458 390 480 390 c 2
 520 390 l 2
 542 390 560 372 560 350 c 0
 560 328 542 310 520 310 c 2
 480 310 l 2
 458 310 440 328 440 350 c 0
240 350 m 0
 240 372 258 390 280 390 c 2
 320 390 l 2
 342 390 360 372 360 350 c 0
 360 328 342 310 320 310 c 2
 280 310 l 2
 258 310 240 328 240 350 c 0
340 450 m 0
 340 472 358 490 380 490 c 2
 420 490 l 2
 442 490 460 472 460 450 c 0
 460 428 442 410 420 410 c 2
 380 410 l 2
 358 410 340 428 340 450 c 0
40 450 m 0
 40 472 58 490 80 490 c 2
 220 490 l 2
 242 490 260 472 260 450 c 0
 260 428 242 410 220 410 c 2
 80 410 l 2
 58 410 40 428 40 450 c 0
EndSplineSet
EndChar

StartChar: eth
Encoding: 240 240 166
Width: 600
Flags: HMW
AnchorPoint: "marks_below" 300 0 basechar 0
AnchorPoint: "marks_above" 300 800 basechar 0
LayerCount: 2
Fore
SplineSet
140 50 m 0
 140 72 158 90 180 90 c 2
 420 90 l 2
 442 90 460 72 460 50 c 0
 460 28 442 10 420 10 c 2
 180 10 l 2
 158 10 140 28 140 50 c 0
440 150 m 0
 440 172 458 190 480 190 c 2
 520 190 l 2
 542 190 560 172 560 150 c 0
 560 128 542 110 520 110 c 2
 480 110 l 2
 458 110 440 128 440 150 c 0
40 150 m 0
 40 172 58 190 80 190 c 2
 120 190 l 2
 142 190 160 172 160 150 c 0
 160 128 142 110 120 110 c 2
 80 110 l 2
 58 110 40 128 40 150 c 0
140 250 m 0
 140 272 158 290 180 290 c 2
 520 290 l 2
 542 290 560 272 560 250 c 0
 560 228 542 210 520 210 c 2
 180 210 l 2
 158 210 140 228 140 250 c 0
440 350 m 0
 440 372 458 390 480 390 c 2
 520 390 l 2
 542 390 560 372 560 350 c 0
 560 328 542 310 520 310 c 2
 480 310 l 2
 458 310 440 328 440 350 c 0
440 450 m 0
 440 472 458 490 480 490 c 2
 520 490 l 2
 542 490 560 472 560 450 c 0
 560 428 542 410 520 410 c 2
 480 410 l 2
 458 410 440 428 440 450 c 0
240 450 m 0
 240 472 258 490 280 490 c 2
 320 490 l 2
 342 490 360 472 360 450 c 0
 360 428 342 410 320 410 c 2
 280 410 l 2
 258 410 240 428 240 450 c 0
340 550 m 0
 340 572 358 590 380 590 c 2
 420 590 l 2
 442 590 460 572 460 550 c 0
 460 528 442 510 420 510 c 2
 380 510 l 2
 358 510 340 528 340 550 c 0
440 650 m 0
 440 672 458 690 480 690 c 2
 520 690 l 2
 542 690 560 672 560 650 c 0
 560 628 542 610 520 610 c 2
 480 610 l 2
 458 610 440 628 440 650 c 0
140 650 m 0
 140 672 158 690 180 690 c 2
 320 690 l 2
 342 690 360 672 360 650 c 0
 360 628 342 610 320 610 c 2
 180 610 l 2
 158 610 140 628 140 650 c 0
EndSplineSet
EndChar

StartChar: oslash
Encoding: 248 248 174
Width: 600
Flags: HMW
AnchorPoint: "marks_below" 300 0 basechar 0
AnchorPoint: "marks_above" 300 600 basechar 0
LayerCount: 2
Fore
SplineSet
240 50 m 0
 240 72 258 90 280 90 c 2
 420 90 l 2
 442 90 460 72 460 50 c 0
 460 28 442 10 420 10 c 2
 280 10 l 2
 258 10 240 28 240 50 c 0
40 50 m 0
 40 72 58 90 80 90 c 2
 120 90 l 2
 142 90 160 72 160 50 c 0
 160 28 142 10 120 10 c 2
 80 10 l 2
 58 10 40 28 40 50 c 0
440 150 m 0
 440 172 458 190 480 190 c 2
 520 190 l 2
 542 190 560 172 560 150 c 0
 560 128 542 110 520 110 c 2
 480 110 l 2
 458 110 440 128 440 150 c 0
140 150 m 0
 140 172 158 190 180 190 c 2
 220 190 l 2
 242 190 260 172 260 150 c 0
 260 128 242 110 220 110 c 2
 180 110 l 2
 158 110 140 128 140 150 c 0
440 250 m 0
 440 272 458 290 480 290 c 2
 520 290 l 2
 542 290 560 272 560 250 c 0
 560 228 542 210 520 210 c 2
 480 210 l 2
 458 210 440 228 440 250 c 0
240 250 m 0
 240 272 258 290 280 290 c 2
 320 290 l 2
 342 290 360 272 360 250 c 0
 360 228 342 210 320 210 c 2
 280 210 l 2
 258 210 240 228 240 250 c 0
40 250 m 0
 40 272 58 290 80 290 c 2
 120 290 l 2
 142 290 160 272 160 250 c 0
 160 228 142 210 120 210 c 2
 80 210 l 2
 58 210 40 228 40 250 c 0
340 350 m 0
 340 372 358 390 380 390 c 2
 420 390 l 2
 442 390 460 372 460 350 c 0
 460 328 442 310 420 310 c 2
 380 310 l 2
 358 310 340 328 340 350 c 0
40 350 m 0
 40 372 58 390 80 390 c 2
 120 390 l 2
 142 390 160 372 160 350 c 0
 160 328 142 310 120 310 c 2
 80 310 l 2
 58 310 40 328 40 350 c 0
440 450 m 0
 440 472 458 490 480 490 c 2
 520 490 l 2
 542 490 560 472 560 450 c 0
 560 428 542 410 520 410 c 2
 480 410 l 2
 458 410 440 428 440 450 c 0
140 450 m 0
 140 472 158 490 180 490 c 2
 320 490 l 2
 342 490 360 472 360 450 c 0
 360 428 342 410 320 410 c 2
 180 410 l 2
 158 410 140 428 140 450 c 0
EndSplineSet
EndChar

StartChar: thorn
Encoding: 254 254 180
Width: 600
Flags: HMW
LayerCount: 2
Fore
SplineSet
40 -150 m 0
 40 -128 58 -110 80 -110 c 2
 120 -110 l 2
 142 -110 160 -128 160 -150 c 0
 160 -172 142 -190 120 -190 c 2
 80 -190 l 2
 58 -190 40 -172 40 -150 c 0
40 -50 m 0
 40 -28 58 -10 80 -10 c 2
 120 -10 l 2
 142 -10 160 -28 160 -50 c 0
 160 -72 142 -90 120 -90 c 2
 80 -90 l 2
 58 -90 40 -72 40 -50 c 0
240 50 m 0
 240 72 258 90 280 90 c 2
 420 90 l 2
 442 90 460 72 460 50 c 0
 460 28 442 10 420 10 c 2
 280 10 l 2
 258 10 240 28 240 50 c 0
40 50 m 0
 40 72 58 90 80 90 c 2
 120 90 l 2
 142 90 160 72 160 50 c 0
 160 28 142 10 120 10 c 2
 80 10 l 2
 58 10 40 28 40 50 c 0
440 150 m 0
 440 172 458 190 480 190 c 2
 520 190 l 2
 542 190 560 172 560 150 c 0
 560 128 542 110 520 110 c 2
 480 110 l 2
 458 110 440 128 440 150 c 0
40 150 m 0
 40 172 58 190 80 190 c 2
 220 190 l 2
 242 190 260 172 260 150 c 0
 260 128 242 110 220 110 c 2
 80 110 l 2
 58 110 40 128 40 150 c 0
440 250 m 0
 440 272 458 290 480 290 c 2
 520 290 l 2
 542 290 560 272 560 250 c 0
 560 228 542 210 520 210 c 2
 480 210 l 2
 458 210 440 228 440 250 c 0
40 250 m 0
 40 272 58 290 80 290 c 2
 120 290 l 2
 142 290 160 272 160 250 c 0
 160 228 142 210 120 210 c 2
 80 210 l 2
 58 210 40 228 40 250 c 0
440 350 m 0
 440 372 458 390 480 390 c 2
 520 390 l 2
 542 390 560 372 560 350 c 0
 560 328 542 310 520 310 c 2
 480 310 l 2
 458 310 440 328 440 350 c 0
40 350 m 0
 40 372 58 390 80 390 c 2
 220 390 l 2
 242 390 260 372 260 350 c 0
 260 328 242 310 220 310 c 2
 80 310 l 2
 58 310 40 328 40 350 c 0
240 450 m 0
 240 472 258 490 280 490 c 2
 420 490 l 2
 442 490 460 472 460 450 c 0
 460 428 442 410 420 410 c 2
 280 410 l 2
 258 410 240 428 240 450 c 0
40 450 m 0
 40 472 58 490 80 490 c 2
 120 490 l 2
 142 490 160 472 160 450 c 0
 160 428 142 410 120 410 c 2
 80 410 l 2
 58 410 40 428 40 450 c 0
40 550 m 0
 40 572 58 590 80 590 c 2
 120 590 l 2
 142 590 160 572 160 550 c 0
 160 528 142 510 120 510 c 2
 80 510 l 2
 58 510 40 528 40 550 c 0
40 650 m 0
 40 672 58 690 80 690 c 2
 120 690 l 2
 142 690 160 672 160 650 c 0
 160 628 142 610 120 610 c 2
 80 610 l 2
 58 610 40 628 40 650 c 0
EndSplineSet
EndChar

StartChar: dotlessi
Encoding: 305 305 182
Width: 400
Flags: HMW
AnchorPoint: "marks_above" 200 600 basechar 0
LayerCount: 2
Fore
SplineSet
40 50 m 0
 40 72 58 90 80 90 c 2
 320 90 l 2
 342 90 360 72 360 50 c 0
 360 28 342 10 320 10 c 2
 80 10 l 2
 58 10 40 28 40 50 c 0
140 150 m 0
 140 172 158 190 180 190 c 2
 220 190 l 2
 242 190 260 172 260 150 c 0
 260 128 242 110 220 110 c 2
 180 110 l 2
 158 110 140 128 140 150 c 0
140 250 m 0
 140 272 158 290 180 290 c 2
 220 290 l 2
 242 290 260 272 260 250 c 0
 260 228 242 210 220 210 c 2
 180 210 l 2
 158 210 140 228 140 250 c 0
140 350 m 0
 140 372 158 390 180 390 c 2
 220 390 l 2
 242 390 260 372 260 350 c 0
 260 328 242 310 220 310 c 2
 180 310 l 2
 158 310 140 328 140 350 c 0
40 450 m 0
 40 472 58 490 80 490 c 2
 220 490 l 2
 242 490 260 472 260 450 c 0
 260 428 242 410 220 410 c 2
 80 410 l 2
 58 410 40 428 40 450 c 0
EndSplineSet
EndChar

StartChar: Lslash
Encoding: 321 321 183
Width: 600
Flags: HMW
AnchorPoint: "marks_below" 300 0 basechar 0
AnchorPoint: "marks_above" 300 800 basechar 0
LayerCount: 2
Fore
SplineSet
140 50 m 0
 140 72 158 90 180 90 c 2
 520 90 l 2
 542 90 560 72 560 50 c 0
 560 28 542 10 520 10 c 2
 180 10 l 2
 158 10 140 28 140 50 c 0
140 150 m 0
 140 172 158 190 180 190 c 2
 220 190 l 2
 242 190 260 172 260 150 c 0
 260 128 242 110 220 110 c 2
 180 110 l 2
 158 110 140 128 140 150 c 0
40 250 m 0
 40 272 58 290 80 290 c 2
 220 290 l 2
 242 290 260 272 260 250 c 0
 260 228 242 210 220 210 c 2
 80 210 l 2
 58 210 40 228 40 250 c 0
140 350 m 0
 140 372 158 390 180 390 c 2
 220 390 l 2
 242 390 260 372 260 350 c 0
 260 328 242 310 220 310 c 2
 180 310 l 2
 158 310 140 328 140 350 c 0
140 450 m 0
 140 472 158 490 180 490 c 2
 320 490 l 2
 342 490 360 472 360 450 c 0
 360 428 342 410 320 410 c 2
 180 410 l 2
 158 410 140 428 140 450 c 0
340 550 m 0
 340 572 358 590 380 590 c 2
 420 590 l 2
 442 590 460 572 460 550 c 0
 460 528 442 510 420 510 c 2
 380 510 l 2
 358 510 340 528 340 550 c 0
140 550 m 0
 140 572 158 590 180 590 c 2
 220 590 l 2
 242 590 260 572 260 550 c 0
 260 528 242 510 220 510 c 2
 180 510 l 2
 158 510 140 528 140 550 c 0
140 650 m 0
 140 672 158 690 180 690 c 2
 220 690 l 2
 242 690 260 672 260 650 c 0
 260 628 242 610 220 610 c 2
 180 610 l 2
 158 610 140 628 140 650 c 0
EndSplineSet
EndChar

StartChar: lslash
Encoding: 322 322 184
Width: 400
Flags: HMW
AnchorPoint: "marks_below" 200 0 basechar 0
AnchorPoint: "ogonek" 200 0 basechar 0
AnchorPoint: "marks_above" 200 800 basechar 0
LayerCount: 2
Fore
SplineSet
40 50 m 0
 40 72 58 90 80 90 c 2
 320 90 l 2
 342 90 360 72 360 50 c 0
 360 28 342 10 320 10 c 2
 80 10 l 2
 58 10 40 28 40 50 c 0
140 150 m 0
 140 172 158 190 180 190 c 2
 220 190 l 2
 242 190 260 172 260 150 c 0
 260 128 242 110 220 110 c 2
 180 110 l 2
 158 110 140 128 140 150 c 0
40 250 m 0
 40 272 58 290 80 290 c 2
 220 290 l 2
 242 290 260 272 260 250 c 0
 260 228 242 210 220 210 c 2
 80 210 l 2
 58 210 40 228 40 250 c 0
140 350 m 0
 140 372 158 390 180 390 c 2
 220 390 l 2
 242 390 260 372 260 350 c 0
 260 328 242 310 220 310 c 2
 180 310 l 2
 158 310 140 328 140 350 c 0
140 450 m 0
 140 472 158 490 180 490 c 2
 320 490 l 2
 342 490 360 472 360 450 c 0
 360 428 342 410 320 410 c 2
 180 410 l 2
 158 410 140 428 140 450 c 0
140 550 m 0
 140 572 158 590 180 590 c 2
 220 590 l 2
 242 590 260 572 260 550 c 0
 260 528 242 510 220 510 c 2
 180 510 l 2
 158 510 140 528 140 550 c 0
40 650 m 0
 40 672 58 690 80 690 c 2
 220 690 l 2
 242 690 260 672 260 650 c 0
 260 628 242 610 220 610 c 2
 80 610 l 2
 58 610 40 628 40 650 c 0
EndSplineSet
EndChar

StartChar: OE
Encoding: 338 338 185
Width: 600
Flags: HMW
AnchorPoint: "marks_below" 300 0 basechar 0
AnchorPoint: "marks_above" 300 800 basechar 0
LayerCount: 2
Fore
SplineSet
140 50 m 0
 140 72 158 90 180 90 c 2
 520 90 l 2
 542 90 560 72 560 50 c 0
 560 28 542 10 520 10 c 2
 180 10 l 2
 158 10 140 28 140 50 c 0
240 150 m 0
 240 172 258 190 280 190 c 2
 320 190 l 2
 342 190 360 172 360 150 c 0
 360 128 342 110 320 110 c 2
 280 110 l 2
 258 110 240 128 240 150 c 0
40 150 m 0
 40 172 58 190 80 190 c 2
 120 190 l 2
 142 190 160 172 160 150 c 0
 160 128 142 110 120 110 c 2
 80 110 l 2
 58 110 40 128 40 150 c 0
240 250 m 0
 240 272 258 290 280 290 c 2
 320 290 l 2
 342 290 360 272 360 250 c 0
 360 228 342 210 320 210 c 2
 280 210 l 2
 258 210 240 228 240 250 c 0
40 250 m 0
 40 272 58 290 80 290 c 2
 120 290 l 2
 142 290 160 272 160 250 c 0
 160 228 142 210 120 210 c 2
 80 210 l 2
 58 210 40 228 40 250 c 0
240 350 m 0
 240 372 258 390 280 390 c 2
 520 390 l 2
 542 390 560 372 560 350 c 0
 560 328 542 310 520 310 c 2
 280 310 l 2
 258 310 240 328 240 350 c 0
40 350 m 0
 40 372 58 390 80 390 c 2
 120 390 l 2
 142 390 160 372 160 350 c 0
 160 328 142 310 120 310 c 2
 80 310 l 2
 58 310 40 328 40 350 c 0
240 450 m 0
 240 472 258 490 280 490 c 2
 320 490 l 2
 342 490 360 472 360 450 c 0
 360 428 342 410 320 410 c 2
 280 410 l 2
 258 410 240 428 240 450 c 0
40 450 m 0
 40 472 58 490 80 490 c 2
 120 490 l 2
 142 490 160 472 160 450 c 0
 160 428 142 410 120 410 c 2
 80 410 l 2
 58 410 40 428 40 450 c 0
240 550 m 0
 240 572 258 590 280 590 c 2
 320 590 l 2
 342 590 360 572 360 550 c 0
 360 528 342 510 320 510 c 2
 280 510 l 2
 258 510 240 528 240 550 c 0
40 550 m 0
 40 572 58 590 80 590 c 2
 120 590 l 2
 142 590 160 572 160 550 c 0
 160 528 142 510 120 510 c 2
 80 510 l 2
 58 510 40 528 40 550 c 0
140 650 m 0
 140 672 158 690 180 690 c 2
 520 690 l 2
 542 690 560 672 560 650 c 0
 560 628 542 610 520 610 c 2
 180 610 l 2
 158 610 140 628 140 650 c 0
EndSplineSet
EndChar

StartChar: oe
Encoding: 339 339 186
Width: 600
Flags: HMW
AnchorPoint: "marks_below" 300 0 basechar 0
AnchorPoint: "marks_above" 300 600 basechar 0
LayerCount: 2
Fore
SplineSet
340 50 m 0
 340 72 358 90 380 90 c 2
 520 90 l 2
 542 90 560 72 560 50 c 0
 560 28 542 10 520 10 c 2
 380 10 l 2
 358 10 340 28 340 50 c 0
140 50 m 0
 140 72 158 90 180 90 c 2
 220 90 l 2
 242 90 260 72 260 50 c 0
 260 28 242 10 220 10 c 2
 180 10 l 2
 158 10 140 28 140 50 c 0
240 150 m 0
 240 172 258 190 280 190 c 2
 320 190 l 2
 342 190 360 172 360 150 c 0
 360 128 342 110 320 110 c 2
 280 110 l 2
 258 110 240 128 240 150 c 0
40 150 m 0
 40 172 58 190 80 190 c 2
 120 190 l 2
 142 190 160 172 160 150 c 0
 160 128 142 110 120 110 c 2
 80 110 l 2
 58 110 40 128 40 150 c 0
240 250 m 0
 240 272 258 290 280 290 c 2
 520 290 l 2
 542 290 560 272 560 250 c 0
 560 228 542 210 520 210 c 2
 280 210 l 2
 258 210 240 228 240 250 c 0
40 250 m 0
 40 272 58 290 80 290 c 2
 120 290 l 2
 142 290 160 272 160 250 c 0
 160 228 142 210 120 210 c 2
 80 210 l 2
 58 210 40 228 40 250 c 0
440 350 m 0
 440 372 458 390 480 390 c 2
 520 390 l 2
 542 390 560 372 560 350 c 0
 560 328 542 310 520 310 c 2
 480 310 l 2
 458 310 440 328 440 350 c 0
240 350 m 0
 240 372 258 390 280 390 c 2
 320 390 l 2
 342 390 360 372 360 350 c 0
 360 328 342 310 320 310 c 2
 280 310 l 2
 258 310 240 328 240 350 c 0
40 350 m 0
 40 372 58 390 80 390 c 2
 120 390 l 2
 142 390 160 372 160 350 c 0
 160 328 142 310 120 310 c 2
 80 310 l 2
 58 310 40 328 40 350 c 0
340 450 m 0
 340 472 358 490 380 490 c 2
 420 490 l 2
 442 490 460 472 460 450 c 0
 460 428 442 410 420 410 c 2
 380 410 l 2
 358 410 340 428 340 450 c 0
140 450 m 0
 140 472 158 490 180 490 c 2
 220 490 l 2
 242 490 260 472 260 450 c 0
 260 428 242 410 220 410 c 2
 180 410 l 2
 158 410 140 428 140 450 c 0
EndSplineSet
EndChar

StartChar: florin
Encoding: 402 402 187
Width: 600
Flags: HMW
LayerCount: 2
Fore
SplineSet
40 -150 m 0
 40 -128 58 -110 80 -110 c 2
 220 -110 l 2
 242 -110 260 -128 260 -150 c 0
 260 -172 242 -190 220 -190 c 2
 80 -190 l 2
 58 -190 40 -172 40 -150 c 0
240 -50 m 0
 240 -28 258 -10 280 -10 c 2
 320 -10 l 2
 342 -10 360 -28 360 -50 c 0
 360 -72 342 -90 320 -90 c 2
 280 -90 l 2
 258 -90 240 -72 240 -50 c 0
240 50 m 0
 240 72 258 90 280 90 c 2
 320 90 l 2
 342 90 360 72 360 50 c 0
 360 28 342 10 320 10 c 2
 280 10 l 2
 258 10 240 28 240 50 c 0
240 150 m 0
 240 172 258 190 280 190 c 2
 320 190 l 2
 342 190 360 172 360 150 c 0
 360 128 342 110 320 110 c 2
 280 110 l 2
 258 110 240 128 240 150 c 0
240 250 m 0
 240 272 258 290 280 290 c 2
 320 290 l 2
 342 290 360 272 360 250 c 0
 360 228 342 210 320 210 c 2
 280 210 l 2
 258 210 240 228 240 250 c 0
140 350 m 0
 140 372 158 390 180 390 c 2
 520 390 l 2
 542 390 560 372 560 350 c 0
 560 328 542 310 520 310 c 2
 180 310 l 2
 158 310 140 328 140 350 c 0
240 450 m 0
 240 472 258 490 280 490 c 2
 320 490 l 2
 342 490 360 472 360 450 c 0
 360 428 342 410 320 410 c 2
 280 410 l 2
 258 410 240 428 240 450 c 0
240 550 m 0
 240 572 258 590 280 590 c 2
 320 590 l 2
 342 590 360 572 360 550 c 0
 360 528 342 510 320 510 c 2
 280 510 l 2
 258 510 240 528 240 550 c 0
340 650 m 0
 340 672 358 690 380 690 c 2
 520 690 l 2
 542 690 560 672 560 650 c 0
 560 628 542 610 520 610 c 2
 380 610 l 2
 358 610 340 628 340 650 c 0
EndSplineSet
EndChar

StartChar: circumflex
Encoding: 710 710 188
Width: 400
Flags: HMW
LayerCount: 2
Fore
SplineSet
240 650 m 0
 240 672 258 690 280 690 c 2
 320 690 l 2
 342 690 360 672 360 650 c 0
 360 628 342 610 320 610 c 2
 280 610 l 2
 258 610 240 628 240 650 c 0
40 650 m 0
 40 672 58 690 80 690 c 2
 120 690 l 2
 142 690 160 672 160 650 c 0
 160 628 142 610 120 610 c 2
 80 610 l 2
 58 610 40 628 40 650 c 0
140 750 m 0
 140 772 158 790 180 790 c 2
 220 790 l 2
 242 790 260 772 260 750 c 0
 260 728 242 710 220 710 c 2
 180 710 l 2
 158 710 140 728 140 750 c 0
EndSplineSet
EndChar

StartChar: caron
Encoding: 711 711 189
Width: 400
Flags: HMW
LayerCount: 2
Fore
SplineSet
140 650 m 0
 140 672 158 690 180 690 c 2
 220 690 l 2
 242 690 260 672 260 650 c 0
 260 628 242 610 220 610 c 2
 180 610 l 2
 158 610 140 628 140 650 c 0
240 750 m 0
 240 772 258 790 280 790 c 2
 320 790 l 2
 342 790 360 772 360 750 c 0
 360 728 342 710 320 710 c 2
 280 710 l 2
 258 710 240 728 240 750 c 0
40 750 m 0
 40 772 58 790 80 790 c 2
 120 790 l 2
 142 790 160 772 160 750 c 0
 160 728 142 710 120 710 c 2
 80 710 l 2
 58 710 40 728 40 750 c 0
EndSplineSet
EndChar

StartChar: breve
Encoding: 728 728 190
Width: 600
Flags: HMW
LayerCount: 2
Fore
SplineSet
140 650 m 0
 140 672 158 690 180 690 c 2
 420 690 l 2
 442 690 460 672 460 650 c 0
 460 628 442 610 420 610 c 2
 180 610 l 2
 158 610 140 628 140 650 c 0
440 750 m 0
 440 772 458 790 480 790 c 2
 520 790 l 2
 542 790 560 772 560 750 c 0
 560 728 542 710 520 710 c 2
 480 710 l 2
 458 710 440 728 440 750 c 0
40 750 m 0
 40 772 58 790 80 790 c 2
 120 790 l 2
 142 790 160 772 160 750 c 0
 160 728 142 710 120 710 c 2
 80 710 l 2
 58 710 40 728 40 750 c 0
EndSplineSet
EndChar

StartChar: ring
Encoding: 730 730 191
Width: 400
Flags: HMW
LayerCount: 2
Fore
SplineSet
140 550 m 0
 140 572 158 590 180 590 c 2
 220 590 l 2
 242 590 260 572 260 550 c 0
 260 528 242 510 220 510 c 2
 180 510 l 2
 158 510 140 528 140 550 c 0
240 650 m 0
 240 672 258 690 280 690 c 2
 320 690 l 2
 342 690 360 672 360 650 c 0
 360 628 342 610 320 610 c 2
 280 610 l 2
 258 610 240 628 240 650 c 0
40 650 m 0
 40 672 58 690 80 690 c 2
 120 690 l 2
 142 690 160 672 160 650 c 0
 160 628 142 610 120 610 c 2
 80 610 l 2
 58 610 40 628 40 650 c 0
140 750 m 0
 140 772 158 790 180 790 c 2
 220 790 l 2
 242 790 260 772 260 750 c 0
 260 728 242 710 220 710 c 2
 180 710 l 2
 158 710 140 728 140 750 c 0
EndSplineSet
EndChar

StartChar: ogonek
Encoding: 731 731 192
Width: 300
Flags: HMW
LayerCount: 2
Fore
SplineSet
40 -150 m 0
 40 -128 58 -110 80 -110 c 2
 220 -110 l 2
 242 -110 260 -128 260 -150 c 0
 260 -172 242 -190 220 -190 c 2
 80 -190 l 2
 58 -190 40 -172 40 -150 c 0
40 -50 m 0
 40 -28 58 -10 80 -10 c 2
 120 -10 l 2
 142 -10 160 -28 160 -50 c 0
 160 -72 142 -90 120 -90 c 2
 80 -90 l 2
 58 -90 40 -72 40 -50 c 0
EndSplineSet
EndChar

StartChar: tilde
Encoding: 732 732 193
Width: 600
Flags: HMW
LayerCount: 2
Fore
SplineSet
240 650 m 0
 240 672 258 690 280 690 c 2
 420 690 l 2
 442 690 460 672 460 650 c 0
 460 628 442 610 420 610 c 2
 280 610 l 2
 258 610 240 628 240 650 c 0
40 650 m 0
 40 672 58 690 80 690 c 2
 120 690 l 2
 142 690 160 672 160 650 c 0
 160 628 142 610 120 610 c 2
 80 610 l 2
 58 610 40 628 40 650 c 0
440 750 m 0
 440 772 458 790 480 790 c 2
 520 790 l 2
 542 790 560 772 560 750 c 0
 560 728 542 710 520 710 c 2
 480 710 l 2
 458 710 440 728 440 750 c 0
140 750 m 0
 140 772 158 790 180 790 c 2
 320 790 l 2
 342 790 360 772 360 750 c 0
 360 728 342 710 320 710 c 2
 180 710 l 2
 158 710 140 728 140 750 c 0
EndSplineSet
EndChar

StartChar: pi
Encoding: 960 960 195
Width: 600
Flags: HMW
LayerCount: 2
Fore
SplineSet
440 50 m 0
 440 72 458 90 480 90 c 2
 520 90 l 2
 542 90 560 72 560 50 c 0
 560 28 542 10 520 10 c 2
 480 10 l 2
 458 10 440 28 440 50 c 0
140 50 m 0
 140 72 158 90 180 90 c 2
 220 90 l 2
 242 90 260 72 260 50 c 0
 260 28 242 10 220 10 c 2
 180 10 l 2
 158 10 140 28 140 50 c 0
340 150 m 0
 340 172 358 190 380 190 c 2
 420 190 l 2
 442 190 460 172 460 150 c 0
 460 128 442 110 420 110 c 2
 380 110 l 2
 358 110 340 128 340 150 c 0
140 150 m 0
 140 172 158 190 180 190 c 2
 220 190 l 2
 242 190 260 172 260 150 c 0
 260 128 242 110 220 110 c 2
 180 110 l 2
 158 110 140 128 140 150 c 0
340 250 m 0
 340 272 358 290 380 290 c 2
 420 290 l 2
 442 290 460 272 460 250 c 0
 460 228 442 210 420 210 c 2
 380 210 l 2
 358 210 340 228 340 250 c 0
140 250 m 0
 140 272 158 290 180 290 c 2
 220 290 l 2
 242 290 260 272 260 250 c 0
 260 228 242 210 220 210 c 2
 180 210 l 2
 158 210 140 228 140 250 c 0
340 350 m 0
 340 372 358 390 380 390 c 2
 420 390 l 2
 442 390 460 372 460 350 c 0
 460 328 442 310 420 310 c 2
 380 310 l 2
 358 310 340 328 340 350 c 0
140 350 m 0
 140 372 158 390 180 390 c 2
 220 390 l 2
 242 390 260 372 260 350 c 0
 260 328 242 310 220 310 c 2
 180 310 l 2
 158 310 140 328 140 350 c 0
40 450 m 0
 40 472 58 490 80 490 c 2
 520 490 l 2
 542 490 560 472 560 450 c 0
 560 428 542 410 520 410 c 2
 80 410 l 2
 58 410 40 428 40 450 c 0
EndSplineSet
EndChar

